<?xml version="1.0" encoding="UTF-8" standalone="no"?><!-- Generator: Gravit.io --><svg xmlns="http://www.w3.org/2000/svg" xmlns:xlink="http://www.w3.org/1999/xlink" style="isolation:isolate" viewBox="0 0 460.667 816.667" width="460.667pt" height="816.667pt"><defs><clipPath id="_clipPath_uCpYnjnX4Y0Gl8dE5Bjn5TiWmiiGz6OD"><rect width="460.667" height="816.667"/></clipPath></defs><g clip-path="url(#_clipPath_uCpYnjnX4Y0Gl8dE5Bjn5TiWmiiGz6OD)"><path d=" M 0 408.333 L 0 0 L 230.333 0 L 460.667 0 L 460.667 408.333 L 460.667 816.667 L 230.333 816.667 L 0 816.667 L 0 408.333 Z  M 42.188 785.759 C 46.72 783.841 48.655 778.489 46.396 774.122 C 43.493 768.507 34.393 768.682 31.677 774.405 C 28.292 781.538 35.011 788.796 42.188 785.759 Z  M 425.793 784.979 C 432.225 780.764 428.771 770 420.986 770 C 415.839 770 412.667 773.258 412.667 778.544 C 412.667 784.871 420.269 788.598 425.793 784.979 Z  M 82 777.972 L 82 772.611 L 76.833 772.805 L 71.667 773 L 71.472 778.167 L 71.277 783.333 L 76.639 783.333 L 82 783.333 L 82 777.972 Z  M 110 778 L 110 772.667 L 104.667 772.667 L 99.333 772.667 L 99.333 778 L 99.333 783.333 L 104.667 783.333 L 110 783.333 L 110 778 Z  M 137.861 778.167 L 137.667 773 L 132.5 772.805 L 127.333 772.611 L 127.333 777.972 L 127.333 783.333 L 132.695 783.333 L 138.056 783.333 L 137.861 778.167 Z  M 165.861 778.167 L 165.667 773 L 160.5 772.805 L 155.333 772.611 L 155.333 777.972 L 155.333 783.333 L 160.695 783.333 L 166.056 783.333 L 165.861 778.167 Z  M 193.333 777.972 L 193.333 772.611 L 188.167 772.805 L 183 773 L 182.805 778.167 L 182.611 783.333 L 187.972 783.333 L 193.333 783.333 L 193.333 777.972 Z  M 276.667 778 L 276.667 772.667 L 271.667 772.667 L 266.667 772.667 L 266.667 778 L 266.667 783.333 L 271.667 783.333 L 276.667 783.333 L 276.667 778 Z  M 304.667 777.972 L 304.667 772.611 L 299.5 772.805 L 294.333 773 L 294.139 778.167 L 293.944 783.333 L 299.305 783.333 L 304.667 783.333 L 304.667 777.972 Z  M 332.667 777.972 L 332.667 772.611 L 327.5 772.805 L 322.333 773 L 322.139 778.167 L 321.944 783.333 L 327.305 783.333 L 332.667 783.333 L 332.667 777.972 Z  M 360.528 778.167 L 360.333 773 L 355.167 772.805 L 350 772.611 L 350 777.972 L 350 783.333 L 355.361 783.333 L 360.723 783.333 L 360.528 778.167 Z  M 388.528 778.167 L 388.333 773 L 383.167 772.805 L 378 772.611 L 378 777.972 L 378 783.333 L 383.361 783.333 L 388.723 783.333 L 388.528 778.167 Z  M 235.34 759.167 C 240.392 755.728 241.85 750.866 239.368 745.738 C 235.38 737.499 223.54 737.843 220.314 746.291 C 217.601 753.396 222.499 760.667 230 760.667 C 232.155 760.667 233.826 760.197 235.34 759.167 Z  M 45.144 755.742 C 48.732 751.827 47.817 745.319 43.355 743.011 C 38.057 740.271 31.647 743.38 30.886 749.059 C 29.787 757.248 39.564 761.831 45.144 755.742 Z  M 425.207 757.316 C 429.94 754.431 430.508 747.991 426.366 744.167 C 422.503 740.599 415.978 741.531 413.678 745.978 C 409.674 753.721 417.875 761.786 425.207 757.316 Z  M 82 750.333 L 82 745.333 L 76.667 745.333 L 71.333 745.333 L 71.333 750.333 L 71.333 755.333 L 76.667 755.333 L 82 755.333 L 82 750.333 Z  M 110 750.333 L 110 745.333 L 104.667 745.333 L 99.333 745.333 L 99.333 750.333 L 99.333 755.333 L 104.667 755.333 L 110 755.333 L 110 750.333 Z  M 138 750.333 L 138 745.333 L 132.667 745.333 L 127.333 745.333 L 127.333 750.333 L 127.333 755.333 L 132.667 755.333 L 138 755.333 L 138 750.333 Z  M 166 750.333 L 166 745.333 L 160.667 745.333 L 155.333 745.333 L 155.333 750.333 L 155.333 755.333 L 160.667 755.333 L 166 755.333 L 166 750.333 Z  M 193.333 750.333 L 193.333 745.333 L 188 745.333 L 182.667 745.333 L 182.667 750.333 L 182.667 755.333 L 188 755.333 L 193.333 755.333 L 193.333 750.333 Z  M 276.667 750.333 L 276.667 745.333 L 271.667 745.333 L 266.667 745.333 L 266.667 750.333 L 266.667 755.333 L 271.667 755.333 L 276.667 755.333 L 276.667 750.333 Z  M 304.667 750.333 L 304.667 745.333 L 299.333 745.333 L 294 745.333 L 294 750.333 L 294 755.333 L 299.333 755.333 L 304.667 755.333 L 304.667 750.333 Z  M 332.667 750.333 L 332.667 745.333 L 327.333 745.333 L 322 745.333 L 322 750.333 L 322 755.333 L 327.333 755.333 L 332.667 755.333 L 332.667 750.333 Z  M 360.667 750.333 L 360.667 745.333 L 355.333 745.333 L 350 745.333 L 350 750.333 L 350 755.333 L 355.333 755.333 L 360.667 755.333 L 360.667 750.333 Z  M 388.667 750.333 L 388.667 745.333 L 383.333 745.333 L 378 745.333 L 378 750.333 L 378 755.333 L 383.333 755.333 L 388.667 755.333 L 388.667 750.333 Z  M 43.307 729.576 C 47.844 726.896 48.735 720.843 45.166 716.949 C 39.683 710.965 30.069 715.179 30.886 723.208 C 31.498 729.215 38.147 732.624 43.307 729.576 Z  M 424.647 729.814 C 428.813 727.706 430.432 722.143 428.027 718.199 C 423.621 710.972 412.667 713.899 412.667 722.303 C 412.667 728.685 419.014 732.664 424.647 729.814 Z  M 82 722.333 L 82 717.333 L 76.667 717.333 L 71.333 717.333 L 71.333 722.333 L 71.333 727.333 L 76.667 727.333 L 82 727.333 L 82 722.333 Z  M 110 722.333 L 110 717.333 L 104.667 717.333 L 99.333 717.333 L 99.333 722.333 L 99.333 727.333 L 104.667 727.333 L 110 727.333 L 110 722.333 Z  M 138 722.333 L 138 717.333 L 132.667 717.333 L 127.333 717.333 L 127.333 722.333 L 127.333 727.333 L 132.667 727.333 L 138 727.333 L 138 722.333 Z  M 166 722.333 L 166 717.333 L 160.667 717.333 L 155.333 717.333 L 155.333 722.333 L 155.333 727.333 L 160.667 727.333 L 166 727.333 L 166 722.333 Z  M 193.333 722.333 L 193.333 717.333 L 188 717.333 L 182.667 717.333 L 182.667 722.333 L 182.667 727.333 L 188 727.333 L 193.333 727.333 L 193.333 722.333 Z  M 276.667 722.333 L 276.667 717.333 L 271.667 717.333 L 266.667 717.333 L 266.667 722.333 L 266.667 727.333 L 271.667 727.333 L 276.667 727.333 L 276.667 722.333 Z  M 304.667 722.333 L 304.667 717.333 L 299.333 717.333 L 294 717.333 L 294 722.333 L 294 727.333 L 299.333 727.333 L 304.667 727.333 L 304.667 722.333 Z  M 332.667 722.333 L 332.667 717.333 L 327.333 717.333 L 322 717.333 L 322 722.333 L 322 727.333 L 327.333 727.333 L 332.667 727.333 L 332.667 722.333 Z  M 360.667 722.333 L 360.667 717.333 L 355.333 717.333 L 350 717.333 L 350 722.333 L 350 727.333 L 355.333 727.333 L 360.667 727.333 L 360.667 722.333 Z  M 388.667 722.333 L 388.667 717.333 L 383.333 717.333 L 378 717.333 L 378 722.333 L 378 727.333 L 383.333 727.333 L 388.667 727.333 L 388.667 722.333 Z  M 43.355 701.655 C 44.431 701.099 45.766 699.764 46.322 698.688 C 51.22 689.217 38.1 681.186 32.13 690 C 27.327 697.09 35.591 705.671 43.355 701.655 L 43.355 701.655 Z  M 426.409 700.477 C 431.188 696.097 429.71 688.859 423.602 686.73 C 416.354 684.203 410.088 691.747 413.675 698.683 C 415.992 703.163 422.481 704.077 426.409 700.477 Z  M 82 694.667 L 82 689.333 L 76.667 689.333 L 71.333 689.333 L 71.333 694.222 C 71.333 700.198 71.135 700 77.111 700 L 82 700 L 82 694.667 Z  M 110 694.667 L 110 689.333 L 104.667 689.333 L 99.333 689.333 L 99.333 694.667 L 99.333 700 L 104.667 700 L 110 700 L 110 694.667 Z  M 137.861 694.5 L 138.056 689.333 L 132.695 689.333 L 127.333 689.333 L 127.333 694.695 L 127.333 700.056 L 132.5 699.861 L 137.667 699.667 L 137.861 694.5 Z  M 165.861 694.5 L 166.056 689.333 L 160.695 689.333 L 155.333 689.333 L 155.333 694.695 L 155.333 700.056 L 160.5 699.861 L 165.667 699.667 L 165.861 694.5 Z  M 193.333 694.667 L 193.333 689.333 L 188 689.333 L 182.667 689.333 L 182.667 694.222 C 182.667 700.198 182.468 700 188.444 700 L 193.333 700 L 193.333 694.667 Z  M 276.667 694.667 L 276.667 689.333 L 271.667 689.333 L 266.667 689.333 L 266.667 694.667 L 266.667 700 L 271.667 700 L 276.667 700 L 276.667 694.667 Z  M 304.667 694.667 L 304.667 689.333 L 299.333 689.333 L 294 689.333 L 294 694.222 C 294 700.198 293.802 700 299.778 700 L 304.667 700 L 304.667 694.667 Z  M 332.667 694.667 L 332.667 689.333 L 327.333 689.333 L 322 689.333 L 322 694.667 L 322 700 L 327.333 700 L 332.667 700 L 332.667 694.667 Z  M 360.667 694.667 L 360.667 689.333 L 355.333 689.333 L 350 689.333 L 350 694.667 L 350 700 L 355.333 700 L 360.667 700 L 360.667 694.667 Z  M 388.528 694.5 L 388.723 689.333 L 383.361 689.333 L 378 689.333 L 378 694.695 L 378 700.056 L 383.167 699.861 L 388.333 699.667 L 388.528 694.5 Z  M 43.819 673.595 C 47.416 671.318 48.402 664.383 45.579 661.214 C 41.511 656.647 33.843 657.688 31.576 663.115 C 28.298 670.96 36.666 678.123 43.819 673.595 Z  M 424.384 674.07 C 433.767 669.808 428.08 655.45 418.288 658.682 C 410.796 661.154 410.749 672.438 418.222 674.602 C 421.19 675.461 421.351 675.447 424.384 674.07 L 424.384 674.07 Z  M 82 666.667 L 82 661.333 L 76.667 661.333 L 71.333 661.333 L 71.333 666.667 L 71.333 672 L 76.667 672 L 82 672 L 82 666.667 Z  M 110 666.667 L 110 661.333 L 104.667 661.333 L 99.333 661.333 L 99.333 666.667 L 99.333 672 L 104.667 672 L 110 672 L 110 666.667 Z  M 138 666.667 L 138 661.333 L 132.667 661.333 L 127.333 661.333 L 127.333 666.667 L 127.333 672 L 132.667 672 L 138 672 L 138 666.667 Z  M 165.667 666.667 L 165.667 661.667 L 160.5 661.472 L 155.333 661.277 L 155.333 666.667 L 155.333 672.056 L 160.5 671.861 L 165.667 671.667 L 165.667 666.667 Z  M 193.333 666.667 L 193.333 661.333 L 188 661.333 L 182.667 661.333 L 182.667 666.667 L 182.667 672 L 188 672 L 193.333 672 L 193.333 666.667 Z  M 276.667 666.667 L 276.667 661.333 L 271.667 661.333 L 266.667 661.333 L 266.667 666.667 L 266.667 672 L 271.667 672 L 276.667 672 L 276.667 666.667 Z  M 304.667 666.667 L 304.667 661.333 L 299.333 661.333 L 294 661.333 L 294 666.667 L 294 672 L 299.333 672 L 304.667 672 L 304.667 666.667 Z  M 332.667 666.667 L 332.667 661.333 L 327.333 661.333 L 322 661.333 L 322 666.667 L 322 672 L 327.333 672 L 332.667 672 L 332.667 666.667 Z  M 360.667 666.667 L 360.667 661.333 L 355.333 661.333 L 350 661.333 L 350 666.667 L 350 672 L 355.333 672 L 360.667 672 L 360.667 666.667 Z  M 388.333 666.667 L 388.333 661.667 L 383.167 661.472 L 378 661.277 L 378 666.667 L 378 672.056 L 383.167 671.861 L 388.333 671.667 L 388.333 666.667 Z  M 42.188 646.425 C 46.72 644.507 48.655 639.156 46.396 634.788 C 43.493 629.174 34.393 629.349 31.677 635.071 C 28.292 642.205 35.011 649.463 42.188 646.425 Z  M 425.793 645.645 C 432.225 641.431 428.771 630.667 420.986 630.667 C 415.839 630.667 412.667 633.925 412.667 639.21 C 412.667 645.538 420.269 649.265 425.793 645.645 L 425.793 645.645 Z  M 82 638.639 L 82 633.277 L 76.833 633.472 L 71.667 633.667 L 71.472 638.833 L 71.277 644 L 76.639 644 L 82 644 L 82 638.639 Z  M 110 638.639 L 110 633.277 L 104.833 633.472 L 99.667 633.667 L 99.472 638.833 L 99.277 644 L 104.639 644 L 110 644 L 110 638.639 Z  M 137.861 638.833 L 137.667 633.667 L 132.5 633.472 L 127.333 633.277 L 127.333 638.639 L 127.333 644 L 132.695 644 L 138.056 644 L 137.861 638.833 Z  M 165.861 638.833 L 165.667 633.667 L 160.5 633.472 L 155.333 633.277 L 155.333 638.639 L 155.333 644 L 160.695 644 L 166.056 644 L 165.861 638.833 Z  M 193.333 638.639 L 193.333 633.277 L 188.167 633.472 L 183 633.667 L 182.805 638.833 L 182.611 644 L 187.972 644 L 193.333 644 L 193.333 638.639 Z  M 276.667 638.667 L 276.667 633.333 L 271.667 633.333 L 266.667 633.333 L 266.667 638.667 L 266.667 644 L 271.667 644 L 276.667 644 L 276.667 638.667 Z  M 304.667 638.639 L 304.667 633.277 L 299.5 633.472 L 294.333 633.667 L 294.139 638.833 L 293.944 644 L 299.305 644 L 304.667 644 L 304.667 638.639 Z  M 332.667 638.639 L 332.667 633.277 L 327.5 633.472 L 322.333 633.667 L 322.139 638.833 L 321.944 644 L 327.305 644 L 332.667 644 L 332.667 638.639 Z  M 360.528 638.833 L 360.333 633.667 L 355.167 633.472 L 350 633.277 L 350 638.639 L 350 644 L 355.361 644 L 360.723 644 L 360.528 638.833 Z  M 388.528 638.833 L 388.333 633.667 L 383.167 633.472 L 378 633.277 L 378 638.639 L 378 644 L 383.361 644 L 388.723 644 L 388.528 638.833 Z  M 45.144 616.409 C 48.732 612.494 47.817 605.985 43.355 603.678 C 38.057 600.938 31.647 604.046 30.886 609.725 C 29.787 617.914 39.564 622.497 45.144 616.409 Z  M 425.207 617.983 C 429.94 615.097 430.508 608.657 426.366 604.833 C 422.503 601.266 415.978 602.198 413.678 606.645 C 409.674 614.388 417.875 622.453 425.207 617.983 Z  M 82 611 L 82 606 L 76.667 606 L 71.333 606 L 71.333 611 L 71.333 616 L 76.667 616 L 82 616 L 82 611 Z  M 110 611 L 110 606 L 104.667 606 L 99.333 606 L 99.333 611 L 99.333 616 L 104.667 616 L 110 616 L 110 611 Z  M 138 611 L 138 606 L 132.667 606 L 127.333 606 L 127.333 611 L 127.333 616 L 132.667 616 L 138 616 L 138 611 Z  M 166 611 L 166 606 L 160.667 606 L 155.333 606 L 155.333 611 L 155.333 616 L 160.667 616 L 166 616 L 166 611 Z  M 193.333 611 L 193.333 606 L 188 606 L 182.667 606 L 182.667 611 L 182.667 616 L 188 616 L 193.333 616 L 193.333 611 Z  M 276.667 611 L 276.667 606 L 271.667 606 L 266.667 606 L 266.667 611 L 266.667 616 L 271.667 616 L 276.667 616 L 276.667 611 Z  M 304.667 611 L 304.667 606 L 299.333 606 L 294 606 L 294 611 L 294 616 L 299.333 616 L 304.667 616 L 304.667 611 Z  M 332.667 611 L 332.667 606 L 327.333 606 L 322 606 L 322 611 L 322 616 L 327.333 616 L 332.667 616 L 332.667 611 Z  M 360.667 611 L 360.667 606 L 355.333 606 L 350 606 L 350 611 L 350 616 L 355.333 616 L 360.667 616 L 360.667 611 Z  M 388.667 611 L 388.667 606 L 383.333 606 L 378 606 L 378 611 L 378 616 L 383.333 616 L 388.667 616 L 388.667 611 Z  M 43.622 590.036 C 47.999 587.15 48.704 581.477 45.166 577.616 C 39.683 571.632 30.069 575.846 30.886 583.875 C 31.514 590.04 38.493 593.416 43.622 590.036 Z  M 425.59 589.941 C 433.818 583.469 426.495 571.206 417.071 575.678 C 411.507 578.318 411.158 587.386 416.508 590.29 C 419.221 591.762 423.484 591.598 425.59 589.941 Z  M 82 583 L 82 578 L 76.667 578 L 71.333 578 L 71.333 583 L 71.333 588 L 76.667 588 L 82 588 L 82 583 Z  M 110 583 L 110 578 L 104.667 578 L 99.333 578 L 99.333 583 L 99.333 588 L 104.667 588 L 110 588 L 110 583 Z  M 138 583 L 138 578 L 132.667 578 L 127.333 578 L 127.333 583 L 127.333 588 L 132.667 588 L 138 588 L 138 583 Z  M 166 583 L 166 578 L 160.667 578 L 155.333 578 L 155.333 583 L 155.333 588 L 160.667 588 L 166 588 L 166 583 Z  M 193.333 583 L 193.333 578 L 188 578 L 182.667 578 L 182.667 583 L 182.667 588 L 188 588 L 193.333 588 L 193.333 583 Z  M 276.667 583 L 276.667 578 L 271.667 578 L 266.667 578 L 266.667 583 L 266.667 588 L 271.667 588 L 276.667 588 L 276.667 583 Z  M 304.667 583 L 304.667 578 L 299.333 578 L 294 578 L 294 583 L 294 588 L 299.333 588 L 304.667 588 L 304.667 583 Z  M 332.667 583 L 332.667 578 L 327.333 578 L 322 578 L 322 583 L 322 588 L 327.333 588 L 332.667 588 L 332.667 583 Z  M 360.667 583 L 360.667 578 L 355.333 578 L 350 578 L 350 583 L 350 588 L 355.333 588 L 360.667 588 L 360.667 583 Z  M 388.667 583 L 388.667 578 L 383.333 578 L 378 578 L 378 583 L 378 588 L 383.333 588 L 388.667 588 L 388.667 583 Z  M 43.355 562.322 C 47.837 560.004 48.77 553.304 45.119 549.653 C 38.229 542.763 27.509 550.145 31.67 558.914 C 33.596 562.972 39.032 564.558 43.355 562.322 Z  M 425.386 562.196 C 431.249 558.733 430.158 549.681 423.602 547.397 C 416.354 544.87 410.088 552.414 413.675 559.35 C 415.618 563.107 421.446 564.524 425.386 562.196 Z  M 82 555.333 L 82 550 L 76.667 550 L 71.333 550 L 71.333 554.889 C 71.333 560.865 71.135 560.667 77.111 560.667 L 82 560.667 L 82 555.333 Z  M 110 555.333 L 110 550 L 104.667 550 L 99.333 550 L 99.333 555.333 L 99.333 560.667 L 104.667 560.667 L 110 560.667 L 110 555.333 Z  M 137.861 555.167 L 138.056 550 L 132.695 550 L 127.333 550 L 127.333 555.361 L 127.333 560.723 L 132.5 560.528 L 137.667 560.333 L 137.861 555.167 Z  M 165.861 555.167 L 166.056 550 L 160.695 550 L 155.333 550 L 155.333 555.361 L 155.333 560.723 L 160.5 560.528 L 165.667 560.333 L 165.861 555.167 Z  M 193.333 555.333 L 193.333 550 L 188 550 L 182.667 550 L 182.667 554.889 C 182.667 560.865 182.468 560.667 188.444 560.667 L 193.333 560.667 L 193.333 555.333 Z  M 276.667 555.333 L 276.667 550 L 271.667 550 L 266.667 550 L 266.667 555.333 L 266.667 560.667 L 271.667 560.667 L 276.667 560.667 L 276.667 555.333 Z  M 304.667 555.333 L 304.667 550 L 299.333 550 L 294 550 L 294 554.889 C 294 560.865 293.802 560.667 299.778 560.667 L 304.667 560.667 L 304.667 555.333 Z  M 332.667 555.333 L 332.667 550 L 327.333 550 L 322 550 L 322 555.333 L 322 560.667 L 327.333 560.667 L 332.667 560.667 L 332.667 555.333 Z  M 360.667 555.333 L 360.667 550 L 355.333 550 L 350 550 L 350 555.333 L 350 560.667 L 355.333 560.667 L 360.667 560.667 L 360.667 555.333 Z  M 388.528 555.167 L 388.723 550 L 383.361 550 L 378 550 L 378 555.361 L 378 560.723 L 383.167 560.528 L 388.333 560.333 L 388.528 555.167 Z  M 43.819 534.262 C 47.416 531.985 48.402 525.05 45.579 521.881 C 40.988 516.727 32.216 518.949 30.972 525.581 C 29.596 532.918 37.503 538.26 43.819 534.262 Z  M 424.384 534.737 C 433.734 530.49 428.045 516.128 418.288 519.348 C 410.796 521.821 410.749 533.105 418.222 535.268 C 421.19 536.128 421.351 536.114 424.384 534.737 L 424.384 534.737 Z  M 82 527.333 L 82 522 L 76.667 522 L 71.333 522 L 71.333 527.333 L 71.333 532.667 L 76.667 532.667 L 82 532.667 L 82 527.333 Z  M 110 527.333 L 110 522 L 104.667 522 L 99.333 522 L 99.333 527.333 L 99.333 532.667 L 104.667 532.667 L 110 532.667 L 110 527.333 Z  M 138 527.333 L 138 522 L 132.667 522 L 127.333 522 L 127.333 527.333 L 127.333 532.667 L 132.667 532.667 L 138 532.667 L 138 527.333 Z  M 165.667 527.333 L 165.667 522.333 L 160.5 522.139 L 155.333 521.944 L 155.333 527.333 L 155.333 532.723 L 160.5 532.528 L 165.667 532.333 L 165.667 527.333 Z  M 193.333 527.333 L 193.333 522 L 188 522 L 182.667 522 L 182.667 527.333 L 182.667 532.667 L 188 532.667 L 193.333 532.667 L 193.333 527.333 Z  M 276.667 527.333 L 276.667 522 L 271.667 522 L 266.667 522 L 266.667 527.333 L 266.667 532.667 L 271.667 532.667 L 276.667 532.667 L 276.667 527.333 Z  M 304.667 527.333 L 304.667 522 L 299.333 522 L 294 522 L 294 527.333 L 294 532.667 L 299.333 532.667 L 304.667 532.667 L 304.667 527.333 Z  M 332.667 527.333 L 332.667 522 L 327.333 522 L 322 522 L 322 527.333 L 322 532.667 L 327.333 532.667 L 332.667 532.667 L 332.667 527.333 Z  M 360.667 527.333 L 360.667 522 L 355.333 522 L 350 522 L 350 527.333 L 350 532.667 L 355.333 532.667 L 360.667 532.667 L 360.667 527.333 Z  M 388.333 527.333 L 388.333 522.333 L 383.167 522.139 L 378 521.944 L 378 527.333 L 378 532.723 L 383.167 532.528 L 388.333 532.333 L 388.333 527.333 Z  M 42.188 507.092 C 46.72 505.174 48.655 499.823 46.396 495.455 C 43.493 489.841 34.393 490.016 31.677 495.738 C 28.292 502.872 35.011 510.13 42.188 507.092 Z  M 425.793 506.312 C 432.225 502.097 428.771 491.333 420.986 491.333 C 415.839 491.333 412.667 494.591 412.667 499.877 C 412.667 506.205 420.269 509.931 425.793 506.312 L 425.793 506.312 Z  M 82 499.305 L 82 493.944 L 76.833 494.139 L 71.667 494.333 L 71.472 499.5 L 71.277 504.667 L 76.639 504.667 L 82 504.667 L 82 499.305 Z  M 110 499.305 L 110 493.944 L 104.833 494.139 L 99.667 494.333 L 99.472 499.5 L 99.277 504.667 L 104.639 504.667 L 110 504.667 L 110 499.305 Z  M 137.861 499.5 L 137.667 494.333 L 132.5 494.139 L 127.333 493.944 L 127.333 499.305 L 127.333 504.667 L 132.695 504.667 L 138.056 504.667 L 137.861 499.5 Z  M 165.861 499.5 L 165.667 494.333 L 160.5 494.139 L 155.333 493.944 L 155.333 499.305 L 155.333 504.667 L 160.695 504.667 L 166.056 504.667 L 165.861 499.5 Z  M 193.333 499.305 L 193.333 493.944 L 188.167 494.139 L 183 494.333 L 182.805 499.5 L 182.611 504.667 L 187.972 504.667 L 193.333 504.667 L 193.333 499.305 Z  M 276.667 499.333 L 276.667 494 L 271.667 494 L 266.667 494 L 266.667 499.333 L 266.667 504.667 L 271.667 504.667 L 276.667 504.667 L 276.667 499.333 Z  M 304.667 499.305 L 304.667 493.944 L 299.5 494.139 L 294.333 494.333 L 294.139 499.5 L 293.944 504.667 L 299.305 504.667 L 304.667 504.667 L 304.667 499.305 Z  M 332.667 499.305 L 332.667 493.944 L 327.5 494.139 L 322.333 494.333 L 322.139 499.5 L 321.944 504.667 L 327.305 504.667 L 332.667 504.667 L 332.667 499.305 Z  M 360.528 499.5 L 360.333 494.333 L 355.167 494.139 L 350 493.944 L 350 499.305 L 350 504.667 L 355.361 504.667 L 360.723 504.667 L 360.528 499.5 Z  M 388.528 499.5 L 388.333 494.333 L 383.167 494.139 L 378 493.944 L 378 499.305 L 378 504.667 L 383.361 504.667 L 388.723 504.667 L 388.528 499.5 Z  M 45.144 477.075 C 48.732 473.16 47.817 466.652 43.355 464.345 C 38.057 461.605 31.647 464.713 30.886 470.392 C 29.787 478.581 39.564 483.164 45.144 477.075 Z  M 425.401 478.478 C 428.066 476.688 429.786 472.56 429.064 469.685 C 427.297 462.643 416.92 461.042 413.678 467.312 C 409.611 475.176 418.174 483.333 425.401 478.478 Z  M 82 471.667 L 82 466.667 L 76.667 466.667 L 71.333 466.667 L 71.333 471.667 L 71.333 476.667 L 76.667 476.667 L 82 476.667 L 82 471.667 Z  M 110 471.667 L 110 466.667 L 104.667 466.667 L 99.333 466.667 L 99.333 471.667 L 99.333 476.667 L 104.667 476.667 L 110 476.667 L 110 471.667 Z  M 138 471.667 L 138 466.667 L 132.667 466.667 L 127.333 466.667 L 127.333 471.667 L 127.333 476.667 L 132.667 476.667 L 138 476.667 L 138 471.667 Z  M 166 471.667 L 166 466.667 L 160.667 466.667 L 155.333 466.667 L 155.333 471.667 L 155.333 476.667 L 160.667 476.667 L 166 476.667 L 166 471.667 Z  M 193.333 471.667 L 193.333 466.667 L 188 466.667 L 182.667 466.667 L 182.667 471.667 L 182.667 476.667 L 188 476.667 L 193.333 476.667 L 193.333 471.667 Z  M 276.667 471.667 L 276.667 466.667 L 271.667 466.667 L 266.667 466.667 L 266.667 471.667 L 266.667 476.667 L 271.667 476.667 L 276.667 476.667 L 276.667 471.667 Z  M 304.667 471.667 L 304.667 466.667 L 299.333 466.667 L 294 466.667 L 294 471.667 L 294 476.667 L 299.333 476.667 L 304.667 476.667 L 304.667 471.667 Z  M 332.667 471.667 L 332.667 466.667 L 327.333 466.667 L 322 466.667 L 322 471.667 L 322 476.667 L 327.333 476.667 L 332.667 476.667 L 332.667 471.667 Z  M 360.667 471.667 L 360.667 466.667 L 355.333 466.667 L 350 466.667 L 350 471.667 L 350 476.667 L 355.333 476.667 L 360.667 476.667 L 360.667 471.667 Z  M 388.667 471.667 L 388.667 466.667 L 383.333 466.667 L 378 466.667 L 378 471.667 L 378 476.667 L 383.333 476.667 L 388.667 476.667 L 388.667 471.667 Z  M 43.355 450.989 C 47.803 448.689 48.732 442.173 45.166 438.282 C 39.683 432.299 30.069 436.513 30.886 444.542 C 31.496 450.534 37.865 453.828 43.355 450.989 L 43.355 450.989 Z  M 425.59 450.608 C 433.818 444.135 426.495 431.873 417.071 436.344 C 411.507 438.985 411.158 448.053 416.508 450.956 C 419.221 452.428 423.484 452.265 425.59 450.608 Z  M 82 443.667 L 82 438.667 L 76.667 438.667 L 71.333 438.667 L 71.333 443.667 L 71.333 448.667 L 76.667 448.667 L 82 448.667 L 82 443.667 Z  M 110 443.667 L 110 438.667 L 104.667 438.667 L 99.333 438.667 L 99.333 443.667 L 99.333 448.667 L 104.667 448.667 L 110 448.667 L 110 443.667 Z  M 138 443.667 L 138 438.667 L 132.667 438.667 L 127.333 438.667 L 127.333 443.667 L 127.333 448.667 L 132.667 448.667 L 138 448.667 L 138 443.667 Z  M 166 443.667 L 166 438.667 L 160.667 438.667 L 155.333 438.667 L 155.333 443.667 L 155.333 448.667 L 160.667 448.667 L 166 448.667 L 166 443.667 Z  M 193.333 443.667 L 193.333 438.667 L 188 438.667 L 182.667 438.667 L 182.667 443.667 L 182.667 448.667 L 188 448.667 L 193.333 448.667 L 193.333 443.667 Z  M 276.667 443.667 L 276.667 438.667 L 271.667 438.667 L 266.667 438.667 L 266.667 443.667 L 266.667 448.667 L 271.667 448.667 L 276.667 448.667 L 276.667 443.667 Z  M 304.667 443.667 L 304.667 438.667 L 299.333 438.667 L 294 438.667 L 294 443.667 L 294 448.667 L 299.333 448.667 L 304.667 448.667 L 304.667 443.667 Z  M 332.667 443.667 L 332.667 438.667 L 327.333 438.667 L 322 438.667 L 322 443.667 L 322 448.667 L 327.333 448.667 L 332.667 448.667 L 332.667 443.667 Z  M 360.667 443.667 L 360.667 438.667 L 355.333 438.667 L 350 438.667 L 350 443.667 L 350 448.667 L 355.333 448.667 L 360.667 448.667 L 360.667 443.667 Z  M 388.667 443.667 L 388.667 438.667 L 383.333 438.667 L 378 438.667 L 378 443.667 L 378 448.667 L 383.333 448.667 L 388.667 448.667 L 388.667 443.667 Z  M 43.355 422.989 C 47.837 420.671 48.77 413.97 45.119 410.319 C 38.229 403.429 27.509 410.811 31.67 419.58 C 33.596 423.639 39.032 425.224 43.355 422.989 Z  M 425.386 422.863 C 431.21 419.423 430.095 410.373 423.564 408.063 C 416.367 405.518 410.097 413.097 413.675 420.016 C 415.618 423.774 421.446 425.19 425.386 422.863 L 425.386 422.863 Z  M 82 416 L 82 410.667 L 76.667 410.667 L 71.333 410.667 L 71.333 415.556 C 71.333 421.532 71.135 421.333 77.111 421.333 L 82 421.333 L 82 416 Z  M 110 416 L 110 410.667 L 104.667 410.667 L 99.333 410.667 L 99.333 416 L 99.333 421.333 L 104.667 421.333 L 110 421.333 L 110 416 Z  M 137.861 415.833 L 138.056 410.667 L 132.695 410.667 L 127.333 410.667 L 127.333 416.028 L 127.333 421.389 L 132.5 421.195 L 137.667 421 L 137.861 415.833 Z  M 165.861 415.833 L 166.056 410.667 L 160.695 410.667 L 155.333 410.667 L 155.333 416.028 L 155.333 421.389 L 160.5 421.195 L 165.667 421 L 165.861 415.833 Z  M 193.333 416 L 193.333 410.667 L 188 410.667 L 182.667 410.667 L 182.667 415.556 C 182.667 421.532 182.468 421.333 188.444 421.333 L 193.333 421.333 L 193.333 416 Z  M 276.667 416 L 276.667 410.667 L 271.667 410.667 L 266.667 410.667 L 266.667 416 L 266.667 421.333 L 271.667 421.333 L 276.667 421.333 L 276.667 416 Z  M 304.667 416 L 304.667 410.667 L 299.333 410.667 L 294 410.667 L 294 415.556 C 294 421.532 293.802 421.333 299.778 421.333 L 304.667 421.333 L 304.667 416 Z  M 332.667 416 L 332.667 410.667 L 327.333 410.667 L 322 410.667 L 322 416 L 322 421.333 L 327.333 421.333 L 332.667 421.333 L 332.667 416 Z  M 360.667 416 L 360.667 410.667 L 355.333 410.667 L 350 410.667 L 350 416 L 350 421.333 L 355.333 421.333 L 360.667 421.333 L 360.667 416 Z  M 388.528 415.833 L 388.723 410.667 L 383.361 410.667 L 378 410.667 L 378 416.028 L 378 421.389 L 383.167 421.195 L 388.333 421 L 388.528 415.833 Z  M 43.536 395.212 C 44.197 394.865 45.321 393.626 46.033 392.457 C 51.1 384.147 40.469 375.334 33.374 381.962 C 26.238 388.628 34.8 399.792 43.536 395.212 Z  M 424.384 395.403 C 433.478 391.273 428.181 377.071 418.616 379.937 C 409.389 382.701 411.283 395.929 421 396.592 C 421.367 396.617 422.889 396.082 424.384 395.403 L 424.384 395.403 Z  M 82 388 L 82 382.667 L 76.667 382.667 L 71.333 382.667 L 71.333 388 L 71.333 393.333 L 76.667 393.333 L 82 393.333 L 82 388 Z  M 110 388 L 110 382.667 L 104.667 382.667 L 99.333 382.667 L 99.333 388 L 99.333 393.333 L 104.667 393.333 L 110 393.333 L 110 388 Z  M 138 388 L 138 382.667 L 132.667 382.667 L 127.333 382.667 L 127.333 388 L 127.333 393.333 L 132.667 393.333 L 138 393.333 L 138 388 Z  M 165.667 388 L 165.667 383 L 160.5 382.805 L 155.333 382.611 L 155.333 388 L 155.333 393.389 L 160.5 393.195 L 165.667 393 L 165.667 388 Z  M 193.333 388 L 193.333 382.667 L 188 382.667 L 182.667 382.667 L 182.667 388 L 182.667 393.333 L 188 393.333 L 193.333 393.333 L 193.333 388 Z  M 276.667 388 L 276.667 382.667 L 271.667 382.667 L 266.667 382.667 L 266.667 388 L 266.667 393.333 L 271.667 393.333 L 276.667 393.333 L 276.667 388 Z  M 304.667 388 L 304.667 382.667 L 299.333 382.667 L 294 382.667 L 294 388 L 294 393.333 L 299.333 393.333 L 304.667 393.333 L 304.667 388 Z  M 332.667 388 L 332.667 382.667 L 327.333 382.667 L 322 382.667 L 322 388 L 322 393.333 L 327.333 393.333 L 332.667 393.333 L 332.667 388 Z  M 360.667 388 L 360.667 382.667 L 355.333 382.667 L 350 382.667 L 350 388 L 350 393.333 L 355.333 393.333 L 360.667 393.333 L 360.667 388 Z  M 388.333 388 L 388.333 383 L 383.167 382.805 L 378 382.611 L 378 388 L 378 393.389 L 383.167 393.195 L 388.333 393 L 388.333 388 Z  M 42.641 367.68 C 50.656 363.535 47.955 352 38.969 352 C 32.457 352 28.606 358.945 32.016 364.538 C 34.245 368.194 38.954 369.587 42.641 367.68 Z  M 425.793 366.979 C 432.046 362.882 428.789 352 421.31 352 C 415.966 352 412.667 355.261 412.667 360.544 C 412.667 366.871 420.269 370.598 425.793 366.979 L 425.793 366.979 Z  M 82 359.972 L 82 354.611 L 76.833 354.805 L 71.667 355 L 71.472 360.167 L 71.277 365.333 L 76.639 365.333 L 82 365.333 L 82 359.972 Z  M 110 360 L 110 354.667 L 104.667 354.667 L 99.333 354.667 L 99.333 360 L 99.333 365.333 L 104.667 365.333 L 110 365.333 L 110 360 Z  M 137.861 360.167 L 137.667 355 L 132.5 354.805 L 127.333 354.611 L 127.333 359.972 L 127.333 365.333 L 132.695 365.333 L 138.056 365.333 L 137.861 360.167 Z  M 165.861 360.167 L 165.667 355 L 160.5 354.805 L 155.333 354.611 L 155.333 359.972 L 155.333 365.333 L 160.695 365.333 L 166.056 365.333 L 165.861 360.167 Z  M 193.333 359.972 L 193.333 354.611 L 188.167 354.805 L 183 355 L 182.805 360.167 L 182.611 365.333 L 187.972 365.333 L 193.333 365.333 L 193.333 359.972 Z  M 276.667 360 L 276.667 354.667 L 271.667 354.667 L 266.667 354.667 L 266.667 360 L 266.667 365.333 L 271.667 365.333 L 276.667 365.333 L 276.667 360 Z  M 304.667 359.972 L 304.667 354.61 L 299.5 354.805 L 294.333 355 L 294.139 360.167 L 293.944 365.333 L 299.305 365.333 L 304.667 365.333 L 304.667 359.972 Z  M 332.667 359.972 L 332.667 354.61 L 327.5 354.805 L 322.333 355 L 322.139 360.167 L 321.944 365.333 L 327.305 365.333 L 332.667 365.333 L 332.667 359.972 Z  M 360.528 360.167 L 360.333 355 L 355.167 354.805 L 350 354.611 L 350 359.972 L 350 365.333 L 355.361 365.333 L 360.723 365.333 L 360.528 360.167 Z  M 388.528 360.167 L 388.333 355 L 383.167 354.805 L 378 354.611 L 378 359.972 L 378 365.333 L 383.361 365.333 L 388.723 365.333 L 388.528 360.167 Z  M 45.144 337.742 C 48.732 333.827 47.817 327.319 43.355 325.011 C 38.057 322.271 31.647 325.38 30.886 331.059 C 29.787 339.248 39.564 343.831 45.144 337.742 Z  M 424.729 339.634 C 432.37 335.683 429.444 324.048 420.8 324.01 C 417.811 323.997 414.898 325.62 413.678 327.978 C 409.815 335.449 417.384 343.433 424.729 339.634 Z  M 82 332.333 L 82 327.333 L 76.667 327.333 L 71.333 327.333 L 71.333 332.333 L 71.333 337.333 L 76.667 337.333 L 82 337.333 L 82 332.333 Z  M 110 332.333 L 110 327.333 L 104.667 327.333 L 99.333 327.333 L 99.333 332.333 L 99.333 337.333 L 104.667 337.333 L 110 337.333 L 110 332.333 Z  M 138 332.333 L 138 327.333 L 132.667 327.333 L 127.333 327.333 L 127.333 332.333 L 127.333 337.333 L 132.667 337.333 L 138 337.333 L 138 332.333 Z  M 166 332.333 L 166 327.333 L 160.667 327.333 L 155.333 327.333 L 155.333 332.333 L 155.333 337.333 L 160.667 337.333 L 166 337.333 L 166 332.333 Z  M 193.333 332.333 L 193.333 327.333 L 188 327.333 L 182.667 327.333 L 182.667 332.333 L 182.667 337.333 L 188 337.333 L 193.333 337.333 L 193.333 332.333 Z  M 276.667 332.333 L 276.667 327.333 L 271.667 327.333 L 266.667 327.333 L 266.667 332.333 L 266.667 337.333 L 271.667 337.333 L 276.667 337.333 L 276.667 332.333 Z  M 304.667 332.333 L 304.667 327.333 L 299.333 327.333 L 294 327.333 L 294 332.333 L 294 337.333 L 299.333 337.333 L 304.667 337.333 L 304.667 332.333 Z  M 332.667 332.333 L 332.667 327.333 L 327.333 327.333 L 322 327.333 L 322 332.333 L 322 337.333 L 327.333 337.333 L 332.667 337.333 L 332.667 332.333 Z  M 360.667 332.333 L 360.667 327.333 L 355.333 327.333 L 350 327.333 L 350 332.333 L 350 337.333 L 355.333 337.333 L 360.667 337.333 L 360.667 332.333 Z  M 388.667 332.333 L 388.667 327.333 L 383.333 327.333 L 378 327.333 L 378 332.333 L 378 337.333 L 383.333 337.333 L 388.667 337.333 L 388.667 332.333 Z  M 43.355 311.655 C 47.803 309.355 48.732 302.84 45.166 298.949 C 39.638 292.917 30.067 297.184 30.898 305.31 C 31.502 311.226 37.892 314.48 43.355 311.655 Z  M 425.59 311.274 C 433.818 304.802 426.495 292.539 417.071 297.011 C 411.507 299.651 411.158 308.72 416.508 311.623 C 419.221 313.095 423.484 312.931 425.59 311.274 L 425.59 311.274 Z  M 82 304.333 L 82 299.333 L 76.667 299.333 L 71.333 299.333 L 71.333 304.333 L 71.333 309.333 L 76.667 309.333 L 82 309.333 L 82 304.333 Z  M 110 304.333 L 110 299.333 L 104.667 299.333 L 99.333 299.333 L 99.333 304.333 L 99.333 309.333 L 104.667 309.333 L 110 309.333 L 110 304.333 Z  M 138 304.333 L 138 299.333 L 132.667 299.333 L 127.333 299.333 L 127.333 304.333 L 127.333 309.333 L 132.667 309.333 L 138 309.333 L 138 304.333 Z  M 166 304.333 L 166 299.333 L 160.667 299.333 L 155.333 299.333 L 155.333 304.333 L 155.333 309.333 L 160.667 309.333 L 166 309.333 L 166 304.333 Z  M 193.333 304.333 L 193.333 299.333 L 188 299.333 L 182.667 299.333 L 182.667 304.333 L 182.667 309.333 L 188 309.333 L 193.333 309.333 L 193.333 304.333 Z  M 276.667 304.333 L 276.667 299.333 L 271.667 299.333 L 266.667 299.333 L 266.667 304.333 L 266.667 309.333 L 271.667 309.333 L 276.667 309.333 L 276.667 304.333 Z  M 304.667 304.333 L 304.667 299.333 L 299.333 299.333 L 294 299.333 L 294 304.333 L 294 309.333 L 299.333 309.333 L 304.667 309.333 L 304.667 304.333 Z  M 332.667 304.333 L 332.667 299.333 L 327.333 299.333 L 322 299.333 L 322 304.333 L 322 309.333 L 327.333 309.333 L 332.667 309.333 L 332.667 304.333 Z  M 360.667 304.333 L 360.667 299.333 L 355.333 299.333 L 350 299.333 L 350 304.333 L 350 309.333 L 355.333 309.333 L 360.667 309.333 L 360.667 304.333 Z  M 388.667 304.333 L 388.667 299.333 L 383.333 299.333 L 378 299.333 L 378 304.333 L 378 309.333 L 383.333 309.333 L 388.667 309.333 L 388.667 304.333 Z  M 43.355 283.655 C 47.837 281.338 48.77 274.637 45.119 270.986 C 38.229 264.096 27.509 271.478 31.67 280.247 C 33.596 284.305 39.032 285.891 43.355 283.655 Z  M 425.386 283.529 C 431.21 280.089 430.095 271.04 423.564 268.73 C 416.367 266.185 410.097 273.764 413.675 280.683 C 415.618 284.441 421.446 285.857 425.386 283.529 Z  M 82 276.667 L 82 271.333 L 76.667 271.333 L 71.333 271.333 L 71.333 276.667 L 71.333 282 L 76.667 282 L 82 282 L 82 276.667 Z  M 110 276.667 L 110 271.333 L 104.667 271.333 L 99.333 271.333 L 99.333 276.667 L 99.333 282 L 104.667 282 L 110 282 L 110 276.667 Z  M 138 276.667 L 138 271.333 L 132.667 271.333 L 127.333 271.333 L 127.333 276.667 L 127.333 282 L 132.667 282 L 138 282 L 138 276.667 Z  M 165.861 276.5 L 166.056 271.333 L 160.695 271.333 L 155.333 271.333 L 155.333 276.695 L 155.333 282.056 L 160.5 281.861 L 165.667 281.667 L 165.861 276.5 Z  M 193.333 276.667 L 193.333 271.333 L 188 271.333 L 182.667 271.333 L 182.667 276.222 C 182.667 278.911 182.867 281.311 183.111 281.556 C 183.356 281.8 185.756 282 188.444 282 L 193.333 282 L 193.333 276.667 Z  M 276.667 276.667 L 276.667 271.333 L 271.667 271.333 L 266.667 271.333 L 266.667 276.667 L 266.667 282 L 271.667 282 L 276.667 282 L 276.667 276.667 Z  M 304.667 276.667 L 304.667 271.333 L 299.333 271.333 L 294 271.333 L 294 276.667 L 294 282 L 299.333 282 L 304.667 282 L 304.667 276.667 Z  M 332.667 276.667 L 332.667 271.333 L 327.333 271.333 L 322 271.333 L 322 276.667 L 322 282 L 327.333 282 L 332.667 282 L 332.667 276.667 Z  M 360.667 276.667 L 360.667 271.333 L 355.333 271.333 L 350 271.333 L 350 276.667 L 350 282 L 355.333 282 L 360.667 282 L 360.667 276.667 Z  M 388.528 276.5 L 388.723 271.333 L 383.361 271.333 L 378 271.333 L 378 276.695 L 378 282.056 L 383.167 281.861 L 388.333 281.667 L 388.528 276.5 Z  M 43.536 255.879 C 47.031 254.046 48.33 247.976 46.033 244.209 C 42.422 238.287 33.226 239.421 31.245 246.033 C 28.974 253.611 36.446 259.595 43.536 255.879 L 43.536 255.879 Z  M 425.766 255.54 C 431.015 252.101 430.061 243.798 424.114 241.168 C 418.345 238.616 412.667 242.335 412.667 248.667 C 412.667 255.513 419.964 259.342 425.766 255.54 L 425.766 255.54 Z  M 82 248.667 L 82 243.333 L 76.667 243.333 L 71.333 243.333 L 71.333 248.667 L 71.333 254 L 76.667 254 L 82 254 L 82 248.667 Z  M 110 248.667 L 110 243.333 L 104.667 243.333 L 99.333 243.333 L 99.333 248.667 L 99.333 254 L 104.667 254 L 110 254 L 110 248.667 Z  M 138 248.667 L 138 243.333 L 132.667 243.333 L 127.333 243.333 L 127.333 248.667 L 127.333 254 L 132.667 254 L 138 254 L 138 248.667 Z  M 165.667 248.667 L 165.667 243.667 L 160.5 243.472 L 155.333 243.277 L 155.333 248.667 L 155.333 254.056 L 160.5 253.861 L 165.667 253.667 L 165.667 248.667 Z  M 193.333 248.639 L 193.333 243.277 L 188.167 243.472 L 183 243.667 L 182.805 248.833 L 182.611 254 L 187.972 254 L 193.333 254 L 193.333 248.639 Z  M 276.667 248.667 L 276.667 243.333 L 271.667 243.333 L 266.667 243.333 L 266.667 248.667 L 266.667 254 L 271.667 254 L 276.667 254 L 276.667 248.667 Z  M 304.667 248.667 L 304.667 243.333 L 299.333 243.333 L 294 243.333 L 294 248.667 L 294 254 L 299.333 254 L 304.667 254 L 304.667 248.667 Z  M 332.667 248.667 L 332.667 243.333 L 327.333 243.333 L 322 243.333 L 322 248.667 L 322 254 L 327.333 254 L 332.667 254 L 332.667 248.667 Z  M 360.667 248.667 L 360.667 243.333 L 355.333 243.333 L 350 243.333 L 350 248.667 L 350 254 L 355.333 254 L 360.667 254 L 360.667 248.667 Z  M 388.333 248.667 L 388.333 243.667 L 383.167 243.472 L 378 243.277 L 378 248.667 L 378 254.056 L 383.167 253.861 L 388.333 253.667 L 388.333 248.667 Z  M 42.641 228.347 C 50.656 224.202 47.955 212.667 38.969 212.667 C 32.457 212.667 28.606 219.611 32.016 225.204 C 34.245 228.86 38.954 230.253 42.641 228.347 Z  M 425.748 227.675 C 432.041 223.551 428.823 212.667 421.31 212.667 C 415.989 212.667 412.667 215.929 412.667 221.152 C 412.667 227.6 420.16 231.336 425.748 227.675 Z  M 82 220.639 L 82 215.277 L 76.833 215.472 L 71.667 215.667 L 71.472 220.833 L 71.277 226 L 76.639 226 L 82 226 L 82 220.639 Z  M 110 220.667 L 110 215.333 L 104.667 215.333 L 99.333 215.333 L 99.333 220.667 L 99.333 226 L 104.667 226 L 110 226 L 110 220.667 Z  M 137.861 220.833 L 137.667 215.667 L 132.5 215.472 L 127.333 215.277 L 127.333 220.639 L 127.333 226 L 132.695 226 L 138.056 226 L 137.861 220.833 Z  M 165.861 220.833 L 165.667 215.667 L 160.5 215.472 L 155.333 215.277 L 155.333 220.639 L 155.333 226 L 160.695 226 L 166.056 226 L 165.861 220.833 Z  M 193.333 220.639 L 193.333 215.277 L 188.167 215.472 L 183 215.667 L 182.805 220.833 L 182.611 226 L 187.972 226 L 193.333 226 L 193.333 220.639 Z  M 276.667 220.667 L 276.667 215.333 L 271.667 215.333 L 266.667 215.333 L 266.667 220.667 L 266.667 226 L 271.667 226 L 276.667 226 L 276.667 220.667 Z  M 304.667 220.639 L 304.667 215.277 L 299.5 215.472 L 294.333 215.667 L 294.139 220.833 L 293.944 226 L 299.305 226 L 304.667 226 L 304.667 220.639 Z  M 332.667 220.639 L 332.667 215.277 L 327.5 215.472 L 322.333 215.667 L 322.139 220.833 L 321.944 226 L 327.305 226 L 332.667 226 L 332.667 220.639 Z  M 360.528 220.833 L 360.333 215.667 L 355.167 215.472 L 350 215.277 L 350 220.639 L 350 226 L 355.361 226 L 360.723 226 L 360.528 220.833 Z  M 388.528 220.833 L 388.333 215.667 L 383.167 215.472 L 378 215.277 L 378 220.639 L 378 226 L 383.361 226 L 388.723 226 L 388.528 220.833 Z  M 45.144 198.409 C 48.732 194.494 47.817 187.985 43.355 185.678 C 38.057 182.938 31.647 186.046 30.886 191.725 C 29.787 199.914 39.564 204.497 45.144 198.409 Z  M 424.729 200.301 C 432.37 196.35 429.444 184.715 420.8 184.676 C 417.811 184.663 414.898 186.286 413.678 188.645 C 409.815 196.116 417.384 204.099 424.729 200.301 L 424.729 200.301 Z  M 82 193 L 82 188 L 76.667 188 L 71.333 188 L 71.333 193 L 71.333 198 L 76.667 198 L 82 198 L 82 193 Z  M 110 193 L 110 188 L 104.667 188 L 99.333 188 L 99.333 193 L 99.333 198 L 104.667 198 L 110 198 L 110 193 Z  M 138 193 L 138 188 L 132.667 188 L 127.333 188 L 127.333 193 L 127.333 198 L 132.667 198 L 138 198 L 138 193 Z  M 166 193 L 166 188 L 160.667 188 L 155.333 188 L 155.333 193 L 155.333 198 L 160.667 198 L 166 198 L 166 193 Z  M 193.333 193 L 193.333 188 L 188 188 L 182.667 188 L 182.667 193 L 182.667 198 L 188 198 L 193.333 198 L 193.333 193 Z  M 276.667 193 L 276.667 188 L 271.667 188 L 266.667 188 L 266.667 193 L 266.667 198 L 271.667 198 L 276.667 198 L 276.667 193 Z  M 304.667 193 L 304.667 188 L 299.333 188 L 294 188 L 294 193 L 294 198 L 299.333 198 L 304.667 198 L 304.667 193 Z  M 332.667 193 L 332.667 188 L 327.333 188 L 322 188 L 322 193 L 322 198 L 327.333 198 L 332.667 198 L 332.667 193 Z  M 360.667 193 L 360.667 188 L 355.333 188 L 350 188 L 350 193 L 350 198 L 355.333 198 L 360.667 198 L 360.667 193 Z  M 388.667 193 L 388.667 188 L 383.333 188 L 378 188 L 378 193 L 378 198 L 383.333 198 L 388.667 198 L 388.667 193 Z  M 43.355 172.322 C 47.803 170.022 48.732 163.506 45.166 159.616 C 39.638 153.584 30.067 157.85 30.898 165.977 C 31.502 171.892 37.892 175.147 43.355 172.322 Z  M 425.59 171.941 C 433.818 165.469 426.495 153.206 417.071 157.677 C 411.507 160.318 411.158 169.386 416.508 172.29 C 419.221 173.762 423.484 173.598 425.59 171.941 Z  M 82 165 L 82 160 L 76.667 160 L 71.333 160 L 71.333 165 L 71.333 170 L 76.667 170 L 82 170 L 82 165 Z  M 110 165 L 110 160 L 104.667 160 L 99.333 160 L 99.333 165 L 99.333 170 L 104.667 170 L 110 170 L 110 165 Z  M 138 165 L 138 160 L 132.667 160 L 127.333 160 L 127.333 165 L 127.333 170 L 132.667 170 L 138 170 L 138 165 Z  M 166 165 L 166 160 L 160.667 160 L 155.333 160 L 155.333 165 L 155.333 170 L 160.667 170 L 166 170 L 166 165 Z  M 193.333 165 L 193.333 160 L 188 160 L 182.667 160 L 182.667 165 L 182.667 170 L 188 170 L 193.333 170 L 193.333 165 Z  M 276.667 165 L 276.667 160 L 271.667 160 L 266.667 160 L 266.667 165 L 266.667 170 L 271.667 170 L 276.667 170 L 276.667 165 Z  M 304.667 165 L 304.667 160 L 299.333 160 L 294 160 L 294 165 L 294 170 L 299.333 170 L 304.667 170 L 304.667 165 Z  M 332.667 165 L 332.667 160 L 327.333 160 L 322 160 L 322 165 L 322 170 L 327.333 170 L 332.667 170 L 332.667 165 Z  M 360.667 165 L 360.667 160 L 355.333 160 L 350 160 L 350 165 L 350 170 L 355.333 170 L 360.667 170 L 360.667 165 Z  M 388.667 165 L 388.667 160 L 383.333 160 L 378 160 L 378 165 L 378 170 L 383.333 170 L 388.667 170 L 388.667 165 Z  M 234.692 146.5 C 238.576 144.541 240.894 140.352 240.45 136.091 C 239.148 123.598 220.591 123.918 219.546 136.45 C 219.066 142.208 224.308 148 230 148 C 230.945 148 233.056 147.325 234.692 146.5 Z  M 43.355 144.322 C 47.837 142.004 48.77 135.304 45.119 131.653 C 38.229 124.762 27.509 132.145 31.67 140.914 C 33.596 144.972 39.032 146.558 43.355 144.322 L 43.355 144.322 Z  M 425.386 144.196 C 431.21 140.756 430.095 131.706 423.564 129.397 C 416.367 126.852 410.097 134.431 413.675 141.35 C 415.618 145.107 421.446 146.524 425.386 144.196 Z  M 82 137.333 L 82 132 L 76.667 132 L 71.333 132 L 71.333 137.333 L 71.333 142.667 L 76.667 142.667 L 82 142.667 L 82 137.333 Z  M 110 137.333 L 110 132 L 104.667 132 L 99.333 132 L 99.333 137.333 L 99.333 142.667 L 104.667 142.667 L 110 142.667 L 110 137.333 Z  M 138 137.333 L 138 132 L 132.667 132 L 127.333 132 L 127.333 137.333 L 127.333 142.667 L 132.667 142.667 L 138 142.667 L 138 137.333 Z  M 165.861 137.167 L 166.056 132 L 160.695 132 L 155.333 132 L 155.333 137.361 L 155.333 142.723 L 160.5 142.528 L 165.667 142.333 L 165.861 137.167 Z  M 193.333 137.333 L 193.333 132 L 188 132 L 182.667 132 L 182.667 136.889 C 182.667 142.865 182.468 142.667 188.444 142.667 L 193.333 142.667 L 193.333 137.333 Z  M 276.667 137.333 L 276.667 132 L 271.667 132 L 266.667 132 L 266.667 137.333 L 266.667 142.667 L 271.667 142.667 L 276.667 142.667 L 276.667 137.333 Z  M 304.667 137.333 L 304.667 132 L 299.333 132 L 294 132 L 294 137.333 L 294 142.667 L 299.333 142.667 L 304.667 142.667 L 304.667 137.333 Z  M 332.667 137.333 L 332.667 132 L 327.333 132 L 322 132 L 322 137.333 L 322 142.667 L 327.333 142.667 L 332.667 142.667 L 332.667 137.333 Z  M 360.667 137.333 L 360.667 132 L 355.333 132 L 350 132 L 350 137.333 L 350 142.667 L 355.333 142.667 L 360.667 142.667 L 360.667 137.333 Z  M 388.528 137.167 L 388.723 132 L 383.361 132 L 378 132 L 378 137.361 L 378 142.723 L 383.167 142.528 L 388.333 142.333 L 388.528 137.167 Z  M 42.34 117.04 C 50.631 113.576 47.962 101.111 38.929 101.111 C 29.423 101.111 27.766 115.2 37 117.512 C 39.298 118.087 39.979 118.027 42.34 117.04 Z  M 425.766 116.207 C 430.961 112.803 430.063 104.466 424.222 101.882 C 418.522 99.361 413.342 102.529 412.817 108.859 C 412.23 115.947 419.696 120.184 425.766 116.207 L 425.766 116.207 Z  M 82 109.333 L 82 104 L 76.667 104 L 71.333 104 L 71.333 109.333 L 71.333 114.667 L 76.667 114.667 L 82 114.667 L 82 109.333 Z  M 110 109.333 L 110 104 L 104.667 104 L 99.333 104 L 99.333 109.333 L 99.333 114.667 L 104.667 114.667 L 110 114.667 L 110 109.333 Z  M 138 109.333 L 138 104 L 132.667 104 L 127.333 104 L 127.333 109.333 L 127.333 114.667 L 132.667 114.667 L 138 114.667 L 138 109.333 Z  M 165.667 109.333 L 165.667 104.333 L 160.5 104.139 L 155.333 103.944 L 155.333 109.333 L 155.333 114.723 L 160.5 114.528 L 165.667 114.333 L 165.667 109.333 Z  M 193.333 109.305 L 193.333 103.944 L 188.167 104.139 L 183 104.333 L 182.805 109.5 L 182.611 114.667 L 187.972 114.667 L 193.333 114.667 L 193.333 109.305 Z  M 276.667 109.333 L 276.667 104 L 271.667 104 L 266.667 104 L 266.667 109.333 L 266.667 114.667 L 271.667 114.667 L 276.667 114.667 L 276.667 109.333 Z  M 304.667 109.333 L 304.667 104 L 299.333 104 L 294 104 L 294 109.333 L 294 114.667 L 299.333 114.667 L 304.667 114.667 L 304.667 109.333 Z  M 332.667 109.333 L 332.667 104 L 327.333 104 L 322 104 L 322 109.333 L 322 114.667 L 327.333 114.667 L 332.667 114.667 L 332.667 109.333 Z  M 360.667 109.333 L 360.667 104 L 355.333 104 L 350 104 L 350 109.333 L 350 114.667 L 355.333 114.667 L 360.667 114.667 L 360.667 109.333 Z  M 388.333 109.333 L 388.333 104.333 L 383.167 104.139 L 378 103.944 L 378 109.333 L 378 114.723 L 383.167 114.528 L 388.333 114.333 L 388.333 109.333 Z  M 96 66 L 96 60.667 L 90.667 60.667 L 85.333 60.667 L 85.333 66 L 85.333 71.333 L 90.667 71.333 L 96 71.333 L 96 66 Z  M 123.861 65.833 L 124.056 60.667 L 118.695 60.667 L 113.333 60.667 L 113.333 66.028 L 113.333 71.389 L 118.5 71.195 L 123.667 71 L 123.861 65.833 Z  M 151.333 66 L 151.333 60.667 L 146.333 60.667 L 141.333 60.667 L 141.333 66 L 141.333 71.333 L 146.333 71.333 L 151.333 71.333 L 151.333 66 Z  M 179.333 66 L 179.333 60.667 L 174 60.667 L 168.667 60.667 L 168.667 65.556 C 168.667 71.532 168.468 71.333 174.444 71.333 L 179.333 71.333 L 179.333 66 Z  M 207.333 66 L 207.333 60.667 L 202 60.667 L 196.667 60.667 L 196.667 66 L 196.667 71.333 L 202 71.333 L 207.333 71.333 L 207.333 66 Z  M 263.195 65.833 L 263.389 60.667 L 258.028 60.667 L 252.667 60.667 L 252.667 66.028 L 252.667 71.389 L 257.833 71.195 L 263 71 L 263.195 65.833 Z  M 290.667 66 L 290.667 60.667 L 285.667 60.667 L 280.667 60.667 L 280.667 66 L 280.667 71.333 L 285.667 71.333 L 290.667 71.333 L 290.667 66 Z  M 318.667 66 L 318.667 60.667 L 313.333 60.667 L 308 60.667 L 308 65.556 C 308 71.532 307.802 71.333 313.778 71.333 L 318.667 71.333 L 318.667 66 Z  M 346.667 66 L 346.667 60.667 L 341.333 60.667 L 336 60.667 L 336 66 L 336 71.333 L 341.333 71.333 L 346.667 71.333 L 346.667 66 Z  M 374.667 66 L 374.667 60.667 L 369.333 60.667 L 364 60.667 L 364 66 L 364 71.333 L 369.333 71.333 L 374.667 71.333 L 374.667 66 Z  M 50 65.667 L 50 64 L 39.333 64 L 28.667 64 L 28.667 65.667 L 28.667 67.333 L 39.333 67.333 L 50 67.333 L 50 65.667 Z  M 40.798 44.5 L 41 41 L 45.5 40.803 L 50 40.606 L 50 39 L 50 37.394 L 45.5 37.197 L 41 37 L 40.8 33.167 L 40.6 29.333 L 39 29.333 L 37.4 29.333 L 37.2 33.167 L 37 37 L 32.833 37.198 L 28.667 37.397 L 28.667 39 L 28.667 40.603 L 32.833 40.802 L 37 41 L 37.202 44.5 L 37.403 48 L 39 48 L 40.597 48 L 40.798 44.5 Z  M 96 38 L 96 32.667 L 90.667 32.667 L 85.333 32.667 L 85.333 38 L 85.333 43.333 L 90.667 43.333 L 96 43.333 L 96 38 Z  M 124 38 L 124 32.667 L 118.667 32.667 L 113.333 32.667 L 113.333 38 L 113.333 43.333 L 118.667 43.333 L 124 43.333 L 124 38 Z  M 151.333 38 L 151.333 32.667 L 146.333 32.667 L 141.333 32.667 L 141.333 38 L 141.333 43.333 L 146.333 43.333 L 151.333 43.333 L 151.333 38 Z  M 179.333 38 L 179.333 32.667 L 174 32.667 L 168.667 32.667 L 168.667 37.556 C 168.667 43.532 168.468 43.333 174.444 43.333 L 179.333 43.333 L 179.333 38 Z  M 207.333 38 L 207.333 32.667 L 202 32.667 L 196.667 32.667 L 196.667 38 L 196.667 43.333 L 202 43.333 L 207.333 43.333 L 207.333 38 Z  M 263.333 38 L 263.333 32.667 L 258 32.667 L 252.667 32.667 L 252.667 38 L 252.667 43.333 L 258 43.333 L 263.333 43.333 L 263.333 38 Z  M 290.667 38 L 290.667 32.667 L 285.667 32.667 L 280.667 32.667 L 280.667 38 L 280.667 43.333 L 285.667 43.333 L 290.667 43.333 L 290.667 38 Z  M 318.667 38 L 318.667 32.667 L 313.333 32.667 L 308 32.667 L 308 37.556 C 308 43.532 307.802 43.333 313.778 43.333 L 318.667 43.333 L 318.667 38 Z  M 346.667 38 L 346.667 32.667 L 341.333 32.667 L 336 32.667 L 336 38 L 336 43.333 L 341.333 43.333 L 346.667 43.333 L 346.667 38 Z  M 374.667 38 L 374.667 32.667 L 369.333 32.667 L 364 32.667 L 364 38 L 364 43.333 L 369.333 43.333 L 374.667 43.333 L 374.667 38 Z " fill="rgb(88,84,100)"/></g></svg>