<?xml version="1.0" encoding="UTF-8" standalone="no"?>
<svg
   xmlns:dc="http://purl.org/dc/elements/1.1/"
   xmlns:cc="http://creativecommons.org/ns#"
   xmlns:rdf="http://www.w3.org/1999/02/22-rdf-syntax-ns#"
   xmlns:svg="http://www.w3.org/2000/svg"
   xmlns="http://www.w3.org/2000/svg"
   xmlns:sodipodi="http://sodipodi.sourceforge.net/DTD/sodipodi-0.dtd"
   xmlns:inkscape="http://www.inkscape.org/namespaces/inkscape"
   inkscape:version="1.0 (4035a4f, 2020-05-01)"
   sodipodi:docname="test.svg"
   viewBox="0 0 460.66666 816.66669"
   height="816.66669"
   width="460.66666"
   id="svg62"
   version="1.1">
  <metadata
     id="metadata68">
    <rdf:RDF>
      <cc:Work
         rdf:about="">
        <dc:format>image/svg+xml</dc:format>
        <dc:type
           rdf:resource="http://purl.org/dc/dcmitype/StillImage" />
        <dc:title></dc:title>
      </cc:Work>
    </rdf:RDF>
  </metadata>
  <defs
     id="defs66" />
  <sodipodi:namedview
     inkscape:pagecheckerboard="true"
     inkscape:current-layer="g70"
     inkscape:window-maximized="0"
     inkscape:window-y="23"
     inkscape:window-x="0"
     inkscape:cy="408.33334"
     inkscape:cx="77.108828"
     inkscape:zoom="1.2563265"
     showgrid="false"
     id="namedview64"
     inkscape:window-height="1338"
     inkscape:window-width="1542"
     inkscape:pageshadow="2"
     inkscape:pageopacity="0"
     guidetolerance="10"
     gridtolerance="10"
     objecttolerance="10"
     borderopacity="1"
     bordercolor="#666666"
     pagecolor="#ffffb2" />
  <g
     style="display:inline"
     id="g70"
     inkscape:label="Image"
     inkscape:groupmode="layer">
    <path
       id="path74"
       d="M 0,408.33335 V 0 H 230.33333 460.66666 V 408.33335 816.66669 H 230.33333 0 Z m 42.188079,377.42534 c 4.53177,-1.91807 6.466864,-7.2692 4.208218,-11.63693 -2.90332,-5.6144 -12.003379,-5.4394 -14.718859,0.28306 -3.3851,7.13354 3.333803,14.39154 10.510641,11.35387 z m 383.604781,-0.78007 c 6.43247,-4.21466 2.97841,-14.9786 -4.80653,-14.9786 -5.14719,0 -8.31967,3.25787 -8.31967,8.54367 0,6.3276 7.60213,10.05447 13.1262,6.43493 z M 81.999999,777.97196 v -5.36134 l -5.166667,0.19467 -5.166666,0.19473 -0.194707,5.16667 -0.194713,5.16667 h 5.36138 5.361373 z M 110,777.99996 v -5.33334 h -5.33333 -5.333338 v 5.33334 5.33333 H 104.66667 110 Z m 27.86137,0.16666 -0.19471,-5.16666 -5.16666,-0.19474 -5.16667,-0.19466 v 5.36133 5.3614 h 5.36137 5.36138 z m 28,0 -0.19471,-5.16666 -5.16666,-0.19474 -5.16667,-0.19466 v 5.36133 5.3614 h 5.36137 5.36138 z m 27.47196,-0.19466 v -5.36134 l -5.16667,0.19467 -5.16666,0.19473 -0.19471,5.16667 -0.19471,5.16667 h 5.36138 5.36137 z m 83.33333,0.028 v -5.33334 h -5 -5 v 5.33334 5.33333 h 5 5 z m 28,-0.028 v -5.36134 l -5.16666,0.19467 -5.16667,0.19473 -0.19471,5.16667 -0.19471,5.16667 h 5.36138 5.36137 z m 28,0 v -5.36134 l -5.16666,0.19467 -5.16667,0.19473 -0.19471,5.16667 -0.19471,5.16667 h 5.36138 5.36137 z m 27.86137,0.19473 -0.1947,-5.16667 -5.16667,-0.19473 -5.16667,-0.19467 v 5.36134 5.3614 h 5.36138 5.36138 z m 28,0 -0.1947,-5.16667 -5.16667,-0.19473 -5.16667,-0.19467 v 5.36134 5.3614 h 5.36138 5.36138 z m -153.18792,-19 c 5.05193,-3.43834 6.51019,-8.3006 4.02755,-13.42907 -3.98804,-8.2382 -15.82738,-7.89433 -19.0536,0.5534 -2.71347,7.10513 2.18522,14.37567 9.68594,14.37567 2.15484,0 3.82578,-0.46933 5.34011,-1.5 z M 45.143767,755.74215 c 3.587992,-3.9152 2.673632,-10.42333 -1.788612,-12.73086 -5.298489,-2.73994 -11.707813,0.36833 -12.469519,6.04733 -1.098391,8.18907 8.678447,12.772 14.258131,6.68353 z m 380.063013,1.57414 c 4.73311,-2.88574 5.30095,-9.32574 1.15945,-13.1496 -3.86357,-3.56727 -10.38856,-2.63567 -12.68828,1.81153 -4.00406,7.743 4.19688,15.8082 11.52883,11.33807 z M 81.999999,750.33335 v -5 h -5.333333 -5.333334 v 5 5 h 5.333334 5.333333 z m 28.000001,0 v -5 h -5.33333 -5.333338 v 5 5 H 104.66667 110 Z m 28,0 v -5 h -5.33334 -5.33333 v 5 5 H 132.66666 138 Z m 28,0 v -5 h -5.33334 -5.33333 v 5 5 H 160.66666 166 Z m 27.33333,0 v -5 H 188 182.66666 v 5 5 H 188 h 5.33333 z m 83.33333,0 v -5 h -5 -5 v 5 5 h 5 5 z m 28,0 v -5 H 299.33333 294 v 5 5 h 5.33333 5.33333 z m 28,0 v -5 H 327.33333 322 v 5 5 h 5.33333 5.33333 z m 28,0 v -5 h -5.33333 -5.33334 v 5 5 h 5.33334 5.33333 z m 28,0 v -5 h -5.33333 -5.33334 v 5 5 h 5.33334 5.33333 z m -345.359883,-20.757 c 4.53706,-2.68013 5.428392,-8.73293 1.859488,-12.62726 -5.483652,-5.98367 -15.097366,-1.76987 -14.280016,6.25913 0.611476,6.0066 7.261006,9.41593 12.420528,6.36813 z m 381.339873,0.23747 c 4.16654,-2.10827 5.78533,-7.67047 3.38033,-11.6148 -4.40632,-7.2266 -15.36032,-4.30013 -15.36032,4.10367 0,6.38213 6.34694,10.36146 11.97999,7.51113 z M 81.999999,722.33335 v -5 h -5.333333 -5.333334 v 5 5 h 5.333334 5.333333 z m 28.000001,0 v -5 h -5.33333 -5.333338 v 5 5 H 104.66667 110 Z m 28,0 v -5 h -5.33334 -5.33333 v 5 5 H 132.66666 138 Z m 28,0 v -5 h -5.33334 -5.33333 v 5 5 H 160.66666 166 Z m 27.33333,0 v -5 H 188 182.66666 v 5 5 H 188 h 5.33333 z m 83.33333,0 v -5 h -5 -5 v 5 5 h 5 5 z m 28,0 v -5 H 299.33333 294 v 5 5 h 5.33333 5.33333 z m 28,0 v -5 H 327.33333 322 v 5 5 h 5.33333 5.33333 z m 28,0 v -5 h -5.33333 -5.33334 v 5 5 h 5.33334 5.33333 z m 28,0 v -5 h -5.33333 -5.33334 v 5 5 h 5.33334 5.33333 z M 43.355155,701.65542 c 1.075584,-0.5562 2.410686,-1.89133 2.966893,-2.96693 4.897711,-9.47114 -8.221759,-17.50267 -14.192518,-8.68847 -4.8029,7.0902 3.461103,15.6706 11.225625,11.6554 z m 383.053655,-1.17827 c 4.7791,-4.37973 3.30129,-11.6184 -2.80656,-13.7472 -7.24875,-2.52646 -13.51386,5.01714 -9.92721,11.95294 2.31655,4.47973 8.80567,5.39406 12.73377,1.79426 z M 81.999999,694.66669 v -5.33334 h -5.333333 -5.333334 v 4.88887 c 0,5.97627 -0.19848,5.7778 5.77778,5.7778 h 4.888887 z m 28.000001,0 v -5.33334 h -5.33333 -5.333338 v 5.33334 5.33333 H 104.66667 110 Z m 27.86137,-0.16667 0.19471,-5.16667 h -5.36138 -5.36137 v 5.3614 5.36134 l 5.16667,-0.19467 5.16666,-0.19473 z m 28,0 0.19471,-5.16667 h -5.36138 -5.36137 v 5.3614 5.36134 l 5.16667,-0.19467 5.16666,-0.19473 z m 27.47196,0.16667 v -5.33334 H 188 182.66666 v 4.88887 c 0,5.97627 -0.19848,5.7778 5.77778,5.7778 h 4.88889 z m 83.33333,0 v -5.33334 h -5 -5 v 5.33334 5.33333 h 5 5 z m 28,0 v -5.33334 H 299.33333 294 v 4.88887 c 0,5.97627 -0.19848,5.7778 5.77778,5.7778 h 4.88888 z m 28,0 v -5.33334 H 327.33333 322 v 5.33334 5.33333 h 5.33333 5.33333 z m 28,0 v -5.33334 h -5.33333 -5.33334 v 5.33334 5.33333 h 5.33334 5.33333 z m 27.86137,-0.16667 0.19472,-5.16667 h -5.36138 -5.36138 v 5.3614 5.36134 l 5.16667,-0.19467 5.16667,-0.19473 z M 43.819459,673.59495 c 3.59674,-2.277 4.582193,-9.21158 1.759382,-12.38066 -4.068232,-4.56727 -11.735497,-3.52662 -14.003129,1.90058 -3.278038,7.84548 5.090591,15.00862 12.243747,10.48008 z m 380.564441,0.475 c 9.38359,-4.26186 3.69585,-18.61987 -6.09588,-15.38831 -7.49199,2.47258 -7.53883,13.75671 -0.0661,15.92018 2.96823,0.85933 3.12948,0.8454 6.16197,-0.53187 z M 81.999999,666.66669 v -5.33334 h -5.333333 -5.333334 v 5.33334 5.33333 h 5.333334 5.333333 z m 28.000001,0 v -5.33334 h -5.33333 -5.333338 v 5.33334 5.33333 H 104.66667 110 Z m 28,0 v -5.33334 h -5.33334 -5.33333 v 5.33334 5.33333 H 132.66666 138 Z m 27.66666,0 v -5 l -5.16666,-0.19471 -5.16667,-0.19471 v 5.38942 5.3894 l 5.16667,-0.19467 5.16666,-0.19473 z m 27.66667,0 v -5.33334 H 188 182.66666 v 5.33334 5.33333 H 188 h 5.33333 z m 83.33333,0 v -5.33334 h -5 -5 v 5.33334 5.33333 h 5 5 z m 28,0 v -5.33334 H 299.33333 294 v 5.33334 5.33333 h 5.33333 5.33333 z m 28,0 v -5.33334 H 327.33333 322 v 5.33334 5.33333 h 5.33333 5.33333 z m 28,0 v -5.33334 h -5.33333 -5.33334 v 5.33334 5.33333 h 5.33334 5.33333 z m 27.66667,0 v -5 l -5.16667,-0.19471 -5.16667,-0.19471 v 5.38942 5.3894 l 5.16667,-0.19467 5.16667,-0.19473 z M 42.188079,646.42537 c 4.53177,-1.9181 6.466864,-7.26919 4.208218,-11.63693 -2.90332,-5.6144 -12.003379,-5.43941 -14.718859,0.28304 -3.3851,7.13357 3.333803,14.39151 10.510641,11.35389 z m 383.604781,-0.78006 c 6.43247,-4.21473 2.97841,-14.97863 -4.80653,-14.97863 -5.14719,0 -8.31967,3.2579 -8.31967,8.54366 0,6.32761 7.60213,10.05447 13.1262,6.43497 z M 81.999999,638.63864 v -5.36138 l -5.166667,0.19472 -5.166666,0.1947 -0.194707,5.16667 -0.194713,5.16667 h 5.36138 5.361373 z m 28.000001,0 v -5.36138 l -5.16667,0.19472 -5.166665,0.1947 -0.194706,5.16667 -0.194714,5.16667 H 104.63863 110 Z m 27.86137,0.19471 -0.19471,-5.16667 -5.16666,-0.1947 -5.16667,-0.19472 v 5.36138 5.36138 h 5.36137 5.36138 z m 28,0 -0.19471,-5.16667 -5.16666,-0.1947 -5.16667,-0.19472 v 5.36138 5.36138 h 5.36137 5.36138 z m 27.47196,-0.19471 v -5.36138 l -5.16667,0.19472 -5.16666,0.1947 -0.19471,5.16667 -0.19471,5.16667 h 5.36138 5.36137 z m 83.33333,0.028 v -5.33333 h -5 -5 v 5.33333 5.33334 h 5 5 z m 28,-0.0281 v -5.36138 l -5.16666,0.19471 -5.16667,0.19471 -0.19471,5.16666 -0.19471,5.16667 h 5.36138 5.36137 z m 28,0 v -5.36138 l -5.16666,0.19471 -5.16667,0.19471 -0.19471,5.16666 -0.19471,5.16667 h 5.36138 5.36137 z m 27.86137,0.19473 -0.1947,-5.16667 -5.16667,-0.1947 -5.16667,-0.19472 v 5.36138 5.36138 h 5.36138 5.36138 z m 28,0 -0.1947,-5.16667 -5.16667,-0.1947 -5.16667,-0.19472 v 5.36138 5.36138 h 5.36138 5.36138 z M 45.143767,616.40883 c 3.587992,-3.91518 2.673632,-10.42335 -1.788612,-12.73086 -5.298489,-2.73996 -11.707813,0.36834 -12.469519,6.04728 -1.098391,8.18912 8.678447,12.77207 14.258131,6.68358 z m 380.063013,1.5741 c 4.73311,-2.88571 5.30095,-9.32572 1.15945,-13.14958 -3.86357,-3.56723 -10.38856,-2.63566 -12.68828,1.81151 -4.00406,7.743 4.19688,15.80824 11.52883,11.33807 z M 81.999999,611.00002 v -5 h -5.333333 -5.333334 v 5 5 h 5.333334 5.333333 z m 28.000001,0 v -5 h -5.33333 -5.333338 v 5 5 H 104.66667 110 Z m 28,0 v -5 h -5.33334 -5.33333 v 5 5 H 132.66666 138 Z m 28,0 v -5 h -5.33334 -5.33333 v 5 5 H 160.66666 166 Z m 27.33333,0 v -5 H 188 182.66666 v 5 5 H 188 h 5.33333 z m 83.33333,0 v -5 h -5 -5 v 5 5 h 5 5 z m 28,0 v -5 H 299.33333 294 v 5 5 h 5.33333 5.33333 z m 28,0 v -5 H 327.33333 322 v 5 5 h 5.33333 5.33333 z m 28,0 v -5 h -5.33333 -5.33334 v 5 5 h 5.33334 5.33333 z m 28,0 v -5 h -5.33333 -5.33334 v 5 5 h 5.33334 5.33333 z M 43.621715,590.03579 c 4.377059,-2.88538 5.082663,-8.55929 1.54455,-12.42003 -5.483652,-5.9837 -15.097366,-1.7699 -14.280016,6.2591 0.627597,6.16502 7.607221,9.54149 12.735466,6.16093 z m 381.968355,-0.0946 c 8.22825,-6.47233 0.90453,-18.73527 -8.51862,-14.26369 -5.56448,2.64052 -5.91394,11.70896 -0.56308,14.6123 2.71248,1.47177 6.9755,1.30814 9.0817,-0.34861 z M 81.999999,583.00002 v -5 h -5.333333 -5.333334 v 5 5 h 5.333334 5.333333 z m 28.000001,0 v -5 h -5.33333 -5.333338 v 5 5 H 104.66667 110 Z m 28,0 v -5 h -5.33334 -5.33333 v 5 5 H 132.66666 138 Z m 28,0 v -5 h -5.33334 -5.33333 v 5 5 H 160.66666 166 Z m 27.33333,0 v -5 H 188 182.66666 v 5 5 H 188 h 5.33333 z m 83.33333,0 v -5 h -5 -5 v 5 5 h 5 5 z m 28,0 v -5 H 299.33333 294 v 5 5 h 5.33333 5.33333 z m 28,0 v -5 H 327.33333 322 v 5 5 h 5.33333 5.33333 z m 28,0 v -5 h -5.33333 -5.33334 v 5 5 h 5.33334 5.33333 z m 28,0 v -5 h -5.33333 -5.33334 v 5 5 h 5.33334 5.33333 z M 43.355155,562.32206 c 4.482046,-2.31775 5.415054,-9.0185 1.76409,-12.66946 -6.890094,-6.8901 -17.610078,0.49198 -13.448804,9.26121 1.925692,4.05809 7.361795,5.64373 11.684714,3.40825 z m 382.031205,-0.12608 c 5.86247,-3.46305 4.77128,-12.51458 -1.78411,-14.79936 -7.24875,-2.52644 -13.51386,5.01712 -9.92721,11.95294 1.94316,3.75766 7.7709,5.17408 11.71132,2.84642 z M 81.999999,555.33335 v -5.33333 h -5.333333 -5.333334 v 4.88888 c 0,5.97626 -0.19848,5.77778 5.77778,5.77778 h 4.888887 z m 28.000001,0 v -5.33333 h -5.33333 -5.333338 v 5.33333 5.33333 H 104.66667 110 Z m 27.86137,-0.16667 0.19471,-5.16666 h -5.36138 -5.36137 v 5.36137 5.36138 l 5.16667,-0.19471 5.16666,-0.19471 z m 28,0 0.19471,-5.16666 h -5.36138 -5.36137 v 5.36137 5.36138 l 5.16667,-0.19471 5.16666,-0.19471 z m 27.47196,0.16667 v -5.33333 H 188 182.66666 v 4.88888 c 0,5.97626 -0.19848,5.77778 5.77778,5.77778 h 4.88889 z m 83.33333,0 v -5.33333 h -5 -5 v 5.33333 5.33333 h 5 5 z m 28,0 v -5.33333 H 299.33333 294 v 4.88888 c 0,5.97626 -0.19848,5.77778 5.77778,5.77778 h 4.88888 z m 28,0 v -5.33333 H 327.33333 322 v 5.33333 5.33333 h 5.33333 5.33333 z m 28,0 v -5.33333 h -5.33333 -5.33334 v 5.33333 5.33333 h 5.33334 5.33333 z m 27.86137,-0.16667 0.19472,-5.16666 h -5.36138 -5.36138 v 5.36137 5.36138 l 5.16667,-0.19471 5.16667,-0.19471 z M 43.819459,534.26163 c 3.59674,-2.27703 4.582193,-9.2116 1.759382,-12.38068 -4.590645,-5.15376 -13.362652,-2.93158 -14.606799,3.7003 -1.376354,7.3366 6.530971,12.6792 12.847417,8.68038 z m 380.564441,0.47498 c 9.35047,-4.24681 3.66128,-18.60846 -6.09588,-15.38831 -7.49199,2.47258 -7.53883,13.75672 -0.0661,15.92018 2.96823,0.85935 3.12948,0.84543 6.16197,-0.53187 z M 81.999999,527.33335 v -5.33334 h -5.333333 -5.333334 v 5.33334 5.33333 h 5.333334 5.333333 z m 28.000001,0 v -5.33334 h -5.33333 -5.333338 v 5.33334 5.33333 H 104.66667 110 Z m 28,0 v -5.33334 h -5.33334 -5.33333 v 5.33334 5.33333 H 132.66666 138 Z m 27.66666,0 v -5 l -5.16666,-0.19471 -5.16667,-0.19471 v 5.38942 5.38942 l 5.16667,-0.19471 5.16666,-0.19471 z m 27.66667,0 v -5.33334 H 188 182.66666 v 5.33334 5.33333 H 188 h 5.33333 z m 83.33333,0 v -5.33334 h -5 -5 v 5.33334 5.33333 h 5 5 z m 28,0 v -5.33334 H 299.33333 294 v 5.33334 5.33333 h 5.33333 5.33333 z m 28,0 v -5.33334 H 327.33333 322 v 5.33334 5.33333 h 5.33333 5.33333 z m 28,0 v -5.33334 h -5.33333 -5.33334 v 5.33334 5.33333 h 5.33334 5.33333 z m 27.66667,0 v -5 l -5.16667,-0.19471 -5.16667,-0.19471 v 5.38942 5.38942 l 5.16667,-0.19471 5.16667,-0.19471 z M 42.188079,507.09203 c 4.53177,-1.9181 6.466864,-7.26918 4.208218,-11.63692 -2.90332,-5.6144 -12.003379,-5.43942 -14.718859,0.28303 -3.3851,7.13357 3.333803,14.39151 10.510641,11.35389 z m 383.604781,-0.78006 c 6.43247,-4.21472 2.97841,-14.97862 -4.80653,-14.97862 -5.14719,0 -8.31967,3.25789 -8.31967,8.54365 0,6.32761 7.60213,10.05447 13.1262,6.43497 z M 81.999999,499.30531 v -5.36138 l -5.166667,0.19471 -5.166666,0.19471 -0.194707,5.16666 -0.194713,5.16667 h 5.36138 5.361373 z m 28.000001,0 v -5.36138 l -5.16667,0.19471 -5.166665,0.19471 -0.194706,5.16666 -0.194714,5.16667 H 104.63863 110 Z m 27.86137,0.1947 -0.19471,-5.16666 -5.16666,-0.19471 -5.16667,-0.19471 v 5.36138 5.36137 h 5.36137 5.36138 z m 28,0 -0.19471,-5.16666 -5.16666,-0.19471 -5.16667,-0.19471 v 5.36138 5.36137 h 5.36137 5.36138 z m 27.47196,-0.1947 v -5.36138 l -5.16667,0.19471 -5.16666,0.19471 -0.19471,5.16666 -0.19471,5.16667 h 5.36138 5.36137 z m 83.33333,0.028 v -5.33334 h -5 -5 v 5.33334 5.33333 h 5 5 z m 28,-0.0281 v -5.36138 l -5.16666,0.19471 -5.16667,0.19471 -0.19471,5.16667 -0.19471,5.16666 h 5.36138 5.36137 z m 28,0 v -5.36138 l -5.16666,0.19471 -5.16667,0.19471 -0.19471,5.16667 -0.19471,5.16666 h 5.36138 5.36137 z m 27.86137,0.19473 -0.1947,-5.16666 -5.16667,-0.19471 -5.16667,-0.19471 v 5.36138 5.36137 h 5.36138 5.36138 z m 28,0 -0.1947,-5.16666 -5.16667,-0.19471 -5.16667,-0.19471 v 5.36138 5.36137 h 5.36138 5.36138 z M 45.143767,477.07549 c 3.587992,-3.91518 2.673632,-10.42334 -1.788612,-12.73086 -5.298489,-2.73996 -11.707813,0.36834 -12.469519,6.04728 -1.098391,8.18912 8.678447,12.77207 14.258131,6.68358 z m 380.257643,1.40279 c 2.66495,-1.79024 4.38434,-5.91824 3.66268,-8.79357 -1.76746,-7.04214 -12.14408,-8.64265 -15.38614,-2.37318 -4.0671,7.86489 4.49636,16.0217 11.72346,11.16675 z m -343.401411,-6.8116 v -5 h -5.333333 -5.333334 v 5 5 h 5.333334 5.333333 z m 28.000001,0 v -5 h -5.33333 -5.333338 v 5 5 H 104.66667 110 Z m 28,0 v -5 h -5.33334 -5.33333 v 5 5 H 132.66666 138 Z m 28,0 v -5 h -5.33334 -5.33333 v 5 5 H 160.66666 166 Z m 27.33333,0 v -5 H 188 182.66666 v 5 5 H 188 h 5.33333 z m 83.33333,0 v -5 h -5 -5 v 5 5 h 5 5 z m 28,0 v -5 H 299.33333 294 v 5 5 h 5.33333 5.33333 z m 28,0 v -5 H 327.33333 322 v 5 5 h 5.33333 5.33333 z m 28,0 v -5 h -5.33333 -5.33334 v 5 5 h 5.33334 5.33333 z m 28,0 v -5 h -5.33333 -5.33334 v 5 5 h 5.33334 5.33333 z M 43.355155,450.98873 c 4.447769,-2.30003 5.376502,-8.8158 1.81111,-12.70631 -5.483652,-5.9837 -15.097366,-1.76989 -14.280016,6.25911 0.610073,5.99286 6.979142,9.28606 12.468906,6.4472 z m 382.234915,-0.38092 c 8.22825,-6.47233 0.90453,-18.73527 -8.51862,-14.26369 -5.56448,2.64052 -5.91394,11.70896 -0.56308,14.6123 2.71248,1.47177 6.9755,1.30814 9.0817,-0.34861 z M 81.999999,443.66668 v -5 h -5.333333 -5.333334 v 5 5 h 5.333334 5.333333 z m 28.000001,0 v -5 h -5.33333 -5.333338 v 5 5 H 104.66667 110 Z m 28,0 v -5 h -5.33334 -5.33333 v 5 5 H 132.66666 138 Z m 28,0 v -5 h -5.33334 -5.33333 v 5 5 H 160.66666 166 Z m 27.33333,0 v -5 H 188 182.66666 v 5 5 H 188 h 5.33333 z m 83.33333,0 v -5 h -5 -5 v 5 5 h 5 5 z m 28,0 v -5 H 299.33333 294 v 5 5 h 5.33333 5.33333 z m 28,0 v -5 H 327.33333 322 v 5 5 h 5.33333 5.33333 z m 28,0 v -5 h -5.33333 -5.33334 v 5 5 h 5.33334 5.33333 z m 28,0 v -5 h -5.33333 -5.33334 v 5 5 h 5.33334 5.33333 z M 43.355155,422.98873 c 4.482046,-2.31776 5.415054,-9.0185 1.76409,-12.66947 -6.890094,-6.8901 -17.610078,0.49198 -13.448804,9.26121 1.925692,4.0581 7.361795,5.64373 11.684714,3.40826 z m 382.031205,-0.12609 c 5.82317,-3.43983 4.70854,-12.48974 -1.82277,-14.79936 -7.19662,-2.54488 -13.4665,5.03393 -9.88855,11.95294 1.94316,3.75766 7.7709,5.17408 11.71132,2.84642 z M 81.999999,416.00001 v -5.33333 h -5.333333 -5.333334 v 4.88889 c 0,5.97626 -0.19848,5.77778 5.77778,5.77778 h 4.888887 z m 28.000001,0 v -5.33333 h -5.33333 -5.333338 v 5.33333 5.33334 H 104.66667 110 Z m 27.86137,-0.16666 0.19471,-5.16667 h -5.36138 -5.36137 v 5.36137 5.36138 l 5.16667,-0.19471 5.16666,-0.19471 z m 28,0 0.19471,-5.16667 h -5.36138 -5.36137 v 5.36137 5.36138 l 5.16667,-0.19471 5.16666,-0.19471 z m 27.47196,0.16666 v -5.33333 H 188 182.66666 v 4.88889 c 0,5.97626 -0.19848,5.77778 5.77778,5.77778 h 4.88889 z m 83.33333,0 v -5.33333 h -5 -5 v 5.33333 5.33334 h 5 5 z m 28,0 v -5.33333 H 299.33333 294 v 4.88889 c 0,5.97626 -0.19848,5.77778 5.77778,5.77778 h 4.88888 z m 28,0 v -5.33333 H 327.33333 322 v 5.33333 5.33334 h 5.33333 5.33333 z m 28,0 v -5.33333 h -5.33333 -5.33334 v 5.33333 5.33334 h 5.33334 5.33333 z m 27.86137,-0.16666 0.19472,-5.16667 h -5.36138 -5.36138 v 5.36137 5.36138 l 5.16667,-0.19471 5.16667,-0.19471 z M 43.535673,395.21192 c 0.661288,-0.34668 1.785166,-1.58619 2.497508,-2.75446 5.067019,-8.31008 -5.563796,-17.12352 -12.659403,-10.49523 -7.135564,6.66561 1.426482,17.82933 10.161895,13.24969 z m 380.848227,0.19135 c 9.09408,-4.13036 3.79735,-18.33267 -5.76829,-15.46673 -9.22622,2.76424 -7.33248,15.99242 2.38438,16.65537 0.36667,0.025 1.88943,-0.50987 3.38391,-1.18864 z M 81.999999,388.00001 v -5.33333 h -5.333333 -5.333334 v 5.33333 5.33333 h 5.333334 5.333333 z m 28.000001,0 v -5.33333 h -5.33333 -5.333338 v 5.33333 5.33333 H 104.66667 110 Z m 28,0 v -5.33333 h -5.33334 -5.33333 v 5.33333 5.33333 H 132.66666 138 Z m 27.66666,0 v -5 L 160.5,382.8053 l -5.16667,-0.19471 v 5.38942 5.38942 l 5.16667,-0.19471 5.16666,-0.19471 z m 27.66667,0 v -5.33333 H 188 182.66666 v 5.33333 5.33333 H 188 h 5.33333 z m 83.33333,0 v -5.33333 h -5 -5 v 5.33333 5.33333 h 5 5 z m 28,0 v -5.33333 H 299.33333 294 v 5.33333 5.33333 h 5.33333 5.33333 z m 28,0 v -5.33333 H 327.33333 322 v 5.33333 5.33333 h 5.33333 5.33333 z m 28,0 v -5.33333 h -5.33333 -5.33334 v 5.33333 5.33333 h 5.33334 5.33333 z m 27.66667,0 v -5 l -5.16667,-0.19471 -5.16667,-0.19471 v 5.38942 5.38942 l 5.16667,-0.19471 5.16667,-0.19471 z M 42.640909,367.68 c 8.014858,-4.14465 5.313756,-15.67999 -3.671608,-15.67999 -6.512009,0 -10.36367,6.94467 -6.953679,12.5377 2.22908,3.65612 6.938413,5.04884 10.625287,3.14229 z m 383.151951,-0.70137 c 6.2527,-4.09693 2.99599,-14.97862 -4.48285,-14.97862 -5.34382,0 -8.64335,3.26147 -8.64335,8.54365 0,6.32762 7.60213,10.05447 13.1262,6.43497 z M 81.999999,359.97197 v -5.36138 l -5.166667,0.19471 -5.166666,0.19471 -0.194707,5.16667 -0.194713,5.16666 h 5.36138 5.361373 z M 110,360.00004 v -5.33334 h -5.33333 -5.333338 v 5.33334 5.33333 H 104.66667 110 Z m 27.86137,0.16666 -0.19471,-5.16666 -5.16666,-0.19471 -5.16667,-0.19471 v 5.36138 5.36137 h 5.36137 5.36138 z m 28,0 -0.19471,-5.16666 -5.16666,-0.19471 -5.16667,-0.19471 v 5.36138 5.36137 h 5.36137 5.36138 z m 27.47196,-0.19473 v -5.36138 l -5.16667,0.19471 -5.16666,0.19471 -0.19471,5.16667 -0.19471,5.16666 h 5.36138 5.36137 z m 83.33333,0.028 v -5.33333 h -5 -5 v 5.33333 5.33333 h 5 5 z m 28,-0.0281 v -5.36138 l -5.16666,0.19472 -5.16667,0.1947 -0.19471,5.16667 -0.19471,5.16667 h 5.36138 5.36137 z m 28,0 v -5.36138 l -5.16666,0.19472 -5.16667,0.1947 -0.19471,5.16667 -0.19471,5.16667 h 5.36138 5.36137 z m 27.86137,0.19474 -0.1947,-5.16667 -5.16667,-0.19471 -5.16667,-0.19471 v 5.36138 5.36137 h 5.36138 5.36138 z m 28,0 -0.1947,-5.16667 -5.16667,-0.19471 -5.16667,-0.19471 v 5.36138 5.36137 h 5.36138 5.36138 z M 45.143767,337.74216 c 3.587992,-3.91518 2.673632,-10.42335 -1.788612,-12.73086 -5.298489,-2.73996 -11.707813,0.36834 -12.469519,6.04728 -1.098391,8.18912 8.678447,12.77206 14.258131,6.68358 z m 379.585483,1.89215 c 7.64089,-3.95126 4.71518,-15.58585 -3.92903,-15.62447 -2.98936,-0.0133 -5.90265,1.60986 -7.12227,3.96835 -3.86342,7.47101 3.70589,15.45458 11.0513,11.65612 z M 81.999999,332.33334 v -5 h -5.333333 -5.333334 v 5 5 h 5.333334 5.333333 z m 28.000001,0 v -5 h -5.33333 -5.333338 v 5 5 H 104.66667 110 Z m 28,0 v -5 h -5.33334 -5.33333 v 5 5 H 132.66666 138 Z m 28,0 v -5 h -5.33334 -5.33333 v 5 5 H 160.66666 166 Z m 27.33333,0 v -5 H 188 182.66666 v 5 5 H 188 h 5.33333 z m 83.33333,0 v -5 h -5 -5 v 5 5 h 5 5 z m 28,0 v -5 H 299.33333 294 v 5 5 h 5.33333 5.33333 z m 28,0 v -5 H 327.33333 322 v 5 5 h 5.33333 5.33333 z m 28,0 v -5 h -5.33333 -5.33334 v 5 5 h 5.33334 5.33333 z m 28,0 v -5 h -5.33333 -5.33334 v 5 5 h 5.33334 5.33333 z M 43.355155,311.65539 c 4.447769,-2.30003 5.376502,-8.81579 1.81111,-12.70631 -5.528112,-6.03221 -15.098827,-1.76528 -14.26849,6.36136 0.604389,5.91526 6.99447,9.16993 12.45738,6.34495 z m 382.234915,-0.38091 c 8.22825,-6.47234 0.90453,-18.73528 -8.51862,-14.2637 -5.56448,2.64052 -5.91394,11.70896 -0.56308,14.6123 2.71248,1.47178 6.9755,1.30814 9.0817,-0.3486 z M 81.999999,304.33334 v -5 h -5.333333 -5.333334 v 5 5 h 5.333334 5.333333 z m 28.000001,0 v -5 h -5.33333 -5.333338 v 5 5 H 104.66667 110 Z m 28,0 v -5 h -5.33334 -5.33333 v 5 5 H 132.66666 138 Z m 28,0 v -5 h -5.33334 -5.33333 v 5 5 H 160.66666 166 Z m 27.33333,0 v -5 H 188 182.66666 v 5 5 H 188 h 5.33333 z m 83.33333,0 v -5 h -5 -5 v 5 5 h 5 5 z m 28,0 v -5 H 299.33333 294 v 5 5 h 5.33333 5.33333 z m 28,0 v -5 H 327.33333 322 v 5 5 h 5.33333 5.33333 z m 28,0 v -5 h -5.33333 -5.33334 v 5 5 h 5.33334 5.33333 z m 28,0 v -5 h -5.33333 -5.33334 v 5 5 h 5.33334 5.33333 z M 43.355155,283.65539 c 4.482046,-2.31776 5.415054,-9.0185 1.76409,-12.66947 -6.890094,-6.89009 -17.610078,0.49198 -13.448804,9.26121 1.925692,4.0581 7.361795,5.64373 11.684714,3.40826 z M 425.38636,283.5293 c 5.82317,-3.43983 4.70854,-12.48974 -1.82277,-14.79935 -7.19662,-2.54488 -13.4665,5.03392 -9.88855,11.95293 1.94316,3.75766 7.7709,5.17408 11.71132,2.84642 z M 81.999999,276.66667 v -5.33333 h -5.333333 -5.333334 v 5.33333 5.33334 h 5.333334 5.333333 z m 28.000001,0 v -5.33333 h -5.33333 -5.333338 v 5.33333 5.33334 H 104.66667 110 Z m 28,0 v -5.33333 h -5.33334 -5.33333 v 5.33333 5.33334 H 132.66666 138 Z m 27.86137,-0.16666 0.19471,-5.16667 h -5.36138 -5.36137 v 5.36137 5.36138 l 5.16667,-0.19471 5.16666,-0.19471 z m 27.47196,0.16666 v -5.33333 H 188 182.66666 v 4.88889 c 0,2.68889 0.2,5.08889 0.44445,5.33333 0.24444,0.24445 2.64444,0.44445 5.33333,0.44445 h 4.88889 z m 83.33333,0 v -5.33333 h -5 -5 v 5.33333 5.33334 h 5 5 z m 28,0 v -5.33333 H 299.33333 294 v 5.33333 5.33334 h 5.33333 5.33333 z m 28,0 v -5.33333 H 327.33333 322 v 5.33333 5.33334 h 5.33333 5.33333 z m 28,0 v -5.33333 h -5.33333 -5.33334 v 5.33333 5.33334 h 5.33334 5.33333 z m 27.86137,-0.16666 0.19472,-5.16667 h -5.36138 -5.36138 v 5.36137 5.36138 l 5.16667,-0.19471 5.16667,-0.19471 z M 43.535673,255.87859 c 3.49531,-1.83246 4.794409,-7.90237 2.497508,-11.66937 -3.61106,-5.92226 -12.807617,-4.78781 -14.788644,1.82427 -2.270229,7.57735 5.201328,13.562 12.291136,9.8451 z m 382.230437,-0.33838 c 5.24917,-3.4394 4.29508,-11.74184 -1.65162,-14.37236 -5.76981,-2.55226 -11.44783,1.16709 -11.44783,7.49882 0,6.84646 7.2971,10.67538 13.09945,6.87354 z M 81.999999,248.66667 v -5.33333 h -5.333333 -5.333334 v 5.33333 5.33334 h 5.333334 5.333333 z m 28.000001,0 v -5.33333 h -5.33333 -5.333338 v 5.33333 5.33334 H 104.66667 110 Z m 28,0 v -5.33333 h -5.33334 -5.33333 v 5.33333 5.33334 H 132.66666 138 Z m 27.66666,0 v -5 l -5.16666,-0.1947 -5.16667,-0.19472 v 5.38942 5.38942 l 5.16667,-0.19471 5.16666,-0.19471 z m 27.66667,-0.0281 v -5.36138 l -5.16667,0.19471 -5.16666,0.19471 -0.19471,5.16666 -0.19471,5.16667 h 5.36138 5.36137 z m 83.33333,0.0281 v -5.33333 h -5 -5 v 5.33333 5.33334 h 5 5 z m 28,0 v -5.33333 H 299.33333 294 v 5.33333 5.33334 h 5.33333 5.33333 z m 28,0 v -5.33333 H 327.33333 322 v 5.33333 5.33334 h 5.33333 5.33333 z m 28,0 v -5.33333 h -5.33333 -5.33334 v 5.33333 5.33334 h 5.33334 5.33333 z m 27.66667,0 v -5 l -5.16667,-0.1947 -5.16667,-0.19472 v 5.38942 5.38942 l 5.16667,-0.19471 5.16667,-0.19471 z M 42.640909,228.34666 c 8.014858,-4.14465 5.313756,-15.67999 -3.671608,-15.67999 -6.512009,0 -10.36367,6.94467 -6.953679,12.5377 2.22908,3.65612 6.938413,5.04884 10.625287,3.14229 z m 383.106831,-0.67181 c 6.29345,-4.12362 3.07503,-15.00818 -4.43773,-15.00818 -5.3207,0 -8.64335,3.26187 -8.64335,8.48522 0,6.44803 7.49297,10.18444 13.08108,6.52296 z M 81.999999,220.63863 v -5.36138 l -5.166667,0.19472 -5.166666,0.1947 -0.194707,5.16667 -0.194713,5.16667 h 5.36138 5.361373 z M 110,220.6667 v -5.33333 h -5.33333 -5.333338 v 5.33333 5.33333 H 104.66667 110 Z m 27.86137,0.16667 -0.19471,-5.16667 -5.16666,-0.19471 -5.16667,-0.19471 v 5.36138 5.36137 h 5.36137 5.36138 z m 28,0 -0.19471,-5.16667 -5.16666,-0.19471 -5.16667,-0.19471 v 5.36138 5.36137 h 5.36137 5.36138 z m 27.47196,-0.19474 v -5.36138 l -5.16667,0.19472 -5.16666,0.1947 -0.19471,5.16667 -0.19471,5.16667 h 5.36138 5.36137 z m 83.33333,0.028 v -5.33333 h -5 -5 v 5.33333 5.33334 h 5 5 z m 28,-0.0281 v -5.36138 l -5.16666,0.19471 -5.16667,0.19471 -0.19471,5.16666 -0.19471,5.16667 h 5.36138 5.36137 z m 28,0 v -5.36138 l -5.16666,0.19471 -5.16667,0.19471 -0.19471,5.16666 -0.19471,5.16667 h 5.36138 5.36137 z m 27.86137,0.19473 -0.1947,-5.16667 -5.16667,-0.1947 -5.16667,-0.19472 v 5.36138 5.36138 h 5.36138 5.36138 z m 28,0 -0.1947,-5.16667 -5.16667,-0.1947 -5.16667,-0.19472 v 5.36138 5.36138 h 5.36138 5.36138 z M 45.143767,198.40882 c 3.587992,-3.91518 2.673632,-10.42335 -1.788612,-12.73086 -5.298489,-2.73996 -11.707813,0.36834 -12.469519,6.04728 -1.098391,8.18912 8.678447,12.77207 14.258131,6.68358 z m 379.585483,1.89215 c 7.64089,-3.95126 4.71518,-15.58585 -3.92903,-15.62447 -2.98936,-0.0133 -5.90265,1.60986 -7.12227,3.96835 -3.86342,7.47102 3.70589,15.45458 11.0513,11.65612 z M 81.999999,193.00001 v -5 h -5.333333 -5.333334 v 5 5 h 5.333334 5.333333 z m 28.000001,0 v -5 h -5.33333 -5.333338 v 5 5 H 104.66667 110 Z m 28,0 v -5 h -5.33334 -5.33333 v 5 5 H 132.66666 138 Z m 28,0 v -5 h -5.33334 -5.33333 v 5 5 H 160.66666 166 Z m 27.33333,0 v -5 H 188 182.66666 v 5 5 H 188 h 5.33333 z m 83.33333,0 v -5 h -5 -5 v 5 5 h 5 5 z m 28,0 v -5 H 299.33333 294 v 5 5 h 5.33333 5.33333 z m 28,0 v -5 H 327.33333 322 v 5 5 h 5.33333 5.33333 z m 28,0 v -5 h -5.33333 -5.33334 v 5 5 h 5.33334 5.33333 z m 28,0 v -5 h -5.33333 -5.33334 v 5 5 h 5.33334 5.33333 z M 43.355155,172.32205 c 4.447769,-2.30003 5.376502,-8.81579 1.81111,-12.70631 -5.528112,-6.03221 -15.098827,-1.76528 -14.26849,6.36136 0.604389,5.91526 6.99447,9.16993 12.45738,6.34495 z m 382.234915,-0.38091 c 8.22825,-6.47234 0.90453,-18.73528 -8.51862,-14.2637 -5.56448,2.64052 -5.91394,11.70896 -0.56308,14.6123 2.71248,1.47178 6.9755,1.30814 9.0817,-0.3486 z M 81.999999,165 v -5 h -5.333333 -5.333334 v 5 5 h 5.333334 5.333333 z M 110,165 v -5 h -5.33333 -5.333338 v 5 5 H 104.66667 110 Z m 28,0 v -5 h -5.33334 -5.33333 v 5 5 H 132.66666 138 Z m 28,0 v -5 h -5.33334 -5.33333 v 5 5 H 160.66666 166 Z m 27.33333,0 v -5 H 188 182.66666 v 5 5 H 188 h 5.33333 z m 83.33333,0 v -5 h -5 -5 v 5 5 h 5 5 z m 28,0 v -5 H 299.33333 294 v 5 5 h 5.33333 5.33333 z m 28,0 v -5 H 327.33333 322 v 5 5 h 5.33333 5.33333 z m 28,0 v -5 h -5.33333 -5.33334 v 5 5 h 5.33334 5.33333 z m 28,0 v -5 h -5.33333 -5.33334 v 5 5 h 5.33334 5.33333 z M 234.69207,146.5 c 3.88439,-1.95878 6.20151,-6.14802 5.75761,-10.40949 -1.30128,-12.49237 -19.85916,-12.17293 -20.904,0.35983 C 219.06567,142.20793 224.30844,148 230,148 c 0.94461,0 3.05604,-0.675 4.69207,-1.5 z M 43.355155,144.32205 c 4.482046,-2.31775 5.415054,-9.0185 1.76409,-12.66947 -6.890094,-6.89009 -17.610078,0.49198 -13.448804,9.26122 1.925692,4.05809 7.361795,5.64372 11.684714,3.40825 z m 382.031205,-0.12609 c 5.82317,-3.43983 4.70854,-12.48974 -1.82277,-14.79935 -7.19662,-2.54488 -13.4665,5.03393 -9.88855,11.95293 1.94316,3.75766 7.7709,5.17408 11.71132,2.84642 z M 81.999999,137.33334 V 132 h -5.333333 -5.333334 v 5.33334 5.33333 h 5.333334 5.333333 z m 28.000001,0 V 132 h -5.33333 -5.333338 v 5.33334 5.33333 H 104.66667 110 Z m 28,0 V 132 h -5.33334 -5.33333 v 5.33334 5.33333 H 132.66666 138 Z M 165.86137,137.16667 166.05608,132 h -5.36138 -5.36137 v 5.36138 5.36138 l 5.16667,-0.19472 5.16666,-0.1947 z m 27.47196,0.16667 V 132 H 188 182.66666 v 4.88889 c 0,5.97626 -0.19848,5.77778 5.77778,5.77778 h 4.88889 z m 83.33333,0 V 132 h -5 -5 v 5.33334 5.33333 h 5 5 z m 28,0 V 132 H 299.33333 294 v 5.33334 5.33333 h 5.33333 5.33333 z m 28,0 V 132 H 327.33333 322 v 5.33334 5.33333 h 5.33333 5.33333 z m 28,0 V 132 h -5.33333 -5.33334 v 5.33334 5.33333 h 5.33334 5.33333 z M 388.52803,137.16667 388.72275,132 h -5.36138 -5.36138 v 5.36138 5.36138 l 5.16667,-0.19472 5.16667,-0.1947 z M 42.340147,117.04012 c 8.291314,-3.46433 5.621652,-15.929 -3.411645,-15.929 -9.505495,0 -11.162141,14.08845 -1.928503,16.40038 2.297922,0.57535 2.97882,0.51524 5.340148,-0.47138 z m 383.425963,-0.83325 c 5.19495,-3.40387 4.29646,-11.74123 -1.54371,-14.32462 -5.70031,-2.521514 -10.88019,0.64713 -11.40509,6.97676 -0.58776,7.08769 6.87916,11.32484 12.9488,7.34786 z M 81.999999,109.33334 V 104 h -5.333333 -5.333334 v 5.33334 5.33333 h 5.333334 5.333333 z m 28.000001,0 V 104 h -5.33333 -5.333338 v 5.33334 5.33333 H 104.66667 110 Z m 28,0 V 104 h -5.33334 -5.33333 v 5.33334 5.33333 H 132.66666 138 Z m 27.66666,0 v -5 l -5.16666,-0.19471 -5.16667,-0.19471 v 5.38942 5.38942 l 5.16667,-0.19472 5.16666,-0.1947 z m 27.66667,-0.0281 v -5.36138 l -5.16667,0.19471 -5.16666,0.19471 -0.19471,5.16667 -0.19471,5.16666 h 5.36138 5.36137 z m 83.33333,0.0281 V 104 h -5 -5 v 5.33334 5.33333 h 5 5 z m 28,0 V 104 H 299.33333 294 v 5.33334 5.33333 h 5.33333 5.33333 z m 28,0 V 104 H 327.33333 322 v 5.33334 5.33333 h 5.33333 5.33333 z m 28,0 V 104 h -5.33333 -5.33334 v 5.33334 5.33333 h 5.33334 5.33333 z m 27.66667,0 v -5 l -5.16667,-0.19471 -5.16667,-0.19471 v 5.38942 5.38942 l 5.16667,-0.19472 5.16667,-0.1947 z M 95.999999,66.000002 v -5.333334 h -5.333334 -5.333333 v 5.333334 5.333333 h 5.333333 5.333334 z m 27.861371,-0.166667 0.19471,-5.166667 h -5.36138 -5.36137 v 5.361377 5.361377 l 5.16667,-0.194713 5.16666,-0.194707 z m 27.47196,0.166667 v -5.333334 h -5 -5 v 5.333334 5.333333 h 5 5 z m 28,0 V 60.666668 H 174 168.66666 v 4.888889 c 0,5.976258 -0.19848,5.777778 5.77778,5.777778 h 4.88889 z m 28,0 V 60.666668 H 202 196.66666 v 5.333334 5.333333 H 202 h 5.33333 z m 55.86137,-0.166667 0.19472,-5.166667 h -5.36138 -5.36138 v 5.361377 5.361377 L 257.83333,71.194709 263,71.000002 Z m 27.47196,0.166667 v -5.333334 h -5 -5 v 5.333334 5.333333 h 5 5 z m 28,0 V 60.666668 H 313.33333 308 v 4.888889 c 0,5.976258 -0.19848,5.777778 5.77778,5.777778 h 4.88888 z m 28,0 V 60.666668 H 341.33333 336 v 5.333334 5.333333 h 5.33333 5.33333 z m 28,0 v -5.333334 h -5.33333 -5.33334 v 5.333334 5.333333 h 5.33334 5.33333 z M 49.999999,65.666669 V 64.000002 H 39.333333 28.666666 v 1.666667 1.666666 h 10.666667 10.666666 z m -9.201506,-21.166668 0.201506,-3.5 4.5,-0.197127 4.5,-0.197126 v -1.605747 -1.605747 l -4.5,-0.197126 -4.5,-0.197127 -0.199936,-3.833333 -0.199936,-3.833334 h -1.600128 -1.600128 l -0.199936,3.833334 -0.199936,3.833333 -4.166666,0.198478 -4.166667,0.198479 v 1.603043 1.603043 l 4.166667,0.198479 4.166666,0.198478 0.201507,3.5 0.201506,3.5 h 1.596987 1.596988 z m 55.201506,-6.5 v -5.333333 h -5.333334 -5.333333 v 5.333333 5.333334 h 5.333333 5.333334 z m 28.000001,0 v -5.333333 h -5.33334 -5.33333 v 5.333333 5.333334 H 118.66666 124 Z m 27.33333,0 v -5.333333 h -5 -5 v 5.333333 5.333334 h 5 5 z m 28,0 V 32.666668 H 174 168.66666 v 4.888888 c 0,5.976259 -0.19848,5.777779 5.77778,5.777779 h 4.88889 z m 28,0 V 32.666668 H 202 196.66666 v 5.333333 5.333334 H 202 h 5.33333 z m 56,0 V 32.666668 H 258 252.66666 v 5.333333 5.333334 H 258 h 5.33333 z m 27.33333,0 v -5.333333 h -5 -5 v 5.333333 5.333334 h 5 5 z m 28,0 V 32.666668 H 313.33333 308 v 4.888888 c 0,5.976259 -0.19848,5.777779 5.77778,5.777779 h 4.88888 z m 28,0 V 32.666668 H 341.33333 336 v 5.333333 5.333334 h 5.33333 5.33333 z m 28,0 v -5.333333 h -5.33333 -5.33334 v 5.333333 5.333334 h 5.33334 5.33333 z"
       style="fill:#3e3c45;stroke-width:0.666667;fill-opacity:1" />
  </g>
</svg>
