<?xml version="1.0" encoding="UTF-8" standalone="no"?><!-- Generator: Gravit.io --><svg xmlns="http://www.w3.org/2000/svg" xmlns:xlink="http://www.w3.org/1999/xlink" style="isolation:isolate" viewBox="0 0 623.621 623.622" width="623.621pt" height="623.622pt"><defs><clipPath id="_clipPath_wDzPY3MsbEijtfszGZoMbCeP0UbVebPr"><rect width="623.621" height="623.622"/></clipPath></defs><g clip-path="url(#_clipPath_wDzPY3MsbEijtfszGZoMbCeP0UbVebPr)"><clipPath id="_clipPath_WbDKFW7ytMDYDgVGVcm0ym8qFvyICYdI"><path d=" M 0 0 L 623.621 0 L 623.621 623.622 L 0 623.622 L 0 0 Z " fill="rgb(255,255,255)"/></clipPath><g clip-path="url(#_clipPath_WbDKFW7ytMDYDgVGVcm0ym8qFvyICYdI)"><path d=" M 135.684 299.171 L 162.964 299.171 C 173.524 299.171 178.804 293.747 178.804 282.891 L 178.804 239.771 C 178.804 228.919 173.524 223.491 162.964 223.491 L 151.304 223.491 C 139.276 223.491 133.264 229.651 133.264 241.971 L 133.264 296.751 C 133.264 298.367 134.068 299.171 135.684 299.171 Z  M 111.924 314.131 L 111.924 166.951 C 111.924 164.459 113.168 163.211 115.663 163.211 L 129.524 163.211 C 132.016 163.211 133.264 164.459 133.264 166.951 L 133.264 216.671 L 134.144 216.671 C 137.808 208.751 145.216 204.791 156.364 204.791 L 166.044 204.791 C 176.896 204.791 185.329 207.761 191.344 213.701 C 197.356 219.641 200.364 227.967 200.364 238.671 L 200.364 283.771 C 200.364 294.479 197.356 302.839 191.344 308.851 C 185.329 314.867 176.896 317.871 166.044 317.871 L 115.663 317.871 C 113.168 317.871 111.924 316.627 111.924 314.131 Z " fill="rgb(0,0,0)"/><path d=" M 244.581 317.871 L 230.722 317.871 C 228.226 317.871 226.981 316.627 226.981 314.131 L 226.981 166.951 C 226.981 164.459 228.226 163.211 230.722 163.211 L 244.581 163.211 C 247.073 163.211 248.321 164.459 248.321 166.951 L 248.321 314.131 C 248.321 316.627 247.073 317.871 244.581 317.871 Z " fill="rgb(0,0,0)"/><path d=" M 278.238 314.131 L 278.238 209.411 C 278.238 206.919 279.41 205.671 281.759 205.671 L 295.838 205.671 C 298.33 205.671 299.578 206.919 299.578 209.411 L 299.578 314.131 C 299.578 315.6 299.32 316.589 298.808 317.102 C 298.293 317.617 297.378 317.871 296.058 317.871 L 281.978 317.871 C 279.482 317.871 278.238 316.627 278.238 314.131 Z  M 278.238 186.971 L 278.238 166.951 C 278.238 164.607 279.41 163.431 281.759 163.431 L 296.058 163.431 C 298.402 163.431 299.578 164.607 299.578 166.951 L 299.578 186.971 C 299.578 189.467 298.402 190.711 296.058 190.711 L 281.759 190.711 C 279.41 190.711 278.238 189.467 278.238 186.971 Z " fill="rgb(0,0,0)"/><path d=" M 345.995 317.871 L 332.135 317.871 C 329.64 317.871 328.395 316.627 328.395 314.131 L 328.395 209.411 C 328.395 206.919 329.64 205.671 332.135 205.671 L 345.995 205.671 C 348.487 205.671 349.735 206.919 349.735 209.411 L 349.735 217.331 L 350.615 217.331 C 354.135 209.559 361.539 205.671 372.835 205.671 L 382.516 205.671 C 393.22 205.671 401.435 208.607 407.155 214.471 C 412.875 220.339 415.735 228.771 415.735 239.771 L 415.735 314.131 C 415.735 316.627 414.415 317.871 411.775 317.871 L 397.915 317.871 C 395.42 317.871 394.175 316.627 394.175 314.131 L 394.175 240.651 C 394.175 229.799 388.819 224.371 378.115 224.371 L 367.775 224.371 C 355.747 224.371 349.735 230.607 349.735 243.071 L 349.735 314.131 C 349.735 316.627 348.487 317.871 345.995 317.871 Z " fill="rgb(0,0,0)"/><path d=" M 505.936 205.671 L 521.775 205.671 C 523.096 205.671 524.01 206.077 524.526 206.881 C 525.038 207.689 524.856 208.751 523.976 210.071 L 492.956 259.351 L 492.956 260.231 L 526.396 313.472 C 527.127 314.647 527.238 315.671 526.726 316.552 C 526.209 317.432 525.148 317.871 523.535 317.871 L 509.236 317.871 C 505.859 317.871 503.368 316.627 501.756 314.131 L 470.736 263.311 C 469.708 261.407 469.708 259.427 470.736 257.371 L 499.556 209.191 C 500.875 206.847 503 205.671 505.936 205.671 Z  M 459.736 317.871 L 445.875 317.871 C 443.38 317.871 442.136 316.627 442.136 314.131 L 442.136 166.951 C 442.136 164.459 443.38 163.211 445.875 163.211 L 459.736 163.211 C 462.227 163.211 463.476 164.459 463.476 166.951 L 463.476 314.131 C 463.476 316.627 462.227 317.871 459.736 317.871 Z " fill="rgb(0,0,0)"/><path d=" M 131.514 437.762 L 154.273 437.762 C 163.082 437.762 167.488 433.237 167.488 424.18 L 167.488 388.205 C 167.488 379.152 163.082 374.623 154.273 374.623 L 144.545 374.623 C 134.511 374.623 129.494 379.763 129.494 390.041 L 129.494 435.742 C 129.494 437.09 130.165 437.762 131.514 437.762 Z  M 111.692 450.242 L 111.692 327.453 C 111.692 325.374 112.73 324.333 114.812 324.333 L 126.374 324.333 C 128.453 324.333 129.494 325.374 129.494 327.453 L 129.494 368.934 L 130.229 368.934 C 133.286 362.326 139.466 359.023 148.767 359.023 L 156.842 359.023 C 165.896 359.023 172.931 361.5 177.95 366.456 C 182.965 371.411 185.475 378.358 185.475 387.288 L 185.475 424.913 C 185.475 433.847 182.965 440.822 177.95 445.837 C 172.931 450.856 165.896 453.363 156.842 453.363 L 114.812 453.363 C 112.73 453.363 111.692 452.325 111.692 450.242 Z " fill="rgb(0,0,0)"/><path d=" M 235.946 437.762 L 247.142 437.762 C 255.952 437.762 260.357 433.296 260.357 424.364 L 260.357 388.756 C 260.357 379.825 255.952 375.358 247.142 375.358 L 235.946 375.358 C 231.295 375.358 227.93 376.43 225.851 378.57 C 223.769 380.712 222.731 384.108 222.731 388.756 L 222.731 424.364 C 222.731 429.015 223.769 432.41 225.851 434.55 C 227.93 436.692 231.295 437.762 235.946 437.762 Z  M 249.528 453.363 L 233.377 453.363 C 224.32 453.363 217.316 450.856 212.361 445.837 C 207.405 440.822 204.927 433.847 204.927 424.913 L 204.927 388.205 C 204.927 379.152 207.405 372.146 212.361 367.19 C 217.316 362.235 224.32 359.757 233.377 359.757 L 249.528 359.757 C 258.459 359.757 265.465 362.235 270.544 367.19 C 275.62 372.146 278.16 379.152 278.16 388.205 L 278.16 424.913 C 278.16 433.847 275.62 440.822 270.544 445.837 C 265.465 450.856 258.459 453.363 249.528 453.363 Z " fill="rgb(0,0,0)"/><path d=" M 352.311 422.16 L 352.311 377.193 C 352.311 375.972 351.637 375.357 350.291 375.357 L 328.451 375.357 C 319.641 375.357 315.236 379.886 315.236 388.939 L 315.236 424.18 C 315.236 433.236 319.641 437.762 328.451 437.762 L 337.26 437.762 C 347.292 437.762 352.311 432.561 352.311 422.16 Z  M 333.04 453.362 L 325.881 453.362 C 316.825 453.362 309.821 450.855 304.866 445.837 C 299.91 440.821 297.432 433.847 297.432 424.913 L 297.432 388.205 C 297.432 379.151 299.91 372.145 304.866 367.189 C 309.821 362.234 316.825 359.757 325.881 359.757 L 366.995 359.757 C 369.197 359.757 370.298 360.798 370.298 362.877 L 370.298 450.242 C 370.298 452.324 369.197 453.362 366.995 453.362 L 355.431 453.362 C 353.349 453.362 352.311 452.324 352.311 450.242 L 352.311 443.635 L 351.577 443.635 C 348.64 450.122 342.459 453.362 333.04 453.362 Z " fill="rgb(0,0,0)"/><path d=" M 407.922 453.362 L 396.359 453.362 C 394.277 453.362 393.239 452.324 393.239 450.242 L 393.239 362.877 C 393.239 360.798 394.277 359.757 396.359 359.757 L 407.922 359.757 C 410.001 359.757 411.042 360.798 411.042 362.877 L 411.042 369.851 L 411.776 369.851 C 412.998 366.794 415.356 364.344 418.843 362.509 C 422.33 360.674 426.213 359.757 430.498 359.757 L 437.289 359.757 C 439.368 359.757 440.409 360.798 440.409 362.877 L 440.409 372.421 C 440.409 374.747 439.368 375.724 437.289 375.357 L 426.276 375.357 C 416.118 375.357 411.042 380.926 411.042 392.059 L 411.042 450.242 C 411.042 452.324 410.001 453.362 407.922 453.362 Z " fill="rgb(0,0,0)"/><path d=" M 508.685 422.16 L 508.685 390.958 C 508.685 380.559 503.665 375.357 493.634 375.357 L 483.907 375.357 C 475.097 375.357 470.692 379.886 470.692 388.939 L 470.692 424.18 C 470.692 433.236 475.097 437.762 483.907 437.762 L 493.634 437.762 C 503.665 437.762 508.685 432.561 508.685 422.16 Z  M 489.596 453.362 L 480.236 453.362 C 471.426 453.362 464.664 450.885 459.955 445.929 C 455.243 440.973 452.888 433.97 452.888 424.913 L 452.888 388.205 C 452.888 379.028 455.243 371.993 459.955 367.098 C 464.664 362.206 471.426 359.757 480.236 359.757 L 489.596 359.757 C 499.017 359.757 505.134 363 507.951 369.484 L 508.685 369.484 L 508.685 327.453 C 508.685 325.374 509.723 324.333 511.805 324.333 L 523.551 324.333 C 525.63 324.333 526.671 325.374 526.671 327.453 L 526.671 450.242 C 526.671 452.324 525.63 453.362 523.551 453.362 L 511.805 453.362 C 509.723 453.362 508.685 452.324 508.685 450.242 L 508.685 443.635 L 507.951 443.635 C 505.134 450.122 499.017 453.362 489.596 453.362 Z " fill="rgb(0,0,0)"/><path d=" M 148.344 139.467 C 148.344 155.114 135.658 167.8 120.011 167.8 C 104.363 167.8 91.677 155.114 91.677 139.467 C 91.677 123.819 104.363 111.133 120.011 111.133 C 135.658 111.133 148.344 123.819 148.344 139.467 Z " fill="none" vector-effect="non-scaling-stroke" stroke-width="14" stroke="rgb(0,0,0)" stroke-linejoin="miter" stroke-linecap="square" stroke-miterlimit="3"/><path d=" M 94.072 157.318 C 94.072 157.318 112.406 169.651 116.406 209.651 C 119.683 242.426 111.906 170.818 111.906 170.818" fill="none" vector-effect="non-scaling-stroke" stroke-width="8" stroke="rgb(0,0,0)" stroke-linejoin="miter" stroke-linecap="square" stroke-miterlimit="3"/></g></g></svg>