<?xml version="1.0" encoding="utf-8"?>
<!-- Generator: Adobe Illustrator 24.0.1, SVG Export Plug-In . SVG Version: 6.00 Build 0)  -->
<svg version="1.1" id="레이어_1" xmlns="http://www.w3.org/2000/svg" xmlns:xlink="http://www.w3.org/1999/xlink" x="0px"
	 y="0px" viewBox="0 0 623.62 623.62" style="enable-background:new 0 0 623.62 623.62;" xml:space="preserve">
<style type="text/css">
	.st0{fill:none;stroke:#000000;stroke-width:14;stroke-miterlimit:10;}
	.st1{fill:none;stroke:#000000;stroke-width:8;stroke-miterlimit:10;}
</style>
<g>
	<path d="M111.92,314.13V166.95c0-2.49,1.24-3.74,3.74-3.74h13.86c2.49,0,3.74,1.25,3.74,3.74v49.72h0.88
		c3.66-7.92,11.07-11.88,22.22-11.88h9.68c10.85,0,19.28,2.97,25.3,8.91c6.01,5.94,9.02,14.27,9.02,24.97v45.1
		c0,10.71-3.01,19.07-9.02,25.08c-6.02,6.02-14.45,9.02-25.3,9.02h-50.38C113.17,317.87,111.92,316.63,111.92,314.13z
		 M135.68,299.17h27.28c10.56,0,15.84-5.42,15.84-16.28v-43.12c0-10.85-5.28-16.28-15.84-16.28H151.3
		c-12.03,0-18.04,6.16-18.04,18.48v54.78C133.26,298.37,134.07,299.17,135.68,299.17z"/>
	<path d="M244.58,317.87h-13.86c-2.5,0-3.74-1.24-3.74-3.74V166.95c0-2.49,1.24-3.74,3.74-3.74h13.86c2.49,0,3.74,1.25,3.74,3.74
		v147.18C248.32,316.63,247.07,317.87,244.58,317.87z"/>
	<path d="M278.24,186.97v-20.02c0-2.34,1.17-3.52,3.52-3.52h14.3c2.34,0,3.52,1.18,3.52,3.52v20.02c0,2.5-1.18,3.74-3.52,3.74h-14.3
		C279.41,190.71,278.24,189.47,278.24,186.97z M278.24,314.13V209.41c0-2.49,1.17-3.74,3.52-3.74h14.08c2.49,0,3.74,1.25,3.74,3.74
		v104.72c0,1.47-0.26,2.46-0.77,2.97c-0.52,0.52-1.43,0.77-2.75,0.77h-14.08C279.48,317.87,278.24,316.63,278.24,314.13z"/>
	<path d="M346,317.87h-13.86c-2.5,0-3.74-1.24-3.74-3.74V209.41c0-2.49,1.24-3.74,3.74-3.74H346c2.49,0,3.74,1.25,3.74,3.74v7.92
		h0.88c3.52-7.77,10.92-11.66,22.22-11.66h9.68c10.7,0,18.92,2.94,24.64,8.8c5.72,5.87,8.58,14.3,8.58,25.3v74.36
		c0,2.5-1.32,3.74-3.96,3.74h-13.86c-2.5,0-3.74-1.24-3.74-3.74v-73.48c0-10.85-5.36-16.28-16.06-16.28h-10.34
		c-12.03,0-18.04,6.24-18.04,18.7v71.06C349.74,316.63,348.49,317.87,346,317.87z"/>
	<path d="M459.74,317.87h-13.86c-2.5,0-3.74-1.24-3.74-3.74V166.95c0-2.49,1.24-3.74,3.74-3.74h13.86c2.49,0,3.74,1.25,3.74,3.74
		v147.18C463.48,316.63,462.23,317.87,459.74,317.87z M505.94,205.67h15.84c1.32,0,2.23,0.41,2.75,1.21
		c0.51,0.81,0.33,1.87-0.55,3.19l-31.02,49.28v0.88l33.44,53.24c0.73,1.17,0.84,2.2,0.33,3.08c-0.52,0.88-1.58,1.32-3.19,1.32h-14.3
		c-3.38,0-5.87-1.24-7.48-3.74l-31.02-50.82c-1.03-1.9-1.03-3.88,0-5.94l28.82-48.18C500.87,206.85,503,205.67,505.94,205.67z"/>
</g>
<g>
	<path d="M111.69,450.24V327.45c0-2.08,1.04-3.12,3.12-3.12h11.56c2.08,0,3.12,1.04,3.12,3.12v41.48h0.73
		c3.06-6.61,9.24-9.91,18.54-9.91h8.08c9.05,0,16.09,2.48,21.11,7.43c5.02,4.96,7.53,11.9,7.53,20.83v37.63
		c0,8.93-2.51,15.91-7.53,20.92c-5.02,5.02-12.05,7.53-21.11,7.53h-42.03C112.73,453.36,111.69,452.32,111.69,450.24z
		 M131.51,437.76h22.76c8.81,0,13.21-4.53,13.21-13.58v-35.97c0-9.05-4.41-13.58-13.21-13.58h-9.73c-10.03,0-15.05,5.14-15.05,15.42
		v45.7C129.49,437.09,130.16,437.76,131.51,437.76z"/>
	<path d="M249.53,453.36h-16.15c-9.06,0-16.06-2.51-21.02-7.53c-4.96-5.02-7.43-11.99-7.43-20.92v-36.71
		c0-9.05,2.48-16.06,7.43-21.02c4.96-4.96,11.96-7.43,21.02-7.43h16.15c8.93,0,15.94,2.48,21.02,7.43
		c5.08,4.96,7.62,11.96,7.62,21.02v36.71c0,8.93-2.54,15.91-7.62,20.92C265.46,450.86,258.46,453.36,249.53,453.36z M235.95,437.76
		h11.2c8.81,0,13.21-4.47,13.21-13.4v-35.61c0-8.93-4.41-13.4-13.21-13.4h-11.2c-4.65,0-8.02,1.07-10.09,3.21
		c-2.08,2.14-3.12,5.54-3.12,10.19v35.61c0,4.65,1.04,8.05,3.12,10.19C227.93,436.69,231.29,437.76,235.95,437.76z"/>
	<path d="M333.04,453.36h-7.16c-9.06,0-16.06-2.51-21.02-7.53c-4.96-5.02-7.43-11.99-7.43-20.92v-36.71
		c0-9.05,2.48-16.06,7.43-21.02c4.96-4.96,11.96-7.43,21.02-7.43h41.11c2.2,0,3.3,1.04,3.3,3.12v87.37c0,2.08-1.1,3.12-3.3,3.12
		h-11.56c-2.08,0-3.12-1.04-3.12-3.12v-6.61h-0.73C348.64,450.12,342.46,453.36,333.04,453.36z M352.31,422.16v-44.97
		c0-1.22-0.67-1.84-2.02-1.84h-21.84c-8.81,0-13.21,4.53-13.21,13.58v35.24c0,9.06,4.41,13.58,13.21,13.58h8.81
		C347.29,437.76,352.31,432.56,352.31,422.16z"/>
	<path d="M407.92,453.36h-11.56c-2.08,0-3.12-1.04-3.12-3.12v-87.37c0-2.08,1.04-3.12,3.12-3.12h11.56c2.08,0,3.12,1.04,3.12,3.12
		v6.97h0.73c1.22-3.06,3.58-5.51,7.07-7.34c3.49-1.84,7.37-2.75,11.66-2.75h6.79c2.08,0,3.12,1.04,3.12,3.12v9.54
		c0,2.33-1.04,3.3-3.12,2.94h-11.01c-10.16,0-15.23,5.57-15.23,16.7v58.18C411.04,452.32,410,453.36,407.92,453.36z"/>
	<path d="M489.6,453.36h-9.36c-8.81,0-15.57-2.48-20.28-7.43c-4.71-4.96-7.07-11.96-7.07-21.02v-36.71c0-9.18,2.35-16.21,7.07-21.11
		c4.71-4.89,11.47-7.34,20.28-7.34h9.36c9.42,0,15.54,3.24,18.35,9.73h0.73v-42.03c0-2.08,1.04-3.12,3.12-3.12h11.75
		c2.08,0,3.12,1.04,3.12,3.12v122.79c0,2.08-1.04,3.12-3.12,3.12H511.8c-2.08,0-3.12-1.04-3.12-3.12v-6.61h-0.73
		C505.13,450.12,499.02,453.36,489.6,453.36z M508.68,422.16v-31.2c0-10.4-5.02-15.6-15.05-15.6h-9.73
		c-8.81,0-13.21,4.53-13.21,13.58v35.24c0,9.06,4.41,13.58,13.21,13.58h9.73C503.66,437.76,508.68,432.56,508.68,422.16z"/>
</g>
<path class="st0" d="M148.34,139.47c0,15.65-12.69,28.33-28.33,28.33c-15.65,0-28.33-12.69-28.33-28.33
	c0-15.65,12.69-28.33,28.33-28.33C135.66,111.13,148.34,123.82,148.34,139.47z"/>
<path class="st1" d="M94.07,157.32c0,0,18.33,12.33,22.33,52.33c3.28,32.78-4.5-38.83-4.5-38.83"/>
</svg>
