<?xml version="1.0" encoding="UTF-8" standalone="no"?>
<svg
   xmlns:dc="http://purl.org/dc/elements/1.1/"
   xmlns:cc="http://creativecommons.org/ns#"
   xmlns:rdf="http://www.w3.org/1999/02/22-rdf-syntax-ns#"
   xmlns:svg="http://www.w3.org/2000/svg"
   xmlns="http://www.w3.org/2000/svg"
   xmlns:sodipodi="http://sodipodi.sourceforge.net/DTD/sodipodi-0.dtd"
   xmlns:inkscape="http://www.inkscape.org/namespaces/inkscape"
   inkscape:version="1.0 (4035a4f, 2020-05-01)"
   sodipodi:docname="logo_bb_white_on_white.svg"
   xml:space="preserve"
   style="enable-background:new 0 0 623.62 623.62;"
   viewBox="0 0 623.62 623.62"
   y="0px"
   x="0px"
   id="레이어_1"
   version="1.1"><metadata
   id="metadata2073"><rdf:RDF><cc:Work
       rdf:about=""><dc:format>image/svg+xml</dc:format><dc:type
         rdf:resource="http://purl.org/dc/dcmitype/StillImage" /></cc:Work></rdf:RDF></metadata><defs
   id="defs2071" /><sodipodi:namedview
   inkscape:current-layer="레이어_1"
   inkscape:window-maximized="0"
   inkscape:window-y="358"
   inkscape:window-x="1478"
   inkscape:cy="330.65232"
   inkscape:cx="325.18197"
   inkscape:zoom="1.6452327"
   showgrid="false"
   id="namedview2069"
   inkscape:window-height="1135"
   inkscape:window-width="1403"
   inkscape:pageshadow="2"
   inkscape:pageopacity="0"
   guidetolerance="10"
   gridtolerance="10"
   objecttolerance="10"
   borderopacity="1"
   bordercolor="#666666"
   pagecolor="#ffffff" />
<style
   id="style2008"
   type="text/css">
	.st0{fill:none;stroke:#000000;stroke-width:14;stroke-miterlimit:10;}
	.st1{fill:none;stroke:#000000;stroke-width:8;stroke-miterlimit:10;}
	.st2{fill:#FFFFFF;}
	.st3{fill:none;stroke:#FFFFFF;stroke-width:14;stroke-miterlimit:10;}
	.st4{fill:none;stroke:#FFFFFF;stroke-width:8;stroke-miterlimit:10;}
</style>
<g
   id="g2020">
	<path
   id="path2010"
   d="M-624.37,314.13V166.95c0-2.49,1.24-3.74,3.74-3.74h13.86c2.49,0,3.74,1.25,3.74,3.74v49.72h0.88   c3.66-7.92,11.07-11.88,22.22-11.88h9.68c10.85,0,19.28,2.97,25.3,8.91c6.01,5.94,9.02,14.27,9.02,24.97v45.1   c0,10.71-3.01,19.07-9.02,25.08c-6.02,6.02-14.45,9.02-25.3,9.02h-50.38C-623.12,317.87-624.37,316.63-624.37,314.13z    M-600.61,299.17h27.28c10.56,0,15.84-5.42,15.84-16.28v-43.12c0-10.85-5.28-16.28-15.84-16.28h-11.66   c-12.03,0-18.04,6.16-18.04,18.48v54.78C-603.03,298.37-602.22,299.17-600.61,299.17z" />
	<path
   id="path2012"
   d="M-491.71,317.87h-13.86c-2.5,0-3.74-1.24-3.74-3.74V166.95c0-2.49,1.24-3.74,3.74-3.74h13.86c2.49,0,3.74,1.25,3.74,3.74   v147.18C-487.97,316.63-489.22,317.87-491.71,317.87z" />
	<path
   id="path2014"
   d="M-458.05,186.97v-20.02c0-2.34,1.17-3.52,3.52-3.52h14.3c2.34,0,3.52,1.18,3.52,3.52v20.02c0,2.5-1.18,3.74-3.52,3.74   h-14.3C-456.88,190.71-458.05,189.47-458.05,186.97z M-458.05,314.13V209.41c0-2.49,1.17-3.74,3.52-3.74h14.08   c2.49,0,3.74,1.25,3.74,3.74v104.72c0,1.47-0.26,2.46-0.77,2.97c-0.52,0.52-1.43,0.77-2.75,0.77h-14.08   C-456.81,317.87-458.05,316.63-458.05,314.13z" />
	<path
   id="path2016"
   d="M-390.3,317.87h-13.86c-2.5,0-3.74-1.24-3.74-3.74V209.41c0-2.49,1.24-3.74,3.74-3.74h13.86c2.49,0,3.74,1.25,3.74,3.74   v7.92h0.88c3.52-7.77,10.92-11.66,22.22-11.66h9.68c10.7,0,18.92,2.94,24.64,8.8c5.72,5.87,8.58,14.3,8.58,25.3v74.36   c0,2.5-1.32,3.74-3.96,3.74h-13.86c-2.5,0-3.74-1.24-3.74-3.74v-73.48c0-10.85-5.36-16.28-16.06-16.28h-10.34   c-12.03,0-18.04,6.24-18.04,18.7v71.06C-386.55,316.63-387.8,317.87-390.3,317.87z" />
	<path
   id="path2018"
   d="M-276.55,317.87h-13.86c-2.5,0-3.74-1.24-3.74-3.74V166.95c0-2.49,1.24-3.74,3.74-3.74h13.86c2.49,0,3.74,1.25,3.74,3.74   v147.18C-272.81,316.63-274.06,317.87-276.55,317.87z M-230.35,205.67h15.84c1.32,0,2.23,0.41,2.75,1.21   c0.51,0.81,0.33,1.87-0.55,3.19l-31.02,49.28v0.88l33.44,53.24c0.73,1.17,0.84,2.2,0.33,3.08c-0.52,0.88-1.58,1.32-3.19,1.32h-14.3   c-3.38,0-5.87-1.24-7.48-3.74l-31.02-50.82c-1.03-1.9-1.03-3.88,0-5.94l28.82-48.18C-235.42,206.85-233.29,205.67-230.35,205.67z" />
</g>
<g
   id="g2032">
	<path
   id="path2022"
   d="M-624.6,450.24V327.45c0-2.08,1.04-3.12,3.12-3.12h11.56c2.08,0,3.12,1.04,3.12,3.12v41.48h0.73   c3.06-6.61,9.24-9.91,18.54-9.91h8.08c9.05,0,16.09,2.48,21.11,7.43c5.02,4.96,7.53,11.9,7.53,20.83v37.63   c0,8.93-2.51,15.91-7.53,20.92c-5.02,5.02-12.05,7.53-21.11,7.53h-42.03C-623.56,453.36-624.6,452.32-624.6,450.24z    M-604.78,437.76h22.76c8.81,0,13.21-4.53,13.21-13.58v-35.97c0-9.05-4.41-13.58-13.21-13.58h-9.73   c-10.03,0-15.05,5.14-15.05,15.42v45.7C-606.8,437.09-606.13,437.76-604.78,437.76z" />
	<path
   id="path2024"
   d="M-486.76,453.36h-16.15c-9.06,0-16.06-2.51-21.02-7.53c-4.96-5.02-7.43-11.99-7.43-20.92v-36.71   c0-9.05,2.48-16.06,7.43-21.02c4.96-4.96,11.96-7.43,21.02-7.43h16.15c8.93,0,15.94,2.48,21.02,7.43   c5.08,4.96,7.62,11.96,7.62,21.02v36.71c0,8.93-2.54,15.91-7.62,20.92C-470.83,450.86-477.83,453.36-486.76,453.36z    M-500.34,437.76h11.2c8.81,0,13.21-4.47,13.21-13.4v-35.61c0-8.93-4.41-13.4-13.21-13.4h-11.2c-4.65,0-8.02,1.07-10.09,3.21   c-2.08,2.14-3.12,5.54-3.12,10.19v35.61c0,4.65,1.04,8.05,3.12,10.19C-508.36,436.69-505,437.76-500.34,437.76z" />
	<path
   id="path2026"
   d="M-403.25,453.36h-7.16c-9.06,0-16.06-2.51-21.02-7.53c-4.96-5.02-7.43-11.99-7.43-20.92v-36.71   c0-9.05,2.48-16.06,7.43-21.02c4.96-4.96,11.96-7.43,21.02-7.43h41.11c2.2,0,3.3,1.04,3.3,3.12v87.37c0,2.08-1.1,3.12-3.3,3.12   h-11.56c-2.08,0-3.12-1.04-3.12-3.12v-6.61h-0.73C-387.65,450.12-393.83,453.36-403.25,453.36z M-383.98,422.16v-44.97   c0-1.22-0.67-1.84-2.02-1.84h-21.84c-8.81,0-13.21,4.53-13.21,13.58v35.24c0,9.06,4.41,13.58,13.21,13.58h8.81   C-389,437.76-383.98,432.56-383.98,422.16z" />
	<path
   id="path2028"
   d="M-328.37,453.36h-11.56c-2.08,0-3.12-1.04-3.12-3.12v-87.37c0-2.08,1.04-3.12,3.12-3.12h11.56c2.08,0,3.12,1.04,3.12,3.12   v6.97h0.73c1.22-3.06,3.58-5.51,7.07-7.34c3.49-1.84,7.37-2.75,11.66-2.75h6.79c2.08,0,3.12,1.04,3.12,3.12v9.54   c0,2.33-1.04,3.3-3.12,2.94h-11.01c-10.16,0-15.23,5.57-15.23,16.7v58.18C-325.25,452.32-326.29,453.36-328.37,453.36z" />
	<path
   id="path2030"
   d="M-246.69,453.36h-9.36c-8.81,0-15.57-2.48-20.28-7.43c-4.71-4.96-7.07-11.96-7.07-21.02v-36.71   c0-9.18,2.35-16.21,7.07-21.11c4.71-4.89,11.47-7.34,20.28-7.34h9.36c9.42,0,15.54,3.24,18.35,9.73h0.73v-42.03   c0-2.08,1.04-3.12,3.12-3.12h11.75c2.08,0,3.12,1.04,3.12,3.12v122.79c0,2.08-1.04,3.12-3.12,3.12h-11.75   c-2.08,0-3.12-1.04-3.12-3.12v-6.61h-0.73C-231.16,450.12-237.27,453.36-246.69,453.36z M-227.61,422.16v-31.2   c0-10.4-5.02-15.6-15.05-15.6h-9.73c-8.81,0-13.21,4.53-13.21,13.58v35.24c0,9.06,4.41,13.58,13.21,13.58h9.73   C-232.63,437.76-227.61,432.56-227.61,422.16z" />
</g>
<path
   id="path2034"
   d="M-587.95,139.47c0,15.65-12.69,28.33-28.33,28.33c-15.65,0-28.33-12.69-28.33-28.33  c0-15.65,12.69-28.33,28.33-28.33C-600.63,111.13-587.95,123.82-587.95,139.47z"
   class="st0" />
<path
   id="path2036"
   d="M-642.22,157.32c0,0,18.33,12.33,22.33,52.33c3.28,32.78-4.5-38.83-4.5-38.83"
   class="st1" />

<g
   id="g2050">
	<path
   style="fill:#ffffff"
   id="path2040"
   d="M 111.92,314.13 V 166.95 c 0,-2.49 1.24,-3.74 3.74,-3.74 h 13.86 c 2.49,0 3.74,1.25 3.74,3.74 v 49.72 h 0.88 c 3.66,-7.92 11.07,-11.88 22.22,-11.88 h 9.68 c 10.85,0 19.28,2.97 25.3,8.91 6.01,5.94 9.02,14.27 9.02,24.97 v 45.1 c 0,10.71 -3.01,19.07 -9.02,25.08 -6.02,6.02 -14.45,9.02 -25.3,9.02 h -50.38 c -2.49,0 -3.74,-1.24 -3.74,-3.74 z m 23.76,-14.96 h 27.28 c 10.56,0 15.84,-5.42 15.84,-16.28 v -43.12 c 0,-10.85 -5.28,-16.28 -15.84,-16.28 H 151.3 c -12.03,0 -18.04,6.16 -18.04,18.48 v 54.78 c 0,1.62 0.81,2.42 2.42,2.42 z"
   class="st2" />
	<path
   style="fill:#ffffff"
   id="path2042"
   d="m 244.58,317.87 h -13.86 c -2.5,0 -3.74,-1.24 -3.74,-3.74 V 166.95 c 0,-2.49 1.24,-3.74 3.74,-3.74 h 13.86 c 2.49,0 3.74,1.25 3.74,3.74 v 147.18 c 0,2.5 -1.25,3.74 -3.74,3.74 z"
   class="st2" />
	<path
   style="fill:#ffffff"
   id="path2044"
   d="m 278.24,186.97 v -20.02 c 0,-2.34 1.17,-3.52 3.52,-3.52 h 14.3 c 2.34,0 3.52,1.18 3.52,3.52 v 20.02 c 0,2.5 -1.18,3.74 -3.52,3.74 h -14.3 c -2.35,0 -3.52,-1.24 -3.52,-3.74 z m 0,127.16 V 209.41 c 0,-2.49 1.17,-3.74 3.52,-3.74 h 14.08 c 2.49,0 3.74,1.25 3.74,3.74 v 104.72 c 0,1.47 -0.26,2.46 -0.77,2.97 -0.52,0.52 -1.43,0.77 -2.75,0.77 h -14.08 c -2.5,0 -3.74,-1.24 -3.74,-3.74 z"
   class="st2" />
	<path
   style="fill:#ffffff"
   id="path2046"
   d="m 346,317.87 h -13.86 c -2.5,0 -3.74,-1.24 -3.74,-3.74 V 209.41 c 0,-2.49 1.24,-3.74 3.74,-3.74 H 346 c 2.49,0 3.74,1.25 3.74,3.74 v 7.92 h 0.88 c 3.52,-7.77 10.92,-11.66 22.22,-11.66 h 9.68 c 10.7,0 18.92,2.94 24.64,8.8 5.72,5.87 8.58,14.3 8.58,25.3 v 74.36 c 0,2.5 -1.32,3.74 -3.96,3.74 h -13.86 c -2.5,0 -3.74,-1.24 -3.74,-3.74 v -73.48 c 0,-10.85 -5.36,-16.28 -16.06,-16.28 h -10.34 c -12.03,0 -18.04,6.24 -18.04,18.7 v 71.06 c 0,2.5 -1.25,3.74 -3.74,3.74 z"
   class="st2" />
	<path
   style="fill:#ffffff"
   id="path2048"
   d="m 459.74,317.87 h -13.86 c -2.5,0 -3.74,-1.24 -3.74,-3.74 V 166.95 c 0,-2.49 1.24,-3.74 3.74,-3.74 h 13.86 c 2.49,0 3.74,1.25 3.74,3.74 v 147.18 c 0,2.5 -1.25,3.74 -3.74,3.74 z m 46.2,-112.2 h 15.84 c 1.32,0 2.23,0.41 2.75,1.21 0.51,0.81 0.33,1.87 -0.55,3.19 l -31.02,49.28 v 0.88 l 33.44,53.24 c 0.73,1.17 0.84,2.2 0.33,3.08 -0.52,0.88 -1.58,1.32 -3.19,1.32 h -14.3 c -3.38,0 -5.87,-1.24 -7.48,-3.74 l -31.02,-50.82 c -1.03,-1.9 -1.03,-3.88 0,-5.94 l 28.82,-48.18 c 1.31,-2.34 3.44,-3.52 6.38,-3.52 z"
   class="st2" />
</g>
<g
   id="g2062">
	<path
   style="fill:#ffffff"
   id="path2052"
   d="M 111.69,450.24 V 327.45 c 0,-2.08 1.04,-3.12 3.12,-3.12 h 11.56 c 2.08,0 3.12,1.04 3.12,3.12 v 41.48 h 0.73 c 3.06,-6.61 9.24,-9.91 18.54,-9.91 h 8.08 c 9.05,0 16.09,2.48 21.11,7.43 5.02,4.96 7.53,11.9 7.53,20.83 v 37.63 c 0,8.93 -2.51,15.91 -7.53,20.92 -5.02,5.02 -12.05,7.53 -21.11,7.53 h -42.03 c -2.08,0 -3.12,-1.04 -3.12,-3.12 z m 19.82,-12.48 h 22.76 c 8.81,0 13.21,-4.53 13.21,-13.58 v -35.97 c 0,-9.05 -4.41,-13.58 -13.21,-13.58 h -9.73 c -10.03,0 -15.05,5.14 -15.05,15.42 v 45.7 c 0,1.34 0.67,2.01 2.02,2.01 z"
   class="st2" />
	<path
   style="fill:#ffffff"
   id="path2054"
   d="m 249.53,453.36 h -16.15 c -9.06,0 -16.06,-2.51 -21.02,-7.53 -4.96,-5.02 -7.43,-11.99 -7.43,-20.92 V 388.2 c 0,-9.05 2.48,-16.06 7.43,-21.02 4.96,-4.96 11.96,-7.43 21.02,-7.43 h 16.15 c 8.93,0 15.94,2.48 21.02,7.43 5.08,4.96 7.62,11.96 7.62,21.02 v 36.71 c 0,8.93 -2.54,15.91 -7.62,20.92 -5.09,5.03 -12.09,7.53 -21.02,7.53 z m -13.58,-15.6 h 11.2 c 8.81,0 13.21,-4.47 13.21,-13.4 v -35.61 c 0,-8.93 -4.41,-13.4 -13.21,-13.4 h -11.2 c -4.65,0 -8.02,1.07 -10.09,3.21 -2.08,2.14 -3.12,5.54 -3.12,10.19 v 35.61 c 0,4.65 1.04,8.05 3.12,10.19 2.07,2.14 5.43,3.21 10.09,3.21 z"
   class="st2" />
	<path
   style="fill:#ffffff"
   id="path2056"
   d="m 333.04,453.36 h -7.16 c -9.06,0 -16.06,-2.51 -21.02,-7.53 -4.96,-5.02 -7.43,-11.99 -7.43,-20.92 V 388.2 c 0,-9.05 2.48,-16.06 7.43,-21.02 4.96,-4.96 11.96,-7.43 21.02,-7.43 h 41.11 c 2.2,0 3.3,1.04 3.3,3.12 v 87.37 c 0,2.08 -1.1,3.12 -3.3,3.12 h -11.56 c -2.08,0 -3.12,-1.04 -3.12,-3.12 v -6.61 h -0.73 c -2.94,6.49 -9.12,9.73 -18.54,9.73 z m 19.27,-31.2 v -44.97 c 0,-1.22 -0.67,-1.84 -2.02,-1.84 h -21.84 c -8.81,0 -13.21,4.53 -13.21,13.58 v 35.24 c 0,9.06 4.41,13.58 13.21,13.58 h 8.81 c 10.03,0.01 15.05,-5.19 15.05,-15.59 z"
   class="st2" />
	<path
   style="fill:#ffffff"
   id="path2058"
   d="m 407.92,453.36 h -11.56 c -2.08,0 -3.12,-1.04 -3.12,-3.12 v -87.37 c 0,-2.08 1.04,-3.12 3.12,-3.12 h 11.56 c 2.08,0 3.12,1.04 3.12,3.12 v 6.97 h 0.73 c 1.22,-3.06 3.58,-5.51 7.07,-7.34 3.49,-1.84 7.37,-2.75 11.66,-2.75 h 6.79 c 2.08,0 3.12,1.04 3.12,3.12 v 9.54 c 0,2.33 -1.04,3.3 -3.12,2.94 h -11.01 c -10.16,0 -15.23,5.57 -15.23,16.7 v 58.18 c -0.01,2.09 -1.05,3.13 -3.13,3.13 z"
   class="st2" />
	<path
   style="fill:#ffffff"
   id="path2060"
   d="m 489.6,453.36 h -9.36 c -8.81,0 -15.57,-2.48 -20.28,-7.43 -4.71,-4.96 -7.07,-11.96 -7.07,-21.02 V 388.2 c 0,-9.18 2.35,-16.21 7.07,-21.11 4.71,-4.89 11.47,-7.34 20.28,-7.34 h 9.36 c 9.42,0 15.54,3.24 18.35,9.73 h 0.73 v -42.03 c 0,-2.08 1.04,-3.12 3.12,-3.12 h 11.75 c 2.08,0 3.12,1.04 3.12,3.12 v 122.79 c 0,2.08 -1.04,3.12 -3.12,3.12 H 511.8 c -2.08,0 -3.12,-1.04 -3.12,-3.12 v -6.61 h -0.73 c -2.82,6.49 -8.93,9.73 -18.35,9.73 z m 19.08,-31.2 v -31.2 c 0,-10.4 -5.02,-15.6 -15.05,-15.6 h -9.73 c -8.81,0 -13.21,4.53 -13.21,13.58 v 35.24 c 0,9.06 4.41,13.58 13.21,13.58 h 9.73 c 10.03,0 15.05,-5.2 15.05,-15.6 z"
   class="st2" />
</g>
<path
   style="stroke:#ffffff"
   id="path2064"
   d="m 148.34,139.47 c 0,15.65 -12.69,28.33 -28.33,28.33 -15.65,0 -28.33,-12.69 -28.33,-28.33 0,-15.65 12.69,-28.33 28.33,-28.33 15.65,-0.01 28.33,12.68 28.33,28.33 z"
   class="st3" />
<path
   style="stroke:#ffffff"
   id="path2066"
   d="m 94.07,157.32 c 0,0 18.33,12.33 22.33,52.33 3.28,32.78 -4.5,-38.83 -4.5,-38.83"
   class="st4" />
</svg>
