<?xml version="1.0" encoding="UTF-8" standalone="no"?><!-- Generator: Gravit.io --><svg xmlns="http://www.w3.org/2000/svg" xmlns:xlink="http://www.w3.org/1999/xlink" style="isolation:isolate" viewBox="12.5 0 51 163.5" width="51pt" height="163.5pt"><g><clipPath id="_clipPath_oiDhwUFeeX0nOg1Jow7HjZa8GqD2VjVg"><rect x="40" y="0" width="23.5" height="163.5" transform="matrix(1,0,0,1,0,0)" fill="rgb(255,255,255)"/></clipPath><g clip-path="url(#_clipPath_oiDhwUFeeX0nOg1Jow7HjZa8GqD2VjVg)"><clipPath id="_clipPath_aLGnjLCwOzgAr0BIVvkPPmgOialqj0X0"><rect x="-25" y="-97.5" width="460.667" height="816.667" transform="matrix(1,0,0,1,0,0)" fill="rgb(255,255,255)"/></clipPath><g clip-path="url(#_clipPath_aLGnjLCwOzgAr0BIVvkPPmgOialqj0X0)"><g><clipPath id="_clipPath_8GZ9MswtU8F3DIABBhg7pRJbYvjiINgi"><rect x="-25" y="-97.5" width="460.667" height="816.667" transform="matrix(1,0,0,1,0,0)" fill="rgb(255,255,255)"/></clipPath><g clip-path="url(#_clipPath_8GZ9MswtU8F3DIABBhg7pRJbYvjiINgi)"><g><g><path d=" M -25 310.833 L -25 -97.5 L 205.333 -97.5 L 435.667 -97.5 L 435.667 310.833 L 435.667 719.167 L 205.333 719.167 L -25 719.167 L -25 310.833 Z  M 17.188 688.259 C 21.72 686.341 23.655 680.989 21.396 676.622 C 18.493 671.007 9.393 671.182 6.677 676.905 C 3.292 684.038 10.011 691.296 17.188 688.259 Z  M 400.793 687.479 C 407.225 683.264 403.771 672.5 395.986 672.5 C 390.839 672.5 387.667 675.758 387.667 681.044 C 387.667 687.371 395.269 691.098 400.793 687.479 Z  M 57 680.472 L 57 675.111 L 51.833 675.305 L 46.667 675.5 L 46.472 680.667 L 46.277 685.833 L 51.639 685.833 L 57 685.833 L 57 680.472 Z  M 85 680.5 L 85 675.167 L 79.667 675.167 L 74.333 675.167 L 74.333 680.5 L 74.333 685.833 L 79.667 685.833 L 85 685.833 L 85 680.5 Z  M 112.861 680.667 L 112.667 675.5 L 107.5 675.305 L 102.333 675.111 L 102.333 680.472 L 102.333 685.833 L 107.695 685.833 L 113.056 685.833 L 112.861 680.667 Z  M 140.861 680.667 L 140.667 675.5 L 135.5 675.305 L 130.333 675.111 L 130.333 680.472 L 130.333 685.833 L 135.695 685.833 L 141.056 685.833 L 140.861 680.667 Z  M 168.333 680.472 L 168.333 675.111 L 163.167 675.305 L 158 675.5 L 157.805 680.667 L 157.611 685.833 L 162.972 685.833 L 168.333 685.833 L 168.333 680.472 Z  M 251.667 680.5 L 251.667 675.167 L 246.667 675.167 L 241.667 675.167 L 241.667 680.5 L 241.667 685.833 L 246.667 685.833 L 251.667 685.833 L 251.667 680.5 Z  M 279.667 680.472 L 279.667 675.111 L 274.5 675.305 L 269.333 675.5 L 269.139 680.667 L 268.944 685.833 L 274.305 685.833 L 279.667 685.833 L 279.667 680.472 Z  M 307.667 680.472 L 307.667 675.111 L 302.5 675.305 L 297.333 675.5 L 297.139 680.667 L 296.944 685.833 L 302.305 685.833 L 307.667 685.833 L 307.667 680.472 Z  M 335.528 680.667 L 335.333 675.5 L 330.167 675.305 L 325 675.111 L 325 680.472 L 325 685.833 L 330.361 685.833 L 335.723 685.833 L 335.528 680.667 Z  M 363.528 680.667 L 363.333 675.5 L 358.167 675.305 L 353 675.111 L 353 680.472 L 353 685.833 L 358.361 685.833 L 363.723 685.833 L 363.528 680.667 Z  M 20.144 658.242 C 23.732 654.327 22.817 647.819 18.355 645.511 C 13.057 642.771 6.647 645.88 5.886 651.559 C 4.787 659.748 14.564 664.331 20.144 658.242 Z  M 400.207 659.816 C 404.94 656.931 405.508 650.491 401.366 646.667 C 397.503 643.099 390.978 644.031 388.678 648.478 C 384.674 656.221 392.875 664.286 400.207 659.816 Z  M 57 652.833 L 57 647.833 L 51.667 647.833 L 46.333 647.833 L 46.333 652.833 L 46.333 657.833 L 51.667 657.833 L 57 657.833 L 57 652.833 Z  M 85 652.833 L 85 647.833 L 79.667 647.833 L 74.333 647.833 L 74.333 652.833 L 74.333 657.833 L 79.667 657.833 L 85 657.833 L 85 652.833 Z  M 113 652.833 L 113 647.833 L 107.667 647.833 L 102.333 647.833 L 102.333 652.833 L 102.333 657.833 L 107.667 657.833 L 113 657.833 L 113 652.833 Z  M 141 652.833 L 141 647.833 L 135.667 647.833 L 130.333 647.833 L 130.333 652.833 L 130.333 657.833 L 135.667 657.833 L 141 657.833 L 141 652.833 Z  M 168.333 652.833 L 168.333 647.833 L 163 647.833 L 157.667 647.833 L 157.667 652.833 L 157.667 657.833 L 163 657.833 L 168.333 657.833 L 168.333 652.833 Z  M 251.667 652.833 L 251.667 647.833 L 246.667 647.833 L 241.667 647.833 L 241.667 652.833 L 241.667 657.833 L 246.667 657.833 L 251.667 657.833 L 251.667 652.833 Z  M 279.667 652.833 L 279.667 647.833 L 274.333 647.833 L 269 647.833 L 269 652.833 L 269 657.833 L 274.333 657.833 L 279.667 657.833 L 279.667 652.833 Z  M 307.667 652.833 L 307.667 647.833 L 302.333 647.833 L 297 647.833 L 297 652.833 L 297 657.833 L 302.333 657.833 L 307.667 657.833 L 307.667 652.833 Z  M 335.667 652.833 L 335.667 647.833 L 330.333 647.833 L 325 647.833 L 325 652.833 L 325 657.833 L 330.333 657.833 L 335.667 657.833 L 335.667 652.833 Z  M 363.667 652.833 L 363.667 647.833 L 358.333 647.833 L 353 647.833 L 353 652.833 L 353 657.833 L 358.333 657.833 L 363.667 657.833 L 363.667 652.833 Z  M 18.307 632.076 C 22.844 629.396 23.735 623.343 20.166 619.449 C 14.683 613.465 5.069 617.679 5.886 625.708 C 6.498 631.715 13.147 635.124 18.307 632.076 Z  M 399.647 632.314 C 403.813 630.206 405.432 624.643 403.027 620.699 C 398.621 613.472 387.667 616.399 387.667 624.803 C 387.667 631.185 394.014 635.164 399.647 632.314 Z  M 57 624.833 L 57 619.833 L 51.667 619.833 L 46.333 619.833 L 46.333 624.833 L 46.333 629.833 L 51.667 629.833 L 57 629.833 L 57 624.833 Z  M 85 624.833 L 85 619.833 L 79.667 619.833 L 74.333 619.833 L 74.333 624.833 L 74.333 629.833 L 79.667 629.833 L 85 629.833 L 85 624.833 Z  M 113 624.833 L 113 619.833 L 107.667 619.833 L 102.333 619.833 L 102.333 624.833 L 102.333 629.833 L 107.667 629.833 L 113 629.833 L 113 624.833 Z  M 141 624.833 L 141 619.833 L 135.667 619.833 L 130.333 619.833 L 130.333 624.833 L 130.333 629.833 L 135.667 629.833 L 141 629.833 L 141 624.833 Z  M 168.333 624.833 L 168.333 619.833 L 163 619.833 L 157.667 619.833 L 157.667 624.833 L 157.667 629.833 L 163 629.833 L 168.333 629.833 L 168.333 624.833 Z  M 251.667 624.833 L 251.667 619.833 L 246.667 619.833 L 241.667 619.833 L 241.667 624.833 L 241.667 629.833 L 246.667 629.833 L 251.667 629.833 L 251.667 624.833 Z  M 279.667 624.833 L 279.667 619.833 L 274.333 619.833 L 269 619.833 L 269 624.833 L 269 629.833 L 274.333 629.833 L 279.667 629.833 L 279.667 624.833 Z  M 307.667 624.833 L 307.667 619.833 L 302.333 619.833 L 297 619.833 L 297 624.833 L 297 629.833 L 302.333 629.833 L 307.667 629.833 L 307.667 624.833 Z  M 335.667 624.833 L 335.667 619.833 L 330.333 619.833 L 325 619.833 L 325 624.833 L 325 629.833 L 330.333 629.833 L 335.667 629.833 L 335.667 624.833 Z  M 363.667 624.833 L 363.667 619.833 L 358.333 619.833 L 353 619.833 L 353 624.833 L 353 629.833 L 358.333 629.833 L 363.667 629.833 L 363.667 624.833 Z  M 18.355 604.155 C 19.431 603.599 20.766 602.264 21.322 601.188 C 26.22 591.717 13.1 583.686 7.13 592.5 C 2.327 599.59 10.591 608.171 18.355 604.155 L 18.355 604.155 Z  M 401.409 602.977 C 406.188 598.597 404.71 591.359 398.602 589.23 C 391.354 586.703 385.088 594.247 388.675 601.183 C 390.992 605.663 397.481 606.577 401.409 602.977 Z  M 57 597.167 L 57 591.833 L 51.667 591.833 L 46.333 591.833 L 46.333 596.722 C 46.333 602.698 46.135 602.5 52.111 602.5 L 57 602.5 L 57 597.167 Z  M 85 597.167 L 85 591.833 L 79.667 591.833 L 74.333 591.833 L 74.333 597.167 L 74.333 602.5 L 79.667 602.5 L 85 602.5 L 85 597.167 Z  M 112.861 597 L 113.056 591.833 L 107.695 591.833 L 102.333 591.833 L 102.333 597.195 L 102.333 602.556 L 107.5 602.361 L 112.667 602.167 L 112.861 597 Z  M 140.861 597 L 141.056 591.833 L 135.695 591.833 L 130.333 591.833 L 130.333 597.195 L 130.333 602.556 L 135.5 602.361 L 140.667 602.167 L 140.861 597 Z  M 168.333 597.167 L 168.333 591.833 L 163 591.833 L 157.667 591.833 L 157.667 596.722 C 157.667 602.698 157.468 602.5 163.444 602.5 L 168.333 602.5 L 168.333 597.167 Z  M 251.667 597.167 L 251.667 591.833 L 246.667 591.833 L 241.667 591.833 L 241.667 597.167 L 241.667 602.5 L 246.667 602.5 L 251.667 602.5 L 251.667 597.167 Z  M 279.667 597.167 L 279.667 591.833 L 274.333 591.833 L 269 591.833 L 269 596.722 C 269 602.698 268.802 602.5 274.778 602.5 L 279.667 602.5 L 279.667 597.167 Z  M 307.667 597.167 L 307.667 591.833 L 302.333 591.833 L 297 591.833 L 297 597.167 L 297 602.5 L 302.333 602.5 L 307.667 602.5 L 307.667 597.167 Z  M 335.667 597.167 L 335.667 591.833 L 330.333 591.833 L 325 591.833 L 325 597.167 L 325 602.5 L 330.333 602.5 L 335.667 602.5 L 335.667 597.167 Z  M 363.528 597 L 363.723 591.833 L 358.361 591.833 L 353 591.833 L 353 597.195 L 353 602.556 L 358.167 602.361 L 363.333 602.167 L 363.528 597 Z  M 18.819 576.095 C 22.416 573.818 23.402 566.883 20.579 563.714 C 16.511 559.147 8.843 560.188 6.576 565.615 C 3.298 573.46 11.666 580.623 18.819 576.095 Z  M 399.384 576.57 C 408.767 572.308 403.08 557.95 393.288 561.182 C 385.796 563.654 385.749 574.938 393.222 577.102 C 396.19 577.961 396.351 577.947 399.384 576.57 L 399.384 576.57 Z  M 57 569.167 L 57 563.833 L 51.667 563.833 L 46.333 563.833 L 46.333 569.167 L 46.333 574.5 L 51.667 574.5 L 57 574.5 L 57 569.167 Z  M 85 569.167 L 85 563.833 L 79.667 563.833 L 74.333 563.833 L 74.333 569.167 L 74.333 574.5 L 79.667 574.5 L 85 574.5 L 85 569.167 Z  M 113 569.167 L 113 563.833 L 107.667 563.833 L 102.333 563.833 L 102.333 569.167 L 102.333 574.5 L 107.667 574.5 L 113 574.5 L 113 569.167 Z  M 140.667 569.167 L 140.667 564.167 L 135.5 563.972 L 130.333 563.777 L 130.333 569.167 L 130.333 574.556 L 135.5 574.361 L 140.667 574.167 L 140.667 569.167 Z  M 168.333 569.167 L 168.333 563.833 L 163 563.833 L 157.667 563.833 L 157.667 569.167 L 157.667 574.5 L 163 574.5 L 168.333 574.5 L 168.333 569.167 Z  M 251.667 569.167 L 251.667 563.833 L 246.667 563.833 L 241.667 563.833 L 241.667 569.167 L 241.667 574.5 L 246.667 574.5 L 251.667 574.5 L 251.667 569.167 Z  M 279.667 569.167 L 279.667 563.833 L 274.333 563.833 L 269 563.833 L 269 569.167 L 269 574.5 L 274.333 574.5 L 279.667 574.5 L 279.667 569.167 Z  M 307.667 569.167 L 307.667 563.833 L 302.333 563.833 L 297 563.833 L 297 569.167 L 297 574.5 L 302.333 574.5 L 307.667 574.5 L 307.667 569.167 Z  M 335.667 569.167 L 335.667 563.833 L 330.333 563.833 L 325 563.833 L 325 569.167 L 325 574.5 L 330.333 574.5 L 335.667 574.5 L 335.667 569.167 Z  M 363.333 569.167 L 363.333 564.167 L 358.167 563.972 L 353 563.777 L 353 569.167 L 353 574.556 L 358.167 574.361 L 363.333 574.167 L 363.333 569.167 Z  M 17.188 548.925 C 21.72 547.007 23.655 541.656 21.396 537.288 C 18.493 531.674 9.393 531.849 6.677 537.571 C 3.292 544.705 10.011 551.963 17.188 548.925 Z  M 400.793 548.145 C 407.225 543.931 403.771 533.167 395.986 533.167 C 390.839 533.167 387.667 536.425 387.667 541.71 C 387.667 548.038 395.269 551.765 400.793 548.145 L 400.793 548.145 Z  M 57 541.139 L 57 535.777 L 51.833 535.972 L 46.667 536.167 L 46.472 541.333 L 46.277 546.5 L 51.639 546.5 L 57 546.5 L 57 541.139 Z  M 85 541.139 L 85 535.777 L 79.833 535.972 L 74.667 536.167 L 74.472 541.333 L 74.277 546.5 L 79.639 546.5 L 85 546.5 L 85 541.139 Z  M 112.861 541.333 L 112.667 536.167 L 107.5 535.972 L 102.333 535.777 L 102.333 541.139 L 102.333 546.5 L 107.695 546.5 L 113.056 546.5 L 112.861 541.333 Z  M 140.861 541.333 L 140.667 536.167 L 135.5 535.972 L 130.333 535.777 L 130.333 541.139 L 130.333 546.5 L 135.695 546.5 L 141.056 546.5 L 140.861 541.333 Z  M 168.333 541.139 L 168.333 535.777 L 163.167 535.972 L 158 536.167 L 157.805 541.333 L 157.611 546.5 L 162.972 546.5 L 168.333 546.5 L 168.333 541.139 Z  M 251.667 541.167 L 251.667 535.833 L 246.667 535.833 L 241.667 535.833 L 241.667 541.167 L 241.667 546.5 L 246.667 546.5 L 251.667 546.5 L 251.667 541.167 Z  M 279.667 541.139 L 279.667 535.777 L 274.5 535.972 L 269.333 536.167 L 269.139 541.333 L 268.944 546.5 L 274.305 546.5 L 279.667 546.5 L 279.667 541.139 Z  M 307.667 541.139 L 307.667 535.777 L 302.5 535.972 L 297.333 536.167 L 297.139 541.333 L 296.944 546.5 L 302.305 546.5 L 307.667 546.5 L 307.667 541.139 Z  M 335.528 541.333 L 335.333 536.167 L 330.167 535.972 L 325 535.777 L 325 541.139 L 325 546.5 L 330.361 546.5 L 335.723 546.5 L 335.528 541.333 Z  M 363.528 541.333 L 363.333 536.167 L 358.167 535.972 L 353 535.777 L 353 541.139 L 353 546.5 L 358.361 546.5 L 363.723 546.5 L 363.528 541.333 Z  M 20.144 518.909 C 23.732 514.994 22.817 508.485 18.355 506.178 C 13.057 503.438 6.647 506.546 5.886 512.225 C 4.787 520.414 14.564 524.997 20.144 518.909 Z  M 400.207 520.483 C 404.94 517.597 405.508 511.157 401.366 507.333 C 397.503 503.766 390.978 504.698 388.678 509.145 C 384.674 516.888 392.875 524.953 400.207 520.483 Z  M 57 513.5 L 57 508.5 L 51.667 508.5 L 46.333 508.5 L 46.333 513.5 L 46.333 518.5 L 51.667 518.5 L 57 518.5 L 57 513.5 Z  M 85 513.5 L 85 508.5 L 79.667 508.5 L 74.333 508.5 L 74.333 513.5 L 74.333 518.5 L 79.667 518.5 L 85 518.5 L 85 513.5 Z  M 113 513.5 L 113 508.5 L 107.667 508.5 L 102.333 508.5 L 102.333 513.5 L 102.333 518.5 L 107.667 518.5 L 113 518.5 L 113 513.5 Z  M 141 513.5 L 141 508.5 L 135.667 508.5 L 130.333 508.5 L 130.333 513.5 L 130.333 518.5 L 135.667 518.5 L 141 518.5 L 141 513.5 Z  M 168.333 513.5 L 168.333 508.5 L 163 508.5 L 157.667 508.5 L 157.667 513.5 L 157.667 518.5 L 163 518.5 L 168.333 518.5 L 168.333 513.5 Z  M 251.667 513.5 L 251.667 508.5 L 246.667 508.5 L 241.667 508.5 L 241.667 513.5 L 241.667 518.5 L 246.667 518.5 L 251.667 518.5 L 251.667 513.5 Z  M 279.667 513.5 L 279.667 508.5 L 274.333 508.5 L 269 508.5 L 269 513.5 L 269 518.5 L 274.333 518.5 L 279.667 518.5 L 279.667 513.5 Z  M 307.667 513.5 L 307.667 508.5 L 302.333 508.5 L 297 508.5 L 297 513.5 L 297 518.5 L 302.333 518.5 L 307.667 518.5 L 307.667 513.5 Z  M 335.667 513.5 L 335.667 508.5 L 330.333 508.5 L 325 508.5 L 325 513.5 L 325 518.5 L 330.333 518.5 L 335.667 518.5 L 335.667 513.5 Z  M 363.667 513.5 L 363.667 508.5 L 358.333 508.5 L 353 508.5 L 353 513.5 L 353 518.5 L 358.333 518.5 L 363.667 518.5 L 363.667 513.5 Z  M 18.622 492.536 C 22.999 489.65 23.704 483.977 20.166 480.116 C 14.683 474.132 5.069 478.346 5.886 486.375 C 6.514 492.54 13.493 495.916 18.622 492.536 Z  M 400.59 492.441 C 408.818 485.969 401.495 473.706 392.071 478.178 C 386.507 480.818 386.158 489.886 391.508 492.79 C 394.221 494.262 398.484 494.098 400.59 492.441 Z  M 57 485.5 L 57 480.5 L 51.667 480.5 L 46.333 480.5 L 46.333 485.5 L 46.333 490.5 L 51.667 490.5 L 57 490.5 L 57 485.5 Z  M 85 485.5 L 85 480.5 L 79.667 480.5 L 74.333 480.5 L 74.333 485.5 L 74.333 490.5 L 79.667 490.5 L 85 490.5 L 85 485.5 Z  M 113 485.5 L 113 480.5 L 107.667 480.5 L 102.333 480.5 L 102.333 485.5 L 102.333 490.5 L 107.667 490.5 L 113 490.5 L 113 485.5 Z  M 141 485.5 L 141 480.5 L 135.667 480.5 L 130.333 480.5 L 130.333 485.5 L 130.333 490.5 L 135.667 490.5 L 141 490.5 L 141 485.5 Z  M 168.333 485.5 L 168.333 480.5 L 163 480.5 L 157.667 480.5 L 157.667 485.5 L 157.667 490.5 L 163 490.5 L 168.333 490.5 L 168.333 485.5 Z  M 251.667 485.5 L 251.667 480.5 L 246.667 480.5 L 241.667 480.5 L 241.667 485.5 L 241.667 490.5 L 246.667 490.5 L 251.667 490.5 L 251.667 485.5 Z  M 279.667 485.5 L 279.667 480.5 L 274.333 480.5 L 269 480.5 L 269 485.5 L 269 490.5 L 274.333 490.5 L 279.667 490.5 L 279.667 485.5 Z  M 307.667 485.5 L 307.667 480.5 L 302.333 480.5 L 297 480.5 L 297 485.5 L 297 490.5 L 302.333 490.5 L 307.667 490.5 L 307.667 485.5 Z  M 335.667 485.5 L 335.667 480.5 L 330.333 480.5 L 325 480.5 L 325 485.5 L 325 490.5 L 330.333 490.5 L 335.667 490.5 L 335.667 485.5 Z  M 363.667 485.5 L 363.667 480.5 L 358.333 480.5 L 353 480.5 L 353 485.5 L 353 490.5 L 358.333 490.5 L 363.667 490.5 L 363.667 485.5 Z  M 18.355 464.822 C 22.837 462.504 23.77 455.804 20.119 452.153 C 13.229 445.263 2.509 452.645 6.67 461.414 C 8.596 465.472 14.032 467.058 18.355 464.822 Z  M 400.386 464.696 C 406.249 461.233 405.158 452.181 398.602 449.897 C 391.354 447.37 385.088 454.914 388.675 461.85 C 390.618 465.607 396.446 467.024 400.386 464.696 Z  M 57 457.833 L 57 452.5 L 51.667 452.5 L 46.333 452.5 L 46.333 457.389 C 46.333 463.365 46.135 463.167 52.111 463.167 L 57 463.167 L 57 457.833 Z  M 85 457.833 L 85 452.5 L 79.667 452.5 L 74.333 452.5 L 74.333 457.833 L 74.333 463.167 L 79.667 463.167 L 85 463.167 L 85 457.833 Z  M 112.861 457.667 L 113.056 452.5 L 107.695 452.5 L 102.333 452.5 L 102.333 457.861 L 102.333 463.223 L 107.5 463.028 L 112.667 462.833 L 112.861 457.667 Z  M 140.861 457.667 L 141.056 452.5 L 135.695 452.5 L 130.333 452.5 L 130.333 457.861 L 130.333 463.223 L 135.5 463.028 L 140.667 462.833 L 140.861 457.667 Z  M 168.333 457.833 L 168.333 452.5 L 163 452.5 L 157.667 452.5 L 157.667 457.389 C 157.667 463.365 157.468 463.167 163.444 463.167 L 168.333 463.167 L 168.333 457.833 Z  M 251.667 457.833 L 251.667 452.5 L 246.667 452.5 L 241.667 452.5 L 241.667 457.833 L 241.667 463.167 L 246.667 463.167 L 251.667 463.167 L 251.667 457.833 Z  M 279.667 457.833 L 279.667 452.5 L 274.333 452.5 L 269 452.5 L 269 457.389 C 269 463.365 268.802 463.167 274.778 463.167 L 279.667 463.167 L 279.667 457.833 Z  M 307.667 457.833 L 307.667 452.5 L 302.333 452.5 L 297 452.5 L 297 457.833 L 297 463.167 L 302.333 463.167 L 307.667 463.167 L 307.667 457.833 Z  M 335.667 457.833 L 335.667 452.5 L 330.333 452.5 L 325 452.5 L 325 457.833 L 325 463.167 L 330.333 463.167 L 335.667 463.167 L 335.667 457.833 Z  M 363.528 457.667 L 363.723 452.5 L 358.361 452.5 L 353 452.5 L 353 457.861 L 353 463.223 L 358.167 463.028 L 363.333 462.833 L 363.528 457.667 Z  M 18.819 436.762 C 22.416 434.485 23.402 427.55 20.579 424.381 C 15.988 419.227 7.216 421.449 5.972 428.081 C 4.596 435.418 12.503 440.76 18.819 436.762 Z  M 399.384 437.237 C 408.734 432.99 403.045 418.628 393.288 421.848 C 385.796 424.321 385.749 435.605 393.222 437.768 C 396.19 438.628 396.351 438.614 399.384 437.237 L 399.384 437.237 Z  M 57 429.833 L 57 424.5 L 51.667 424.5 L 46.333 424.5 L 46.333 429.833 L 46.333 435.167 L 51.667 435.167 L 57 435.167 L 57 429.833 Z  M 85 429.833 L 85 424.5 L 79.667 424.5 L 74.333 424.5 L 74.333 429.833 L 74.333 435.167 L 79.667 435.167 L 85 435.167 L 85 429.833 Z  M 113 429.833 L 113 424.5 L 107.667 424.5 L 102.333 424.5 L 102.333 429.833 L 102.333 435.167 L 107.667 435.167 L 113 435.167 L 113 429.833 Z  M 140.667 429.833 L 140.667 424.833 L 135.5 424.639 L 130.333 424.444 L 130.333 429.833 L 130.333 435.223 L 135.5 435.028 L 140.667 434.833 L 140.667 429.833 Z  M 168.333 429.833 L 168.333 424.5 L 163 424.5 L 157.667 424.5 L 157.667 429.833 L 157.667 435.167 L 163 435.167 L 168.333 435.167 L 168.333 429.833 Z  M 251.667 429.833 L 251.667 424.5 L 246.667 424.5 L 241.667 424.5 L 241.667 429.833 L 241.667 435.167 L 246.667 435.167 L 251.667 435.167 L 251.667 429.833 Z  M 279.667 429.833 L 279.667 424.5 L 274.333 424.5 L 269 424.5 L 269 429.833 L 269 435.167 L 274.333 435.167 L 279.667 435.167 L 279.667 429.833 Z  M 307.667 429.833 L 307.667 424.5 L 302.333 424.5 L 297 424.5 L 297 429.833 L 297 435.167 L 302.333 435.167 L 307.667 435.167 L 307.667 429.833 Z  M 335.667 429.833 L 335.667 424.5 L 330.333 424.5 L 325 424.5 L 325 429.833 L 325 435.167 L 330.333 435.167 L 335.667 435.167 L 335.667 429.833 Z  M 363.333 429.833 L 363.333 424.833 L 358.167 424.639 L 353 424.444 L 353 429.833 L 353 435.223 L 358.167 435.028 L 363.333 434.833 L 363.333 429.833 Z  M 17.188 409.592 C 21.72 407.674 23.655 402.323 21.396 397.955 C 18.493 392.341 9.393 392.516 6.677 398.238 C 3.292 405.372 10.011 412.63 17.188 409.592 Z  M 400.793 408.812 C 407.225 404.597 403.771 393.833 395.986 393.833 C 390.839 393.833 387.667 397.091 387.667 402.377 C 387.667 408.705 395.269 412.431 400.793 408.812 L 400.793 408.812 Z  M 57 401.805 L 57 396.444 L 51.833 396.639 L 46.667 396.833 L 46.472 402 L 46.277 407.167 L 51.639 407.167 L 57 407.167 L 57 401.805 Z  M 85 401.805 L 85 396.444 L 79.833 396.639 L 74.667 396.833 L 74.472 402 L 74.277 407.167 L 79.639 407.167 L 85 407.167 L 85 401.805 Z  M 112.861 402 L 112.667 396.833 L 107.5 396.639 L 102.333 396.444 L 102.333 401.805 L 102.333 407.167 L 107.695 407.167 L 113.056 407.167 L 112.861 402 Z  M 140.861 402 L 140.667 396.833 L 135.5 396.639 L 130.333 396.444 L 130.333 401.805 L 130.333 407.167 L 135.695 407.167 L 141.056 407.167 L 140.861 402 Z  M 168.333 401.805 L 168.333 396.444 L 163.167 396.639 L 158 396.833 L 157.805 402 L 157.611 407.167 L 162.972 407.167 L 168.333 407.167 L 168.333 401.805 Z  M 251.667 401.833 L 251.667 396.5 L 246.667 396.5 L 241.667 396.5 L 241.667 401.833 L 241.667 407.167 L 246.667 407.167 L 251.667 407.167 L 251.667 401.833 Z  M 279.667 401.805 L 279.667 396.444 L 274.5 396.639 L 269.333 396.833 L 269.139 402 L 268.944 407.167 L 274.305 407.167 L 279.667 407.167 L 279.667 401.805 Z  M 307.667 401.805 L 307.667 396.444 L 302.5 396.639 L 297.333 396.833 L 297.139 402 L 296.944 407.167 L 302.305 407.167 L 307.667 407.167 L 307.667 401.805 Z  M 335.528 402 L 335.333 396.833 L 330.167 396.639 L 325 396.444 L 325 401.805 L 325 407.167 L 330.361 407.167 L 335.723 407.167 L 335.528 402 Z  M 363.528 402 L 363.333 396.833 L 358.167 396.639 L 353 396.444 L 353 401.805 L 353 407.167 L 358.361 407.167 L 363.723 407.167 L 363.528 402 Z  M 20.144 379.575 C 23.732 375.66 22.817 369.152 18.355 366.845 C 13.057 364.105 6.647 367.213 5.886 372.892 C 4.787 381.081 14.564 385.664 20.144 379.575 Z  M 400.401 380.978 C 403.066 379.188 404.786 375.06 404.064 372.185 C 402.297 365.143 391.92 363.542 388.678 369.812 C 384.611 377.676 393.174 385.833 400.401 380.978 Z  M 57 374.167 L 57 369.167 L 51.667 369.167 L 46.333 369.167 L 46.333 374.167 L 46.333 379.167 L 51.667 379.167 L 57 379.167 L 57 374.167 Z  M 85 374.167 L 85 369.167 L 79.667 369.167 L 74.333 369.167 L 74.333 374.167 L 74.333 379.167 L 79.667 379.167 L 85 379.167 L 85 374.167 Z  M 113 374.167 L 113 369.167 L 107.667 369.167 L 102.333 369.167 L 102.333 374.167 L 102.333 379.167 L 107.667 379.167 L 113 379.167 L 113 374.167 Z  M 141 374.167 L 141 369.167 L 135.667 369.167 L 130.333 369.167 L 130.333 374.167 L 130.333 379.167 L 135.667 379.167 L 141 379.167 L 141 374.167 Z  M 168.333 374.167 L 168.333 369.167 L 163 369.167 L 157.667 369.167 L 157.667 374.167 L 157.667 379.167 L 163 379.167 L 168.333 379.167 L 168.333 374.167 Z  M 251.667 374.167 L 251.667 369.167 L 246.667 369.167 L 241.667 369.167 L 241.667 374.167 L 241.667 379.167 L 246.667 379.167 L 251.667 379.167 L 251.667 374.167 Z  M 279.667 374.167 L 279.667 369.167 L 274.333 369.167 L 269 369.167 L 269 374.167 L 269 379.167 L 274.333 379.167 L 279.667 379.167 L 279.667 374.167 Z  M 307.667 374.167 L 307.667 369.167 L 302.333 369.167 L 297 369.167 L 297 374.167 L 297 379.167 L 302.333 379.167 L 307.667 379.167 L 307.667 374.167 Z  M 335.667 374.167 L 335.667 369.167 L 330.333 369.167 L 325 369.167 L 325 374.167 L 325 379.167 L 330.333 379.167 L 335.667 379.167 L 335.667 374.167 Z  M 363.667 374.167 L 363.667 369.167 L 358.333 369.167 L 353 369.167 L 353 374.167 L 353 379.167 L 358.333 379.167 L 363.667 379.167 L 363.667 374.167 Z  M 18.355 353.489 C 22.803 351.189 23.732 344.673 20.166 340.782 C 14.683 334.799 5.069 339.013 5.886 347.042 C 6.496 353.034 12.865 356.328 18.355 353.489 L 18.355 353.489 Z  M 400.59 353.108 C 408.818 346.635 401.495 334.373 392.071 338.844 C 386.507 341.485 386.158 350.553 391.508 353.456 C 394.221 354.928 398.484 354.765 400.59 353.108 Z  M 57 346.167 L 57 341.167 L 51.667 341.167 L 46.333 341.167 L 46.333 346.167 L 46.333 351.167 L 51.667 351.167 L 57 351.167 L 57 346.167 Z  M 85 346.167 L 85 341.167 L 79.667 341.167 L 74.333 341.167 L 74.333 346.167 L 74.333 351.167 L 79.667 351.167 L 85 351.167 L 85 346.167 Z  M 113 346.167 L 113 341.167 L 107.667 341.167 L 102.333 341.167 L 102.333 346.167 L 102.333 351.167 L 107.667 351.167 L 113 351.167 L 113 346.167 Z  M 141 346.167 L 141 341.167 L 135.667 341.167 L 130.333 341.167 L 130.333 346.167 L 130.333 351.167 L 135.667 351.167 L 141 351.167 L 141 346.167 Z  M 168.333 346.167 L 168.333 341.167 L 163 341.167 L 157.667 341.167 L 157.667 346.167 L 157.667 351.167 L 163 351.167 L 168.333 351.167 L 168.333 346.167 Z  M 251.667 346.167 L 251.667 341.167 L 246.667 341.167 L 241.667 341.167 L 241.667 346.167 L 241.667 351.167 L 246.667 351.167 L 251.667 351.167 L 251.667 346.167 Z  M 279.667 346.167 L 279.667 341.167 L 274.333 341.167 L 269 341.167 L 269 346.167 L 269 351.167 L 274.333 351.167 L 279.667 351.167 L 279.667 346.167 Z  M 307.667 346.167 L 307.667 341.167 L 302.333 341.167 L 297 341.167 L 297 346.167 L 297 351.167 L 302.333 351.167 L 307.667 351.167 L 307.667 346.167 Z  M 335.667 346.167 L 335.667 341.167 L 330.333 341.167 L 325 341.167 L 325 346.167 L 325 351.167 L 330.333 351.167 L 335.667 351.167 L 335.667 346.167 Z  M 363.667 346.167 L 363.667 341.167 L 358.333 341.167 L 353 341.167 L 353 346.167 L 353 351.167 L 358.333 351.167 L 363.667 351.167 L 363.667 346.167 Z  M 18.355 325.489 C 22.837 323.171 23.77 316.47 20.119 312.819 C 13.229 305.929 2.509 313.311 6.67 322.08 C 8.596 326.139 14.032 327.724 18.355 325.489 Z  M 400.386 325.363 C 406.21 321.923 405.095 312.873 398.564 310.563 C 391.367 308.018 385.097 315.597 388.675 322.516 C 390.618 326.274 396.446 327.69 400.386 325.363 L 400.386 325.363 Z  M 57 318.5 L 57 313.167 L 51.667 313.167 L 46.333 313.167 L 46.333 318.056 C 46.333 324.032 46.135 323.833 52.111 323.833 L 57 323.833 L 57 318.5 Z  M 85 318.5 L 85 313.167 L 79.667 313.167 L 74.333 313.167 L 74.333 318.5 L 74.333 323.833 L 79.667 323.833 L 85 323.833 L 85 318.5 Z  M 112.861 318.333 L 113.056 313.167 L 107.695 313.167 L 102.333 313.167 L 102.333 318.528 L 102.333 323.889 L 107.5 323.695 L 112.667 323.5 L 112.861 318.333 Z  M 140.861 318.333 L 141.056 313.167 L 135.695 313.167 L 130.333 313.167 L 130.333 318.528 L 130.333 323.889 L 135.5 323.695 L 140.667 323.5 L 140.861 318.333 Z  M 168.333 318.5 L 168.333 313.167 L 163 313.167 L 157.667 313.167 L 157.667 318.056 C 157.667 324.032 157.468 323.833 163.444 323.833 L 168.333 323.833 L 168.333 318.5 Z  M 251.667 318.5 L 251.667 313.167 L 246.667 313.167 L 241.667 313.167 L 241.667 318.5 L 241.667 323.833 L 246.667 323.833 L 251.667 323.833 L 251.667 318.5 Z  M 279.667 318.5 L 279.667 313.167 L 274.333 313.167 L 269 313.167 L 269 318.056 C 269 324.032 268.802 323.833 274.778 323.833 L 279.667 323.833 L 279.667 318.5 Z  M 307.667 318.5 L 307.667 313.167 L 302.333 313.167 L 297 313.167 L 297 318.5 L 297 323.833 L 302.333 323.833 L 307.667 323.833 L 307.667 318.5 Z  M 335.667 318.5 L 335.667 313.167 L 330.333 313.167 L 325 313.167 L 325 318.5 L 325 323.833 L 330.333 323.833 L 335.667 323.833 L 335.667 318.5 Z  M 363.528 318.333 L 363.723 313.167 L 358.361 313.167 L 353 313.167 L 353 318.528 L 353 323.889 L 358.167 323.695 L 363.333 323.5 L 363.528 318.333 Z  M 18.536 297.712 C 19.197 297.365 20.321 296.126 21.033 294.957 C 26.1 286.647 15.469 277.834 8.374 284.462 C 1.238 291.128 9.8 302.292 18.536 297.712 Z  M 399.384 297.903 C 408.478 293.773 403.181 279.571 393.616 282.437 C 384.389 285.201 386.283 298.429 396 299.092 C 396.367 299.117 397.889 298.582 399.384 297.903 L 399.384 297.903 Z  M 57 290.5 L 57 285.167 L 51.667 285.167 L 46.333 285.167 L 46.333 290.5 L 46.333 295.833 L 51.667 295.833 L 57 295.833 L 57 290.5 Z  M 85 290.5 L 85 285.167 L 79.667 285.167 L 74.333 285.167 L 74.333 290.5 L 74.333 295.833 L 79.667 295.833 L 85 295.833 L 85 290.5 Z  M 113 290.5 L 113 285.167 L 107.667 285.167 L 102.333 285.167 L 102.333 290.5 L 102.333 295.833 L 107.667 295.833 L 113 295.833 L 113 290.5 Z  M 140.667 290.5 L 140.667 285.5 L 135.5 285.305 L 130.333 285.111 L 130.333 290.5 L 130.333 295.889 L 135.5 295.695 L 140.667 295.5 L 140.667 290.5 Z  M 168.333 290.5 L 168.333 285.167 L 163 285.167 L 157.667 285.167 L 157.667 290.5 L 157.667 295.833 L 163 295.833 L 168.333 295.833 L 168.333 290.5 Z  M 251.667 290.5 L 251.667 285.167 L 246.667 285.167 L 241.667 285.167 L 241.667 290.5 L 241.667 295.833 L 246.667 295.833 L 251.667 295.833 L 251.667 290.5 Z  M 279.667 290.5 L 279.667 285.167 L 274.333 285.167 L 269 285.167 L 269 290.5 L 269 295.833 L 274.333 295.833 L 279.667 295.833 L 279.667 290.5 Z  M 307.667 290.5 L 307.667 285.167 L 302.333 285.167 L 297 285.167 L 297 290.5 L 297 295.833 L 302.333 295.833 L 307.667 295.833 L 307.667 290.5 Z  M 335.667 290.5 L 335.667 285.167 L 330.333 285.167 L 325 285.167 L 325 290.5 L 325 295.833 L 330.333 295.833 L 335.667 295.833 L 335.667 290.5 Z  M 363.333 290.5 L 363.333 285.5 L 358.167 285.305 L 353 285.111 L 353 290.5 L 353 295.889 L 358.167 295.695 L 363.333 295.5 L 363.333 290.5 Z  M 17.641 270.18 C 25.656 266.035 22.955 254.5 13.969 254.5 C 7.457 254.5 3.606 261.445 7.016 267.038 C 9.245 270.694 13.954 272.087 17.641 270.18 Z  M 400.793 269.479 C 407.046 265.382 403.789 254.5 396.31 254.5 C 390.966 254.5 387.667 257.761 387.667 263.044 C 387.667 269.371 395.269 273.098 400.793 269.479 L 400.793 269.479 Z  M 57 262.472 L 57 257.111 L 51.833 257.305 L 46.667 257.5 L 46.472 262.667 L 46.277 267.833 L 51.639 267.833 L 57 267.833 L 57 262.472 Z  M 85 262.5 L 85 257.167 L 79.667 257.167 L 74.333 257.167 L 74.333 262.5 L 74.333 267.833 L 79.667 267.833 L 85 267.833 L 85 262.5 Z  M 112.861 262.667 L 112.667 257.5 L 107.5 257.305 L 102.333 257.111 L 102.333 262.472 L 102.333 267.833 L 107.695 267.833 L 113.056 267.833 L 112.861 262.667 Z  M 140.861 262.667 L 140.667 257.5 L 135.5 257.305 L 130.333 257.111 L 130.333 262.472 L 130.333 267.833 L 135.695 267.833 L 141.056 267.833 L 140.861 262.667 Z  M 168.333 262.472 L 168.333 257.111 L 163.167 257.305 L 158 257.5 L 157.805 262.667 L 157.611 267.833 L 162.972 267.833 L 168.333 267.833 L 168.333 262.472 Z  M 251.667 262.5 L 251.667 257.167 L 246.667 257.167 L 241.667 257.167 L 241.667 262.5 L 241.667 267.833 L 246.667 267.833 L 251.667 267.833 L 251.667 262.5 Z  M 279.667 262.472 L 279.667 257.11 L 274.5 257.305 L 269.333 257.5 L 269.139 262.667 L 268.944 267.833 L 274.305 267.833 L 279.667 267.833 L 279.667 262.472 Z  M 307.667 262.472 L 307.667 257.11 L 302.5 257.305 L 297.333 257.5 L 297.139 262.667 L 296.944 267.833 L 302.305 267.833 L 307.667 267.833 L 307.667 262.472 Z  M 335.528 262.667 L 335.333 257.5 L 330.167 257.305 L 325 257.111 L 325 262.472 L 325 267.833 L 330.361 267.833 L 335.723 267.833 L 335.528 262.667 Z  M 363.528 262.667 L 363.333 257.5 L 358.167 257.305 L 353 257.111 L 353 262.472 L 353 267.833 L 358.361 267.833 L 363.723 267.833 L 363.528 262.667 Z  M 20.144 240.242 C 23.732 236.327 22.817 229.819 18.355 227.511 C 13.057 224.771 6.647 227.88 5.886 233.559 C 4.787 241.748 14.564 246.331 20.144 240.242 Z  M 399.729 242.134 C 407.37 238.183 404.444 226.548 395.8 226.51 C 392.811 226.497 389.898 228.12 388.678 230.478 C 384.815 237.949 392.384 245.933 399.729 242.134 Z  M 57 234.833 L 57 229.833 L 51.667 229.833 L 46.333 229.833 L 46.333 234.833 L 46.333 239.833 L 51.667 239.833 L 57 239.833 L 57 234.833 Z  M 85 234.833 L 85 229.833 L 79.667 229.833 L 74.333 229.833 L 74.333 234.833 L 74.333 239.833 L 79.667 239.833 L 85 239.833 L 85 234.833 Z  M 113 234.833 L 113 229.833 L 107.667 229.833 L 102.333 229.833 L 102.333 234.833 L 102.333 239.833 L 107.667 239.833 L 113 239.833 L 113 234.833 Z  M 141 234.833 L 141 229.833 L 135.667 229.833 L 130.333 229.833 L 130.333 234.833 L 130.333 239.833 L 135.667 239.833 L 141 239.833 L 141 234.833 Z  M 168.333 234.833 L 168.333 229.833 L 163 229.833 L 157.667 229.833 L 157.667 234.833 L 157.667 239.833 L 163 239.833 L 168.333 239.833 L 168.333 234.833 Z  M 251.667 234.833 L 251.667 229.833 L 246.667 229.833 L 241.667 229.833 L 241.667 234.833 L 241.667 239.833 L 246.667 239.833 L 251.667 239.833 L 251.667 234.833 Z  M 279.667 234.833 L 279.667 229.833 L 274.333 229.833 L 269 229.833 L 269 234.833 L 269 239.833 L 274.333 239.833 L 279.667 239.833 L 279.667 234.833 Z  M 307.667 234.833 L 307.667 229.833 L 302.333 229.833 L 297 229.833 L 297 234.833 L 297 239.833 L 302.333 239.833 L 307.667 239.833 L 307.667 234.833 Z  M 335.667 234.833 L 335.667 229.833 L 330.333 229.833 L 325 229.833 L 325 234.833 L 325 239.833 L 330.333 239.833 L 335.667 239.833 L 335.667 234.833 Z  M 363.667 234.833 L 363.667 229.833 L 358.333 229.833 L 353 229.833 L 353 234.833 L 353 239.833 L 358.333 239.833 L 363.667 239.833 L 363.667 234.833 Z  M 18.355 214.155 C 22.803 211.855 23.732 205.34 20.166 201.449 C 14.638 195.417 5.067 199.684 5.898 207.81 C 6.502 213.726 12.892 216.98 18.355 214.155 Z  M 400.59 213.774 C 408.818 207.302 401.495 195.039 392.071 199.511 C 386.507 202.151 386.158 211.22 391.508 214.123 C 394.221 215.595 398.484 215.431 400.59 213.774 L 400.59 213.774 Z  M 57 206.833 L 57 201.833 L 51.667 201.833 L 46.333 201.833 L 46.333 206.833 L 46.333 211.833 L 51.667 211.833 L 57 211.833 L 57 206.833 Z  M 85 206.833 L 85 201.833 L 79.667 201.833 L 74.333 201.833 L 74.333 206.833 L 74.333 211.833 L 79.667 211.833 L 85 211.833 L 85 206.833 Z  M 113 206.833 L 113 201.833 L 107.667 201.833 L 102.333 201.833 L 102.333 206.833 L 102.333 211.833 L 107.667 211.833 L 113 211.833 L 113 206.833 Z  M 141 206.833 L 141 201.833 L 135.667 201.833 L 130.333 201.833 L 130.333 206.833 L 130.333 211.833 L 135.667 211.833 L 141 211.833 L 141 206.833 Z  M 168.333 206.833 L 168.333 201.833 L 163 201.833 L 157.667 201.833 L 157.667 206.833 L 157.667 211.833 L 163 211.833 L 168.333 211.833 L 168.333 206.833 Z  M 251.667 206.833 L 251.667 201.833 L 246.667 201.833 L 241.667 201.833 L 241.667 206.833 L 241.667 211.833 L 246.667 211.833 L 251.667 211.833 L 251.667 206.833 Z  M 279.667 206.833 L 279.667 201.833 L 274.333 201.833 L 269 201.833 L 269 206.833 L 269 211.833 L 274.333 211.833 L 279.667 211.833 L 279.667 206.833 Z  M 307.667 206.833 L 307.667 201.833 L 302.333 201.833 L 297 201.833 L 297 206.833 L 297 211.833 L 302.333 211.833 L 307.667 211.833 L 307.667 206.833 Z  M 335.667 206.833 L 335.667 201.833 L 330.333 201.833 L 325 201.833 L 325 206.833 L 325 211.833 L 330.333 211.833 L 335.667 211.833 L 335.667 206.833 Z  M 363.667 206.833 L 363.667 201.833 L 358.333 201.833 L 353 201.833 L 353 206.833 L 353 211.833 L 358.333 211.833 L 363.667 211.833 L 363.667 206.833 Z  M 18.355 186.155 C 22.837 183.838 23.77 177.137 20.119 173.486 C 13.229 166.596 2.509 173.978 6.67 182.747 C 8.596 186.805 14.032 188.391 18.355 186.155 Z  M 400.386 186.029 C 406.21 182.589 405.095 173.54 398.564 171.23 C 391.367 168.685 385.097 176.264 388.675 183.183 C 390.618 186.941 396.446 188.357 400.386 186.029 Z  M 57 179.167 L 57 173.833 L 51.667 173.833 L 46.333 173.833 L 46.333 179.167 L 46.333 184.5 L 51.667 184.5 L 57 184.5 L 57 179.167 Z  M 85 179.167 L 85 173.833 L 79.667 173.833 L 74.333 173.833 L 74.333 179.167 L 74.333 184.5 L 79.667 184.5 L 85 184.5 L 85 179.167 Z  M 113 179.167 L 113 173.833 L 107.667 173.833 L 102.333 173.833 L 102.333 179.167 L 102.333 184.5 L 107.667 184.5 L 113 184.5 L 113 179.167 Z  M 140.861 179 L 141.056 173.833 L 135.695 173.833 L 130.333 173.833 L 130.333 179.195 L 130.333 184.556 L 135.5 184.361 L 140.667 184.167 L 140.861 179 Z  M 168.333 179.167 L 168.333 173.833 L 163 173.833 L 157.667 173.833 L 157.667 178.722 C 157.667 181.411 157.867 183.811 158.111 184.056 C 158.356 184.3 160.756 184.5 163.444 184.5 L 168.333 184.5 L 168.333 179.167 Z  M 251.667 179.167 L 251.667 173.833 L 246.667 173.833 L 241.667 173.833 L 241.667 179.167 L 241.667 184.5 L 246.667 184.5 L 251.667 184.5 L 251.667 179.167 Z  M 279.667 179.167 L 279.667 173.833 L 274.333 173.833 L 269 173.833 L 269 179.167 L 269 184.5 L 274.333 184.5 L 279.667 184.5 L 279.667 179.167 Z  M 307.667 179.167 L 307.667 173.833 L 302.333 173.833 L 297 173.833 L 297 179.167 L 297 184.5 L 302.333 184.5 L 307.667 184.5 L 307.667 179.167 Z  M 335.667 179.167 L 335.667 173.833 L 330.333 173.833 L 325 173.833 L 325 179.167 L 325 184.5 L 330.333 184.5 L 335.667 184.5 L 335.667 179.167 Z  M 363.528 179 L 363.723 173.833 L 358.361 173.833 L 353 173.833 L 353 179.195 L 353 184.556 L 358.167 184.361 L 363.333 184.167 L 363.528 179 Z  M 18.536 158.379 C 22.031 156.546 23.33 150.476 21.033 146.709 C 17.422 140.787 8.226 141.921 6.245 148.533 C 3.974 156.111 11.446 162.095 18.536 158.379 L 18.536 158.379 Z  M 400.766 158.04 C 406.015 154.601 405.061 146.298 399.114 143.668 C 393.345 141.116 387.667 144.835 387.667 151.167 C 387.667 158.013 394.964 161.842 400.766 158.04 L 400.766 158.04 Z  M 57 151.167 L 57 145.833 L 51.667 145.833 L 46.333 145.833 L 46.333 151.167 L 46.333 156.5 L 51.667 156.5 L 57 156.5 L 57 151.167 Z  M 85 151.167 L 85 145.833 L 79.667 145.833 L 74.333 145.833 L 74.333 151.167 L 74.333 156.5 L 79.667 156.5 L 85 156.5 L 85 151.167 Z  M 113 151.167 L 113 145.833 L 107.667 145.833 L 102.333 145.833 L 102.333 151.167 L 102.333 156.5 L 107.667 156.5 L 113 156.5 L 113 151.167 Z  M 140.667 151.167 L 140.667 146.167 L 135.5 145.972 L 130.333 145.777 L 130.333 151.167 L 130.333 156.556 L 135.5 156.361 L 140.667 156.167 L 140.667 151.167 Z  M 168.333 151.139 L 168.333 145.777 L 163.167 145.972 L 158 146.167 L 157.805 151.333 L 157.611 156.5 L 162.972 156.5 L 168.333 156.5 L 168.333 151.139 Z  M 251.667 151.167 L 251.667 145.833 L 246.667 145.833 L 241.667 145.833 L 241.667 151.167 L 241.667 156.5 L 246.667 156.5 L 251.667 156.5 L 251.667 151.167 Z  M 279.667 151.167 L 279.667 145.833 L 274.333 145.833 L 269 145.833 L 269 151.167 L 269 156.5 L 274.333 156.5 L 279.667 156.5 L 279.667 151.167 Z  M 307.667 151.167 L 307.667 145.833 L 302.333 145.833 L 297 145.833 L 297 151.167 L 297 156.5 L 302.333 156.5 L 307.667 156.5 L 307.667 151.167 Z  M 335.667 151.167 L 335.667 145.833 L 330.333 145.833 L 325 145.833 L 325 151.167 L 325 156.5 L 330.333 156.5 L 335.667 156.5 L 335.667 151.167 Z  M 363.333 151.167 L 363.333 146.167 L 358.167 145.972 L 353 145.777 L 353 151.167 L 353 156.556 L 358.167 156.361 L 363.333 156.167 L 363.333 151.167 Z  M 17.641 130.847 C 25.656 126.702 22.955 115.167 13.969 115.167 C 7.457 115.167 3.606 122.111 7.016 127.704 C 9.245 131.36 13.954 132.753 17.641 130.847 Z  M 400.748 130.175 C 407.041 126.051 403.823 115.167 396.31 115.167 C 390.989 115.167 387.667 118.429 387.667 123.652 C 387.667 130.1 395.16 133.836 400.748 130.175 Z  M 57 123.139 L 57 117.777 L 51.833 117.972 L 46.667 118.167 L 46.472 123.333 L 46.277 128.5 L 51.639 128.5 L 57 128.5 L 57 123.139 Z  M 85 123.167 L 85 117.833 L 79.667 117.833 L 74.333 117.833 L 74.333 123.167 L 74.333 128.5 L 79.667 128.5 L 85 128.5 L 85 123.167 Z  M 112.861 123.333 L 112.667 118.167 L 107.5 117.972 L 102.333 117.777 L 102.333 123.139 L 102.333 128.5 L 107.695 128.5 L 113.056 128.5 L 112.861 123.333 Z  M 140.861 123.333 L 140.667 118.167 L 135.5 117.972 L 130.333 117.777 L 130.333 123.139 L 130.333 128.5 L 135.695 128.5 L 141.056 128.5 L 140.861 123.333 Z  M 168.333 123.139 L 168.333 117.777 L 163.167 117.972 L 158 118.167 L 157.805 123.333 L 157.611 128.5 L 162.972 128.5 L 168.333 128.5 L 168.333 123.139 Z  M 251.667 123.167 L 251.667 117.833 L 246.667 117.833 L 241.667 117.833 L 241.667 123.167 L 241.667 128.5 L 246.667 128.5 L 251.667 128.5 L 251.667 123.167 Z  M 279.667 123.139 L 279.667 117.777 L 274.5 117.972 L 269.333 118.167 L 269.139 123.333 L 268.944 128.5 L 274.305 128.5 L 279.667 128.5 L 279.667 123.139 Z  M 307.667 123.139 L 307.667 117.777 L 302.5 117.972 L 297.333 118.167 L 297.139 123.333 L 296.944 128.5 L 302.305 128.5 L 307.667 128.5 L 307.667 123.139 Z  M 335.528 123.333 L 335.333 118.167 L 330.167 117.972 L 325 117.777 L 325 123.139 L 325 128.5 L 330.361 128.5 L 335.723 128.5 L 335.528 123.333 Z  M 363.528 123.333 L 363.333 118.167 L 358.167 117.972 L 353 117.777 L 353 123.139 L 353 128.5 L 358.361 128.5 L 363.723 128.5 L 363.528 123.333 Z  M 20.144 100.909 C 23.732 96.994 22.817 90.485 18.355 88.178 C 13.057 85.438 6.647 88.546 5.886 94.225 C 4.787 102.414 14.564 106.997 20.144 100.909 Z  M 399.729 102.801 C 407.37 98.85 404.444 87.215 395.8 87.176 C 392.811 87.163 389.898 88.786 388.678 91.145 C 384.815 98.616 392.384 106.599 399.729 102.801 L 399.729 102.801 Z  M 57 95.5 L 57 90.5 L 51.667 90.5 L 46.333 90.5 L 46.333 95.5 L 46.333 100.5 L 51.667 100.5 L 57 100.5 L 57 95.5 Z  M 85 95.5 L 85 90.5 L 79.667 90.5 L 74.333 90.5 L 74.333 95.5 L 74.333 100.5 L 79.667 100.5 L 85 100.5 L 85 95.5 Z  M 113 95.5 L 113 90.5 L 107.667 90.5 L 102.333 90.5 L 102.333 95.5 L 102.333 100.5 L 107.667 100.5 L 113 100.5 L 113 95.5 Z  M 141 95.5 L 141 90.5 L 135.667 90.5 L 130.333 90.5 L 130.333 95.5 L 130.333 100.5 L 135.667 100.5 L 141 100.5 L 141 95.5 Z  M 168.333 95.5 L 168.333 90.5 L 163 90.5 L 157.667 90.5 L 157.667 95.5 L 157.667 100.5 L 163 100.5 L 168.333 100.5 L 168.333 95.5 Z  M 251.667 95.5 L 251.667 90.5 L 246.667 90.5 L 241.667 90.5 L 241.667 95.5 L 241.667 100.5 L 246.667 100.5 L 251.667 100.5 L 251.667 95.5 Z  M 279.667 95.5 L 279.667 90.5 L 274.333 90.5 L 269 90.5 L 269 95.5 L 269 100.5 L 274.333 100.5 L 279.667 100.5 L 279.667 95.5 Z  M 307.667 95.5 L 307.667 90.5 L 302.333 90.5 L 297 90.5 L 297 95.5 L 297 100.5 L 302.333 100.5 L 307.667 100.5 L 307.667 95.5 Z  M 335.667 95.5 L 335.667 90.5 L 330.333 90.5 L 325 90.5 L 325 95.5 L 325 100.5 L 330.333 100.5 L 335.667 100.5 L 335.667 95.5 Z  M 363.667 95.5 L 363.667 90.5 L 358.333 90.5 L 353 90.5 L 353 95.5 L 353 100.5 L 358.333 100.5 L 363.667 100.5 L 363.667 95.5 Z  M 18.355 74.822 C 22.803 72.522 23.732 66.006 20.166 62.116 C 14.638 56.084 5.067 60.35 5.898 68.477 C 6.502 74.392 12.892 77.647 18.355 74.822 Z  M 400.59 74.441 C 408.818 67.969 401.495 55.706 392.071 60.177 C 386.507 62.818 386.158 71.886 391.508 74.79 C 394.221 76.262 398.484 76.098 400.59 74.441 Z  M 57 67.5 L 57 62.5 L 51.667 62.5 L 46.333 62.5 L 46.333 67.5 L 46.333 72.5 L 51.667 72.5 L 57 72.5 L 57 67.5 Z  M 85 67.5 L 85 62.5 L 79.667 62.5 L 74.333 62.5 L 74.333 67.5 L 74.333 72.5 L 79.667 72.5 L 85 72.5 L 85 67.5 Z  M 113 67.5 L 113 62.5 L 107.667 62.5 L 102.333 62.5 L 102.333 67.5 L 102.333 72.5 L 107.667 72.5 L 113 72.5 L 113 67.5 Z  M 141 67.5 L 141 62.5 L 135.667 62.5 L 130.333 62.5 L 130.333 67.5 L 130.333 72.5 L 135.667 72.5 L 141 72.5 L 141 67.5 Z  M 168.333 67.5 L 168.333 62.5 L 163 62.5 L 157.667 62.5 L 157.667 67.5 L 157.667 72.5 L 163 72.5 L 168.333 72.5 L 168.333 67.5 Z  M 251.667 67.5 L 251.667 62.5 L 246.667 62.5 L 241.667 62.5 L 241.667 67.5 L 241.667 72.5 L 246.667 72.5 L 251.667 72.5 L 251.667 67.5 Z  M 279.667 67.5 L 279.667 62.5 L 274.333 62.5 L 269 62.5 L 269 67.5 L 269 72.5 L 274.333 72.5 L 279.667 72.5 L 279.667 67.5 Z  M 307.667 67.5 L 307.667 62.5 L 302.333 62.5 L 297 62.5 L 297 67.5 L 297 72.5 L 302.333 72.5 L 307.667 72.5 L 307.667 67.5 Z  M 335.667 67.5 L 335.667 62.5 L 330.333 62.5 L 325 62.5 L 325 67.5 L 325 72.5 L 330.333 72.5 L 335.667 72.5 L 335.667 67.5 Z  M 363.667 67.5 L 363.667 62.5 L 358.333 62.5 L 353 62.5 L 353 67.5 L 353 72.5 L 358.333 72.5 L 363.667 72.5 L 363.667 67.5 Z  M 18.355 46.822 C 22.837 44.504 23.77 37.804 20.119 34.153 C 13.229 27.262 2.509 34.645 6.67 43.414 C 8.596 47.472 14.032 49.058 18.355 46.822 L 18.355 46.822 Z  M 400.386 46.696 C 406.21 43.256 405.095 34.206 398.564 31.897 C 391.367 29.352 385.097 36.931 388.675 43.85 C 390.618 47.607 396.446 49.024 400.386 46.696 Z  M 57 39.833 L 57 34.5 L 51.667 34.5 L 46.333 34.5 L 46.333 39.833 L 46.333 45.167 L 51.667 45.167 L 57 45.167 L 57 39.833 Z  M 85 39.833 L 85 34.5 L 79.667 34.5 L 74.333 34.5 L 74.333 39.833 L 74.333 45.167 L 79.667 45.167 L 85 45.167 L 85 39.833 Z  M 113 39.833 L 113 34.5 L 107.667 34.5 L 102.333 34.5 L 102.333 39.833 L 102.333 45.167 L 107.667 45.167 L 113 45.167 L 113 39.833 Z  M 140.861 39.667 L 141.056 34.5 L 135.695 34.5 L 130.333 34.5 L 130.333 39.861 L 130.333 45.223 L 135.5 45.028 L 140.667 44.833 L 140.861 39.667 Z  M 168.333 39.833 L 168.333 34.5 L 163 34.5 L 157.667 34.5 L 157.667 39.389 C 157.667 45.365 157.468 45.167 163.444 45.167 L 168.333 45.167 L 168.333 39.833 Z  M 251.667 39.833 L 251.667 34.5 L 246.667 34.5 L 241.667 34.5 L 241.667 39.833 L 241.667 45.167 L 246.667 45.167 L 251.667 45.167 L 251.667 39.833 Z  M 279.667 39.833 L 279.667 34.5 L 274.333 34.5 L 269 34.5 L 269 39.833 L 269 45.167 L 274.333 45.167 L 279.667 45.167 L 279.667 39.833 Z  M 307.667 39.833 L 307.667 34.5 L 302.333 34.5 L 297 34.5 L 297 39.833 L 297 45.167 L 302.333 45.167 L 307.667 45.167 L 307.667 39.833 Z  M 335.667 39.833 L 335.667 34.5 L 330.333 34.5 L 325 34.5 L 325 39.833 L 325 45.167 L 330.333 45.167 L 335.667 45.167 L 335.667 39.833 Z  M 363.528 39.667 L 363.723 34.5 L 358.361 34.5 L 353 34.5 L 353 39.861 L 353 45.223 L 358.167 45.028 L 363.333 44.833 L 363.528 39.667 Z  M 17.34 19.54 C 25.631 16.076 22.962 3.611 13.929 3.611 C 4.423 3.611 2.766 17.7 12 20.012 C 14.298 20.587 14.979 20.527 17.34 19.54 Z  M 400.766 18.707 C 405.961 15.303 405.063 6.966 399.222 4.382 C 393.522 1.861 388.342 5.029 387.817 11.359 C 387.23 18.447 394.696 22.684 400.766 18.707 L 400.766 18.707 Z  M 57 11.833 L 57 6.5 L 51.667 6.5 L 49.5 6.5 L 46.333 6.5 L 46.333 11.833 L 46.333 17.167 L 51.667 17.167 L 57 17.167 L 57 11.833 Z  M 85 11.833 L 85 6.5 L 79.667 6.5 L 74.333 6.5 L 74.333 11.833 L 74.333 17.167 L 79.667 17.167 L 85 17.167 L 85 11.833 Z  M 113 11.833 L 113 6.5 L 107.667 6.5 L 102.333 6.5 L 102.333 11.833 L 102.333 17.167 L 107.667 17.167 L 113 17.167 L 113 11.833 Z  M 140.667 11.833 L 140.667 6.833 L 135.5 6.639 L 130.333 6.444 L 130.333 11.833 L 130.333 17.223 L 135.5 17.028 L 140.667 16.833 L 140.667 11.833 Z  M 168.333 11.805 L 168.333 6.444 L 163.167 6.639 L 158 6.833 L 157.805 12 L 157.611 17.167 L 162.972 17.167 L 168.333 17.167 L 168.333 11.805 Z  M 251.667 11.833 L 251.667 6.5 L 246.667 6.5 L 241.667 6.5 L 241.667 11.833 L 241.667 17.167 L 246.667 17.167 L 251.667 17.167 L 251.667 11.833 Z  M 279.667 11.833 L 279.667 6.5 L 274.333 6.5 L 269 6.5 L 269 11.833 L 269 17.167 L 274.333 17.167 L 279.667 17.167 L 279.667 11.833 Z  M 307.667 11.833 L 307.667 6.5 L 302.333 6.5 L 297 6.5 L 297 11.833 L 297 17.167 L 302.333 17.167 L 307.667 17.167 L 307.667 11.833 Z  M 335.667 11.833 L 335.667 6.5 L 330.333 6.5 L 325 6.5 L 325 11.833 L 325 17.167 L 330.333 17.167 L 335.667 17.167 L 335.667 11.833 Z  M 363.333 11.833 L 363.333 6.833 L 358.167 6.639 L 353 6.444 L 353 11.833 L 353 17.223 L 358.167 17.028 L 363.333 16.833 L 363.333 11.833 Z  M 71 -31.5 L 71 -36.833 L 65.667 -36.833 L 60.333 -36.833 L 60.333 -31.5 L 60.333 -26.167 L 65.667 -26.167 L 71 -26.167 L 71 -31.5 Z  M 98.861 -31.667 L 99.056 -36.833 L 93.695 -36.833 L 88.333 -36.833 L 88.333 -31.472 L 88.333 -26.111 L 93.5 -26.305 L 98.667 -26.5 L 98.861 -31.667 Z  M 126.333 -31.5 L 126.333 -36.833 L 121.333 -36.833 L 116.333 -36.833 L 116.333 -31.5 L 116.333 -26.167 L 121.333 -26.167 L 126.333 -26.167 L 126.333 -31.5 Z  M 154.333 -31.5 L 154.333 -36.833 L 149 -36.833 L 143.667 -36.833 L 143.667 -31.944 C 143.667 -25.968 143.468 -26.167 149.444 -26.167 L 154.333 -26.167 L 154.333 -31.5 Z  M 182.333 -31.5 L 182.333 -36.833 L 177 -36.833 L 171.667 -36.833 L 171.667 -31.5 L 171.667 -26.167 L 177 -26.167 L 182.333 -26.167 L 182.333 -31.5 Z  M 238.195 -31.667 L 238.389 -36.833 L 233.028 -36.833 L 227.667 -36.833 L 227.667 -31.472 L 227.667 -26.111 L 232.833 -26.305 L 238 -26.5 L 238.195 -31.667 Z  M 265.667 -31.5 L 265.667 -36.833 L 260.667 -36.833 L 255.667 -36.833 L 255.667 -31.5 L 255.667 -26.167 L 260.667 -26.167 L 265.667 -26.167 L 265.667 -31.5 Z  M 293.667 -31.5 L 293.667 -36.833 L 288.333 -36.833 L 283 -36.833 L 283 -31.944 C 283 -25.968 282.802 -26.167 288.778 -26.167 L 293.667 -26.167 L 293.667 -31.5 Z  M 321.667 -31.5 L 321.667 -36.833 L 316.333 -36.833 L 311 -36.833 L 311 -31.5 L 311 -26.167 L 316.333 -26.167 L 321.667 -26.167 L 321.667 -31.5 Z  M 349.667 -31.5 L 349.667 -36.833 L 344.333 -36.833 L 339 -36.833 L 339 -31.5 L 339 -26.167 L 344.333 -26.167 L 349.667 -26.167 L 349.667 -31.5 Z  M 25 -31.833 L 25 -33.5 L 14.333 -33.5 L 3.667 -33.5 L 3.667 -31.833 L 3.667 -30.167 L 14.333 -30.167 L 25 -30.167 L 25 -31.833 Z  M 15.798 -53 L 16 -56.5 L 20.5 -56.697 L 25 -56.894 L 25 -58.5 L 25 -60.106 L 20.5 -60.303 L 16 -60.5 L 15.8 -64.333 L 15.6 -68.167 L 14 -68.167 L 12.4 -68.167 L 12.2 -64.333 L 12 -60.5 L 7.833 -60.302 L 3.667 -60.103 L 3.667 -58.5 L 3.667 -56.897 L 7.833 -56.698 L 12 -56.5 L 12.202 -53 L 12.403 -49.5 L 14 -49.5 L 15.597 -49.5 L 15.798 -53 Z  M 71 -59.5 L 71 -64.833 L 65.667 -64.833 L 60.333 -64.833 L 60.333 -59.5 L 60.333 -54.167 L 65.667 -54.167 L 71 -54.167 L 71 -59.5 Z  M 99 -59.5 L 99 -64.833 L 93.667 -64.833 L 88.333 -64.833 L 88.333 -59.5 L 88.333 -54.167 L 93.667 -54.167 L 99 -54.167 L 99 -59.5 Z  M 126.333 -59.5 L 126.333 -64.833 L 121.333 -64.833 L 116.333 -64.833 L 116.333 -59.5 L 116.333 -54.167 L 121.333 -54.167 L 126.333 -54.167 L 126.333 -59.5 Z  M 154.333 -59.5 L 154.333 -64.833 L 149 -64.833 L 143.667 -64.833 L 143.667 -59.944 C 143.667 -53.968 143.468 -54.167 149.444 -54.167 L 154.333 -54.167 L 154.333 -59.5 Z  M 182.333 -59.5 L 182.333 -64.833 L 177 -64.833 L 171.667 -64.833 L 171.667 -59.5 L 171.667 -54.167 L 177 -54.167 L 182.333 -54.167 L 182.333 -59.5 Z  M 238.333 -59.5 L 238.333 -64.833 L 233 -64.833 L 227.667 -64.833 L 227.667 -59.5 L 227.667 -54.167 L 233 -54.167 L 238.333 -54.167 L 238.333 -59.5 Z  M 265.667 -59.5 L 265.667 -64.833 L 260.667 -64.833 L 255.667 -64.833 L 255.667 -59.5 L 255.667 -54.167 L 260.667 -54.167 L 265.667 -54.167 L 265.667 -59.5 Z  M 293.667 -59.5 L 293.667 -64.833 L 288.333 -64.833 L 283 -64.833 L 283 -59.944 C 283 -53.968 282.802 -54.167 288.778 -54.167 L 293.667 -54.167 L 293.667 -59.5 Z  M 321.667 -59.5 L 321.667 -64.833 L 316.333 -64.833 L 311 -64.833 L 311 -59.5 L 311 -54.167 L 316.333 -54.167 L 321.667 -54.167 L 321.667 -59.5 Z  M 349.667 -59.5 L 349.667 -64.833 L 344.333 -64.833 L 339 -64.833 L 339 -59.5 L 339 -54.167 L 344.333 -54.167 L 349.667 -54.167 L 349.667 -59.5 Z " fill="rgb(88,84,100)"/></g></g></g></g></g></g><path d=" M 26.299 19.627 L 23.037 19.627 L 22.002 16.229 L 16.797 16.229 L 15.762 19.627 L 12.5 19.627 L 17.539 5.291 L 21.24 5.291 L 26.299 19.627 L 26.299 19.627 Z  M 17.559 13.689 L 21.279 13.689 L 21.279 13.689 Q 19.844 9.07 19.663 8.465 L 19.663 8.465 L 19.663 8.465 Q 19.482 7.859 19.404 7.508 L 19.404 7.508 L 19.404 7.508 Q 19.082 8.758 17.559 13.689 L 17.559 13.689 L 17.559 13.689 Z  M 37.002 12.488 L 37.002 12.488 L 37.002 12.488 Q 37.002 16.229 35.776 18.025 L 35.776 18.025 L 35.776 18.025 Q 34.551 19.822 32.002 19.822 L 32.002 19.822 L 32.002 19.822 Q 29.531 19.822 28.276 17.967 L 28.276 17.967 L 28.276 17.967 Q 27.021 16.111 27.021 12.488 L 27.021 12.488 L 27.021 12.488 Q 27.021 8.709 28.242 6.917 L 28.242 6.917 L 28.242 6.917 Q 29.463 5.125 32.002 5.125 L 32.002 5.125 L 32.002 5.125 Q 34.473 5.125 35.737 7 L 35.737 7 L 35.737 7 Q 37.002 8.875 37.002 12.488 Z  M 30.02 12.488 L 30.02 12.488 L 30.02 12.488 Q 30.02 15.115 30.474 16.253 L 30.474 16.253 L 30.474 16.253 Q 30.928 17.391 32.002 17.391 L 32.002 17.391 L 32.002 17.391 Q 33.057 17.391 33.525 16.238 L 33.525 16.238 L 33.525 16.238 Q 33.994 15.086 33.994 12.488 L 33.994 12.488 L 33.994 12.488 Q 33.994 9.861 33.521 8.714 L 33.521 8.714 L 33.521 8.714 Q 33.047 7.566 32.002 7.566 L 32.002 7.566 L 32.002 7.566 Q 30.938 7.566 30.479 8.714 L 30.479 8.714 L 30.479 8.714 Q 30.02 9.861 30.02 12.488 Z " fill="rgb(88,84,100)"/><path d=" M 26.299 47.674 L 23.037 47.674 L 22.002 44.276 L 16.797 44.276 L 15.762 47.674 L 12.5 47.674 L 17.539 33.338 L 21.24 33.338 L 26.299 47.674 L 26.299 47.674 Z  M 17.559 41.737 L 21.279 41.737 L 21.279 41.737 Q 19.844 37.118 19.663 36.512 L 19.663 36.512 L 19.663 36.512 Q 19.482 35.907 19.404 35.555 L 19.404 35.555 L 19.404 35.555 Q 19.082 36.805 17.559 41.737 L 17.559 41.737 L 17.559 41.737 Z  M 34.561 33.397 L 34.561 47.674 L 31.543 47.674 L 31.543 39.413 L 31.572 38.055 L 31.621 36.571 L 31.621 36.571 Q 30.869 37.323 30.576 37.557 L 30.576 37.557 L 28.936 38.875 L 27.48 37.059 L 32.08 33.397 L 34.561 33.397 L 34.561 33.397 Z " fill="rgb(88,84,100)"/><path d=" M 26.299 75.721 L 23.037 75.721 L 22.002 72.323 L 16.797 72.323 L 15.762 75.721 L 12.5 75.721 L 17.539 61.386 L 21.24 61.386 L 26.299 75.721 L 26.299 75.721 Z  M 17.559 69.784 L 21.279 69.784 L 21.279 69.784 Q 19.844 65.165 19.663 64.559 L 19.663 64.559 L 19.663 64.559 Q 19.482 63.954 19.404 63.602 L 19.404 63.602 L 19.404 63.602 Q 19.082 64.852 17.559 69.784 L 17.559 69.784 L 17.559 69.784 Z  M 37.08 73.182 L 37.08 75.721 L 27.1 75.721 L 27.1 73.622 L 30.684 69.999 L 30.684 69.999 Q 32.275 68.368 32.764 67.738 L 32.764 67.738 L 32.764 67.738 Q 33.252 67.108 33.467 66.571 L 33.467 66.571 L 33.467 66.571 Q 33.682 66.034 33.682 65.458 L 33.682 65.458 L 33.682 65.458 Q 33.682 64.598 33.208 64.179 L 33.208 64.179 L 33.208 64.179 Q 32.734 63.759 31.943 63.759 L 31.943 63.759 L 31.943 63.759 Q 31.113 63.759 30.332 64.139 L 30.332 64.139 L 30.332 64.139 Q 29.551 64.52 28.701 65.223 L 28.701 65.223 L 27.061 63.28 L 27.061 63.28 Q 28.115 62.382 28.809 62.011 L 28.809 62.011 L 28.809 62.011 Q 29.502 61.639 30.322 61.439 L 30.322 61.439 L 30.322 61.439 Q 31.143 61.239 32.158 61.239 L 32.158 61.239 L 32.158 61.239 Q 33.496 61.239 34.521 61.727 L 34.521 61.727 L 34.521 61.727 Q 35.547 62.216 36.113 63.095 L 36.113 63.095 L 36.113 63.095 Q 36.68 63.973 36.68 65.106 L 36.68 65.106 L 36.68 65.106 Q 36.68 66.093 36.333 66.957 L 36.333 66.957 L 36.333 66.957 Q 35.986 67.821 35.259 68.729 L 35.259 68.729 L 35.259 68.729 Q 34.531 69.638 32.695 71.317 L 32.695 71.317 L 30.859 73.046 L 30.859 73.182 L 37.08 73.182 L 37.08 73.182 Z " fill="rgb(88,84,100)"/><path d=" M 26.143 96.493 L 26.143 96.493 L 26.143 96.493 Q 26.143 100.019 24.136 101.894 L 24.136 101.894 L 24.136 101.894 Q 22.129 103.769 18.34 103.769 L 18.34 103.769 L 14.297 103.769 L 14.297 89.491 L 18.779 89.491 L 18.779 89.491 Q 22.275 89.491 24.209 91.337 L 24.209 91.337 L 24.209 91.337 Q 26.143 93.183 26.143 96.493 Z  M 22.998 96.571 L 22.998 96.571 L 22.998 96.571 Q 22.998 91.972 18.936 91.972 L 18.936 91.972 L 17.324 91.972 L 17.324 101.269 L 18.623 101.269 L 18.623 101.269 Q 22.998 101.269 22.998 96.571 Z  M 38.008 96.63 L 38.008 96.63 L 38.008 96.63 Q 38.008 100.37 36.782 102.167 L 36.782 102.167 L 36.782 102.167 Q 35.557 103.964 33.008 103.964 L 33.008 103.964 L 33.008 103.964 Q 30.537 103.964 29.282 102.109 L 29.282 102.109 L 29.282 102.109 Q 28.027 100.253 28.027 96.63 L 28.027 96.63 L 28.027 96.63 Q 28.027 92.851 29.248 91.059 L 29.248 91.059 L 29.248 91.059 Q 30.469 89.267 33.008 89.267 L 33.008 89.267 L 33.008 89.267 Q 35.479 89.267 36.743 91.142 L 36.743 91.142 L 36.743 91.142 Q 38.008 93.017 38.008 96.63 Z  M 31.025 96.63 L 31.025 96.63 L 31.025 96.63 Q 31.025 99.257 31.479 100.395 L 31.479 100.395 L 31.479 100.395 Q 31.934 101.532 33.008 101.532 L 33.008 101.532 L 33.008 101.532 Q 34.063 101.532 34.531 100.38 L 34.531 100.38 L 34.531 100.38 Q 35 99.228 35 96.63 L 35 96.63 L 35 96.63 Q 35 94.003 34.526 92.856 L 34.526 92.856 L 34.526 92.856 Q 34.053 91.708 33.008 91.708 L 33.008 91.708 L 33.008 91.708 Q 31.943 91.708 31.484 92.856 L 31.484 92.856 L 31.484 92.856 Q 31.025 94.003 31.025 96.63 Z " fill="rgb(88,84,100)"/><path d=" M 26.143 124.541 L 26.143 124.541 L 26.143 124.541 Q 26.143 128.066 24.136 129.941 L 24.136 129.941 L 24.136 129.941 Q 22.129 131.816 18.34 131.816 L 18.34 131.816 L 14.297 131.816 L 14.297 117.539 L 18.779 117.539 L 18.779 117.539 Q 22.275 117.539 24.209 119.384 L 24.209 119.384 L 24.209 119.384 Q 26.143 121.23 26.143 124.541 Z  M 22.998 124.619 L 22.998 124.619 L 22.998 124.619 Q 22.998 120.019 18.936 120.019 L 18.936 120.019 L 17.324 120.019 L 17.324 129.316 L 18.623 129.316 L 18.623 129.316 Q 22.998 129.316 22.998 124.619 Z  M 35.566 117.539 L 35.566 131.816 L 32.549 131.816 L 32.549 123.554 L 32.578 122.197 L 32.627 120.713 L 32.627 120.713 Q 31.875 121.464 31.582 121.699 L 31.582 121.699 L 29.941 123.017 L 28.486 121.201 L 33.086 117.539 L 35.566 117.539 L 35.566 117.539 Z " fill="rgb(88,84,100)"/><path d=" M 26.143 152.588 L 26.143 152.588 L 26.143 152.588 Q 26.143 156.113 24.136 157.988 L 24.136 157.988 L 24.136 157.988 Q 22.129 159.863 18.34 159.863 L 18.34 159.863 L 14.297 159.863 L 14.297 145.586 L 18.779 145.586 L 18.779 145.586 Q 22.275 145.586 24.209 147.432 L 24.209 147.432 L 24.209 147.432 Q 26.143 149.277 26.143 152.588 Z  M 22.998 152.666 L 22.998 152.666 L 22.998 152.666 Q 22.998 148.066 18.936 148.066 L 18.936 148.066 L 17.324 148.066 L 17.324 157.363 L 18.623 157.363 L 18.623 157.363 Q 22.998 157.363 22.998 152.666 Z  M 38.086 157.324 L 38.086 159.863 L 28.105 159.863 L 28.105 157.764 L 31.689 154.141 L 31.689 154.141 Q 33.281 152.51 33.77 151.88 L 33.77 151.88 L 33.77 151.88 Q 34.258 151.25 34.473 150.713 L 34.473 150.713 L 34.473 150.713 Q 34.688 150.176 34.688 149.6 L 34.688 149.6 L 34.688 149.6 Q 34.688 148.74 34.214 148.32 L 34.214 148.32 L 34.214 148.32 Q 33.74 147.9 32.949 147.9 L 32.949 147.9 L 32.949 147.9 Q 32.119 147.9 31.338 148.281 L 31.338 148.281 L 31.338 148.281 Q 30.557 148.662 29.707 149.365 L 29.707 149.365 L 28.066 147.422 L 28.066 147.422 Q 29.121 146.523 29.814 146.152 L 29.814 146.152 L 29.814 146.152 Q 30.508 145.781 31.328 145.581 L 31.328 145.581 L 31.328 145.581 Q 32.148 145.381 33.164 145.381 L 33.164 145.381 L 33.164 145.381 Q 34.502 145.381 35.527 145.869 L 35.527 145.869 L 35.527 145.869 Q 36.553 146.357 37.119 147.236 L 37.119 147.236 L 37.119 147.236 Q 37.686 148.115 37.686 149.248 L 37.686 149.248 L 37.686 149.248 Q 37.686 150.234 37.339 151.099 L 37.339 151.099 L 37.339 151.099 Q 36.992 151.963 36.265 152.871 L 36.265 152.871 L 36.265 152.871 Q 35.537 153.779 33.701 155.459 L 33.701 155.459 L 31.865 157.188 L 31.865 157.324 L 38.086 157.324 L 38.086 157.324 Z " fill="rgb(88,84,100)"/></g></svg>